<svg class="railroad" viewBox="0 0 1863 2128" xmlns="http://www.w3.org/2000/svg" xmlns:xlink="http://www.w3.org/1999/xlink">
<style type="text/css">svg.railroad{background-color:hsl(30,20%,95%);background-size:15px 15px;background-image:linear-gradient(to right,rgba(30,30,30,.05) 1px,transparent 1px),linear-gradient(to bottom,rgba(30,30,30,.05) 1px,transparent 1px);}svg.railroad path{stroke-width:3px;stroke:black;fill:transparent;}svg.railroad .debug{stroke-width:1px;stroke:red;}svg.railroad text{font-size:14px;font-family:monospace;text-anchor:middle;}svg.railroad .nonterminal text{font-weight:bold;}svg.railroad text.comment{font-family:serif;font-style:italic;font-size:12px;}svg.railroad rect{stroke-width:3px;stroke:black;}svg.railroad g.labeledbox>rect{stroke-width:1px;stroke:grey;stroke-dasharray:5px;fill:rgba(90,90,150,.1);}svg.railroad .symbol>rect{fill:rgba(90,90,150,.1);}svg.railroad .regex>rect{fill:honeydew;}svg.railroad .string>rect{fill:cornsilk;}svg.railroad .character>rect{fill:lightcoral;}</style>
<g class="verticalgrid">
<g class="sequence">
<path d=" M 10 21 a 5 5 0 0 1 5 -5 a 5 5 0 0 1 5 5 a 5 5 0 0 1 -5 5 a 5 5 0 0 1 -5 -5 m 10 0 h 5"/>
<text class="comment" id="Program" x="64" y="26">
Program</text>
<g class="repeat">
<path d=" M 104 21 h 12 m 178 0 h 12 m -12 0 a 12 12 0 0 1 12 12 v 7 a 12 12 0 0 1 -12 12 m -52 0 h -126 m 66 0 l 5 -5 m 0 10 l -5 -5 m -66 0 a 12 12 0 0 1 -12 -12 v -7 a 12 12 0 0 1 12 -12"/>
<text class="comment" x="268" y="57">
[0, ∞]</text>
<g class="sequence">
<g class="character">
<rect height="22" rx="10" ry="10" width="76" x="116" y="10"/>
<text x="154" y="26">
IGNORED</text>
</g>
<a class="link" xlink:href="#Statement">
<g class="symbol">
<rect height="22" width="92" x="202" y="10"/>
<text x="248" y="26">
Statement</text>
</g>
</a>
<path d=" M 192 21 h 10"/>
</g>
</g>
<path d=" M 316 21 h 5 a 5 5 0 0 1 5 -5 a 5 5 0 0 1 5 5 a 5 5 0 0 1 -5 5 a 5 5 0 0 1 -5 -5"/>
<path d=" M 25 21 h 10"/>
<path d=" M 94 21 h 10"/>
<path d=" M 306 21 h 10"/>
</g>
<g class="sequence">
<path d=" M 10 85 a 5 5 0 0 1 5 -5 a 5 5 0 0 1 5 5 a 5 5 0 0 1 -5 5 a 5 5 0 0 1 -5 -5 m 10 0 h 5"/>
<text class="comment" id="Statement" x="71" y="90">
Statement</text>
<g class="choice">
<path d=" M 118 85 h 24 m 140 0 h 24"/>
<a class="link" xlink:href="#DefineNamespace">
<g class="symbol">
<rect height="22" width="140" x="142" y="74"/>
<text x="212" y="90">
DefineNamespace</text>
</g>
</a>
<path d=" M 118 85 a 12 12 0 0 1 12 12 v 9 m 164 0 v -9 a 12 12 0 0 1 12 -12"/>
<path d=" M 130 106 v 0 a 12 12 0 0 0 12 12 m 116 0 h 24 a 12 12 0 0 0 12 -12 v 0"/>
<a class="link" xlink:href="#DefineImport">
<g class="symbol">
<rect height="22" width="116" x="142" y="107"/>
<text x="200" y="123">
DefineImport</text>
</g>
</a>
</g>
<path d=" M 316 85 h 5 a 5 5 0 0 1 5 -5 a 5 5 0 0 1 5 5 a 5 5 0 0 1 -5 5 a 5 5 0 0 1 -5 -5"/>
<path d=" M 25 85 h 10"/>
<path d=" M 108 85 h 10"/>
<path d=" M 306 85 h 10"/>
</g>
<g class="sequence">
<path d=" M 10 152 a 5 5 0 0 1 5 -5 a 5 5 0 0 1 5 5 a 5 5 0 0 1 -5 5 a 5 5 0 0 1 -5 -5 m 10 0 h 5"/>
<text class="comment" id="EOS" x="50" y="157">
EOS</text>
<g class="choice">
<path d=" M 76 152 h 24 m 60 0 h 24"/>
<g class="string">
<rect height="22" rx="10" ry="10" width="60" x="100" y="141"/>
<text x="130" y="157">
[;；]</text>
</g>
<path d=" M 76 152 a 12 12 0 0 1 12 12 v 9 m 84 0 v -9 a 12 12 0 0 1 12 -12"/>
<path d=" M 88 173 v 0 a 12 12 0 0 0 12 12 m 52 0 h 8 a 12 12 0 0 0 12 -12 v 0"/>
<g class="string">
<rect height="22" rx="10" ry="10" width="52" x="100" y="174"/>
<text x="126" y="190">
⁏|;;</text>
</g>
</g>
<path d=" M 194 152 h 5 a 5 5 0 0 1 5 -5 a 5 5 0 0 1 5 5 a 5 5 0 0 1 -5 5 a 5 5 0 0 1 -5 -5"/>
<path d=" M 25 152 h 10"/>
<path d=" M 66 152 h 10"/>
<path d=" M 184 152 h 10"/>
</g>
<g class="sequence">
<path d=" M 10 219 a 5 5 0 0 1 5 -5 a 5 5 0 0 1 5 5 a 5 5 0 0 1 -5 5 a 5 5 0 0 1 -5 -5 m 10 0 h 5"/>
<text class="comment" id="EOS_FREE" x="68" y="224">
EOS_FREE</text>
<g class="string">
<rect height="22" rx="10" ry="10" width="92" x="111" y="208"/>
<text x="157" y="224">
[,，;；⁏]</text>
</g>
<path d=" M 213 219 h 5 a 5 5 0 0 1 5 -5 a 5 5 0 0 1 5 5 a 5 5 0 0 1 -5 5 a 5 5 0 0 1 -5 -5"/>
<path d=" M 25 219 h 10"/>
<path d=" M 101 219 h 10"/>
<path d=" M 203 219 h 10"/>
</g>
<g class="sequence">
<path d=" M 10 266 a 5 5 0 0 1 5 -5 a 5 5 0 0 1 5 5 a 5 5 0 0 1 -5 5 a 5 5 0 0 1 -5 -5 m 10 0 h 5"/>
<text class="comment" id="DefineNamespace" x="92" y="271">
DefineNamespace</text>
<g class="sequence">
<a class="link" xlink:href="#KW_NAMESPACE">
<g class="symbol">
<rect height="22" width="116" x="160" y="255"/>
<text x="218" y="271">
KW_NAMESPACE</text>
</g>
</a>
<g class="character">
<rect height="22" rx="10" ry="10" width="76" x="286" y="255"/>
<text x="324" y="271">
IGNORED</text>
</g>
<g class="optional">
<path d=" M 372 266 h 24 m -24 0 a 12 12 0 0 0 12 -12 v 0 a 12 12 0 0 1 12 -12 h 116 m -55 0 l -5 -5 m 0 10 l 5 -5 m 55 0 a 12 12 0 0 1 12 12 v 0 a 12 12 0 0 0 12 12 h -24"/>
<a class="link" xlink:href="#OP_NAMESPACE">
<g class="symbol">
<rect height="22" width="116" x="396" y="255"/>
<text x="454" y="271">
OP_NAMESPACE</text>
</g>
</a>
</g>
<g class="character">
<rect height="22" rx="10" ry="10" width="76" x="546" y="255"/>
<text x="584" y="271">
IGNORED</text>
</g>
<a class="link" xlink:href="#NamepathFree">
<g class="symbol">
<rect height="22" width="116" x="632" y="255"/>
<text x="690" y="271">
NamepathFree</text>
</g>
</a>
<g class="character">
<rect height="22" rx="10" ry="10" width="76" x="758" y="255"/>
<text x="796" y="271">
IGNORED</text>
</g>
<g class="optional">
<path d=" M 844 266 h 24 m -24 0 a 12 12 0 0 0 12 -12 v 0 a 12 12 0 0 1 12 -12 h 44 a 12 12 0 0 1 12 12 v 0 a 12 12 0 0 0 12 12 h -24"/>
<a class="link" xlink:href="#EOS">
<g class="symbol">
<rect height="22" width="44" x="868" y="255"/>
<text x="890" y="271">
EOS</text>
</g>
</a>
</g>
<path d=" M 276 266 h 10"/>
<path d=" M 362 266 h 10"/>
<path d=" M 536 266 h 10"/>
<path d=" M 622 266 h 10"/>
<path d=" M 748 266 h 10"/>
<path d=" M 834 266 h 10"/>
</g>
<path d=" M 946 266 h 5 a 5 5 0 0 1 5 -5 a 5 5 0 0 1 5 5 a 5 5 0 0 1 -5 5 a 5 5 0 0 1 -5 -5"/>
<path d=" M 25 266 h 10"/>
<path d=" M 150 266 h 10"/>
<path d=" M 936 266 h 10"/>
</g>
<g class="sequence">
<path d=" M 10 300 a 5 5 0 0 1 5 -5 a 5 5 0 0 1 5 5 a 5 5 0 0 1 -5 5 a 5 5 0 0 1 -5 -5 m 10 0 h 5"/>
<text class="comment" id="KW_NAMESPACE" x="82" y="305">
KW_NAMESPACE</text>
<g class="string">
<rect height="22" rx="10" ry="10" width="92" x="139" y="289"/>
<text x="185" y="305">
namespace</text>
</g>
<path d=" M 241 300 h 5 a 5 5 0 0 1 5 -5 a 5 5 0 0 1 5 5 a 5 5 0 0 1 -5 5 a 5 5 0 0 1 -5 -5"/>
<path d=" M 25 300 h 10"/>
<path d=" M 129 300 h 10"/>
<path d=" M 231 300 h 10"/>
</g>
<g class="sequence">
<path d=" M 10 334 a 5 5 0 0 1 5 -5 a 5 5 0 0 1 5 5 a 5 5 0 0 1 -5 5 a 5 5 0 0 1 -5 -5 m 10 0 h 5"/>
<text class="comment" id="OP_NAMESPACE" x="82" y="339">
OP_NAMESPACE</text>
<g class="choice">
<path d=" M 139 334 h 24 m 28 0 h 24"/>
<g class="string">
<rect height="22" rx="10" ry="10" width="28" x="163" y="323"/>
<text x="177" y="339">
!</text>
</g>
<path d=" M 139 334 a 12 12 0 0 1 12 12 v 9 m 52 0 v -9 a 12 12 0 0 1 12 -12"/>
<path d=" M 151 355 v 33 m 52 0 v -33"/>
<path d=" M 151 355 v 0 a 12 12 0 0 0 12 12 m 28 0 h 0 a 12 12 0 0 0 12 -12 v 0"/>
<g class="string">
<rect height="22" rx="10" ry="10" width="28" x="163" y="356"/>
<text x="177" y="372">
?</text>
</g>
<path d=" M 151 388 v 0 a 12 12 0 0 0 12 12 m 28 0 h 0 a 12 12 0 0 0 12 -12 v 0"/>
<g class="string">
<rect height="22" rx="10" ry="10" width="28" x="163" y="389"/>
<text x="177" y="405">
*</text>
</g>
</g>
<path d=" M 225 334 h 5 a 5 5 0 0 1 5 -5 a 5 5 0 0 1 5 5 a 5 5 0 0 1 -5 5 a 5 5 0 0 1 -5 -5"/>
<path d=" M 25 334 h 10"/>
<path d=" M 129 334 h 10"/>
<path d=" M 215 334 h 10"/>
</g>
<g class="sequence">
<path d=" M 10 447 a 5 5 0 0 1 5 -5 a 5 5 0 0 1 5 5 a 5 5 0 0 1 -5 5 a 5 5 0 0 1 -5 -5 m 10 0 h 5"/>
<text class="comment" id="DefineImport" x="82" y="452">
DefineImport</text>
<g class="choice">
<path d=" M 139 447 h 24 m 524 0 h 296 m -145 0 l -5 -5 m 0 10 l 5 -5 m 145 0"/>
<g class="sequence">
<a class="link" xlink:href="#KW_IMPORT">
<g class="symbol">
<rect height="22" width="92" x="163" y="436"/>
<text x="209" y="452">
KW_IMPORT</text>
</g>
</a>
<g class="character">
<rect height="22" rx="10" ry="10" width="76" x="265" y="436"/>
<text x="303" y="452">
IGNORED</text>
</g>
<g class="optional">
<path d=" M 351 447 h 24 m -24 0 a 12 12 0 0 0 12 -12 v 0 a 12 12 0 0 1 12 -12 h 100 m -47 0 l -5 -5 m 0 10 l 5 -5 m 47 0 a 12 12 0 0 1 12 12 v 0 a 12 12 0 0 0 12 12 h -24"/>
<a class="link" xlink:href="#ImportTerm">
<g class="symbol">
<rect height="22" width="100" x="375" y="436"/>
<text x="425" y="452">
ImportTerm</text>
</g>
</a>
</g>
<g class="character">
<rect height="22" rx="10" ry="10" width="76" x="509" y="436"/>
<text x="547" y="452">
IGNORED</text>
</g>
<g class="optional">
<path d=" M 595 447 h 24 m -24 0 a 12 12 0 0 0 12 -12 v 0 a 12 12 0 0 1 12 -12 h 44 a 12 12 0 0 1 12 12 v 0 a 12 12 0 0 0 12 12 h -24"/>
<a class="link" xlink:href="#EOS">
<g class="symbol">
<rect height="22" width="44" x="619" y="436"/>
<text x="641" y="452">
EOS</text>
</g>
</a>
</g>
<path d=" M 255 447 h 10"/>
<path d=" M 341 447 h 10"/>
<path d=" M 499 447 h 10"/>
<path d=" M 585 447 h 10"/>
</g>
<path d=" M 139 447 a 12 12 0 0 1 12 12 v 9 m 820 0 v -9 a 12 12 0 0 1 12 -12"/>
<path d=" M 151 468 v 12 a 12 12 0 0 0 12 12 m 796 0 h 0 a 12 12 0 0 0 12 -12 v -12"/>
<g class="sequence">
<a class="link" xlink:href="#KW_IMPORT">
<g class="symbol">
<rect height="22" width="92" x="163" y="481"/>
<text x="209" y="497">
KW_IMPORT</text>
</g>
</a>
<g class="character">
<rect height="22" rx="10" ry="10" width="76" x="265" y="481"/>
<text x="303" y="497">
IGNORED</text>
</g>
<g class="sequence">
<g class="string">
<rect height="22" rx="10" ry="10" width="28" x="351" y="481"/>
<text x="365" y="497">
{</text>
</g>
<g class="repeat">
<path d=" M 389 492 h 12 m 234 0 h 12 m -12 0 a 12 12 0 0 1 12 12 v 40 a 12 12 0 0 1 -12 12 m -52 0 h -182 m 94 0 l 5 -5 m 0 10 l -5 -5 m -94 0 a 12 12 0 0 1 -12 -12 v -40 a 12 12 0 0 1 12 -12"/>
<text class="comment" x="609" y="561">
[0, ∞]</text>
<g class="sequence">
<g class="character">
<rect height="22" rx="10" ry="10" width="76" x="401" y="481"/>
<text x="439" y="497">
IGNORED</text>
</g>
<g class="choice">
<path d=" M 487 492 h 24 m 100 0 h 24"/>
<a class="link" xlink:href="#ImportTerm">
<g class="symbol">
<rect height="22" width="100" x="511" y="481"/>
<text x="561" y="497">
ImportTerm</text>
</g>
</a>
<path d=" M 487 492 a 12 12 0 0 1 12 12 v 9 m 124 0 v -9 a 12 12 0 0 1 12 -12"/>
<path d=" M 499 513 v 0 a 12 12 0 0 0 12 12 m 84 0 h 16 a 12 12 0 0 0 12 -12 v 0"/>
<a class="link" xlink:href="#EOS_FREE">
<g class="symbol">
<rect height="22" width="84" x="511" y="514"/>
<text x="553" y="530">
EOS_FREE</text>
</g>
</a>
</g>
<path d=" M 477 492 h 10"/>
</g>
</g>
<path d=" M 379 492 h 10"/>
</g>
<g class="character">
<rect height="22" rx="10" ry="10" width="76" x="657" y="481"/>
<text x="695" y="497">
IGNORED</text>
</g>
<g class="string">
<rect height="22" rx="10" ry="10" width="28" x="743" y="481"/>
<text x="757" y="497">
}</text>
</g>
<g class="character">
<rect height="22" rx="10" ry="10" width="76" x="781" y="481"/>
<text x="819" y="497">
IGNORED</text>
</g>
<g class="optional">
<path d=" M 867 492 h 24 m -24 0 a 12 12 0 0 0 12 -12 v 0 a 12 12 0 0 1 12 -12 h 44 a 12 12 0 0 1 12 12 v 0 a 12 12 0 0 0 12 12 h -24"/>
<a class="link" xlink:href="#EOS">
<g class="symbol">
<rect height="22" width="44" x="891" y="481"/>
<text x="913" y="497">
EOS</text>
</g>
</a>
</g>
<path d=" M 255 492 h 10"/>
<path d=" M 341 492 h 10"/>
<path d=" M 647 492 h 10"/>
<path d=" M 733 492 h 10"/>
<path d=" M 771 492 h 10"/>
<path d=" M 857 492 h 10"/>
</g>
</g>
<path d=" M 993 447 h 5 a 5 5 0 0 1 5 -5 a 5 5 0 0 1 5 5 a 5 5 0 0 1 -5 5 a 5 5 0 0 1 -5 -5"/>
<path d=" M 25 447 h 10"/>
<path d=" M 129 447 h 10"/>
<path d=" M 983 447 h 10"/>
</g>
<g class="sequence">
<path d=" M 10 589 a 5 5 0 0 1 5 -5 a 5 5 0 0 1 5 5 a 5 5 0 0 1 -5 5 a 5 5 0 0 1 -5 -5 m 10 0 h 5"/>
<text class="comment" id="ImportTerm" x="75" y="594">
ImportTerm</text>
<g class="choice">
<path d=" M 125 589 h 24 m 84 0 h 56 m -25 0 l -5 -5 m 0 10 l 5 -5 m 25 0"/>
<a class="link" xlink:href="#ImportAs">
<g class="symbol">
<rect height="22" width="84" x="149" y="578"/>
<text x="191" y="594">
ImportAs</text>
</g>
</a>
<path d=" M 125 589 a 12 12 0 0 1 12 12 v 9 m 140 0 v -9 a 12 12 0 0 1 12 -12"/>
<path d=" M 137 610 v 33 m 140 0 v -33"/>
<path d=" M 137 643 v 33 m 140 0 v -33"/>
<path d=" M 137 676 v 33 m 140 0 v -33"/>
<path d=" M 137 610 v 0 a 12 12 0 0 0 12 12 m 92 0 h 24 a 12 12 0 0 0 12 -12 v 0"/>
<a class="link" xlink:href="#ImportAll">
<g class="symbol">
<rect height="22" width="92" x="149" y="611"/>
<text x="195" y="627">
ImportAll</text>
</g>
</a>
<path d=" M 137 643 v 0 a 12 12 0 0 0 12 12 m 108 0 h 8 a 12 12 0 0 0 12 -12 v 0"/>
<a class="link" xlink:href="#ImportMacro">
<g class="symbol">
<rect height="22" width="108" x="149" y="644"/>
<text x="203" y="660">
ImportMacro</text>
</g>
</a>
<path d=" M 137 676 v 0 a 12 12 0 0 0 12 12 m 108 0 h 8 a 12 12 0 0 0 12 -12 v 0"/>
<a class="link" xlink:href="#ImportBlock">
<g class="symbol">
<rect height="22" width="108" x="149" y="677"/>
<text x="203" y="693">
ImportBlock</text>
</g>
</a>
<path d=" M 137 709 v 0 a 12 12 0 0 0 12 12 m 116 0 h 0 a 12 12 0 0 0 12 -12 v 0"/>
<a class="link" xlink:href="#NamepathFree">
<g class="symbol">
<rect height="22" width="116" x="149" y="710"/>
<text x="207" y="726">
NamepathFree</text>
</g>
</a>
</g>
<path d=" M 299 589 h 5 a 5 5 0 0 1 5 -5 a 5 5 0 0 1 5 5 a 5 5 0 0 1 -5 5 a 5 5 0 0 1 -5 -5"/>
<path d=" M 25 589 h 10"/>
<path d=" M 115 589 h 10"/>
<path d=" M 289 589 h 10"/>
</g>
<g class="sequence">
<path d=" M 10 755 a 5 5 0 0 1 5 -5 a 5 5 0 0 1 5 5 a 5 5 0 0 1 -5 5 a 5 5 0 0 1 -5 -5 m 10 0 h 5"/>
<text class="comment" id="ImportAs" x="68" y="760">
ImportAs</text>
<g class="sequence">
<g class="sequence">
<a class="link" xlink:href="#NamepathFree">
<g class="symbol">
<rect height="22" width="116" x="111" y="744"/>
<text x="169" y="760">
NamepathFree</text>
</g>
</a>
<g class="character">
<rect height="22" rx="10" ry="10" width="76" x="237" y="744"/>
<text x="275" y="760">
IGNORED</text>
</g>
<a class="link" xlink:href="#KW_AS">
<g class="symbol">
<rect height="22" width="60" x="323" y="744"/>
<text x="353" y="760">
KW_AS</text>
</g>
</a>
<path d=" M 227 755 h 10"/>
<path d=" M 313 755 h 10"/>
</g>
<g class="character">
<rect height="22" rx="10" ry="10" width="76" x="393" y="744"/>
<text x="431" y="760">
IGNORED</text>
</g>
<a class="link" xlink:href="#Identifier">
<g class="symbol">
<rect height="22" width="100" x="479" y="744"/>
<text x="529" y="760">
Identifier</text>
</g>
</a>
<path d=" M 383 755 h 10"/>
<path d=" M 469 755 h 10"/>
</g>
<path d=" M 589 755 h 5 a 5 5 0 0 1 5 -5 a 5 5 0 0 1 5 5 a 5 5 0 0 1 -5 5 a 5 5 0 0 1 -5 -5"/>
<path d=" M 25 755 h 10"/>
<path d=" M 101 755 h 10"/>
<path d=" M 579 755 h 10"/>
</g>
<g class="sequence">
<path d=" M 10 789 a 5 5 0 0 1 5 -5 a 5 5 0 0 1 5 5 a 5 5 0 0 1 -5 5 a 5 5 0 0 1 -5 -5 m 10 0 h 5"/>
<text class="comment" id="ImportAll" x="71" y="794">
ImportAll</text>
<g class="sequence">
<a class="link" xlink:href="#NamepathFree">
<g class="symbol">
<rect height="22" width="116" x="118" y="778"/>
<text x="176" y="794">
NamepathFree</text>
</g>
</a>
<g class="character">
<rect height="22" rx="10" ry="10" width="76" x="244" y="778"/>
<text x="282" y="794">
IGNORED</text>
</g>
<g class="string">
<rect height="22" rx="10" ry="10" width="76" x="330" y="778"/>
<text x="368" y="794">
[.∷]|::</text>
</g>
<g class="character">
<rect height="22" rx="10" ry="10" width="76" x="416" y="778"/>
<text x="454" y="794">
IGNORED</text>
</g>
<a class="link" xlink:href="#OP_IMPORT_ALL">
<g class="symbol">
<rect height="22" width="124" x="502" y="778"/>
<text x="564" y="794">
OP_IMPORT_ALL</text>
</g>
</a>
<path d=" M 234 789 h 10"/>
<path d=" M 320 789 h 10"/>
<path d=" M 406 789 h 10"/>
<path d=" M 492 789 h 10"/>
</g>
<path d=" M 636 789 h 5 a 5 5 0 0 1 5 -5 a 5 5 0 0 1 5 5 a 5 5 0 0 1 -5 5 a 5 5 0 0 1 -5 -5"/>
<path d=" M 25 789 h 10"/>
<path d=" M 108 789 h 10"/>
<path d=" M 626 789 h 10"/>
</g>
<g class="sequence">
<path d=" M 10 836 a 5 5 0 0 1 5 -5 a 5 5 0 0 1 5 5 a 5 5 0 0 1 -5 5 a 5 5 0 0 1 -5 -5 m 10 0 h 5"/>
<text class="comment" id="ImportBlock" x="78" y="841">
ImportBlock</text>
<g class="sequence">
<a class="link" xlink:href="#NamepathFree">
<g class="symbol">
<rect height="22" width="116" x="132" y="825"/>
<text x="190" y="841">
NamepathFree</text>
</g>
</a>
<g class="character">
<rect height="22" rx="10" ry="10" width="76" x="258" y="825"/>
<text x="296" y="841">
IGNORED</text>
</g>
<g class="optional">
<path d=" M 344 836 h 24 m -24 0 a 12 12 0 0 0 12 -12 v 0 a 12 12 0 0 1 12 -12 h 76 m -35 0 l -5 -5 m 0 10 l 5 -5 m 35 0 a 12 12 0 0 1 12 12 v 0 a 12 12 0 0 0 12 12 h -24"/>
<g class="string">
<rect height="22" rx="10" ry="10" width="76" x="368" y="825"/>
<text x="406" y="841">
[.∷]|::</text>
</g>
</g>
<g class="character">
<rect height="22" rx="10" ry="10" width="76" x="478" y="825"/>
<text x="516" y="841">
IGNORED</text>
</g>
<g class="string">
<rect height="22" rx="10" ry="10" width="28" x="564" y="825"/>
<text x="578" y="841">
{</text>
</g>
<g class="repeat">
<path d=" M 602 836 h 12 m 234 0 h 12 m -12 0 a 12 12 0 0 1 12 12 v 40 a 12 12 0 0 1 -12 12 m -52 0 h -182 m 94 0 l 5 -5 m 0 10 l -5 -5 m -94 0 a 12 12 0 0 1 -12 -12 v -40 a 12 12 0 0 1 12 -12"/>
<text class="comment" x="822" y="905">
[0, ∞]</text>
<g class="sequence">
<g class="character">
<rect height="22" rx="10" ry="10" width="76" x="614" y="825"/>
<text x="652" y="841">
IGNORED</text>
</g>
<g class="choice">
<path d=" M 700 836 h 24 m 100 0 h 24"/>
<a class="link" xlink:href="#ImportTerm">
<g class="symbol">
<rect height="22" width="100" x="724" y="825"/>
<text x="774" y="841">
ImportTerm</text>
</g>
</a>
<path d=" M 700 836 a 12 12 0 0 1 12 12 v 9 m 124 0 v -9 a 12 12 0 0 1 12 -12"/>
<path d=" M 712 857 v 0 a 12 12 0 0 0 12 12 m 84 0 h 16 a 12 12 0 0 0 12 -12 v 0"/>
<a class="link" xlink:href="#EOS_FREE">
<g class="symbol">
<rect height="22" width="84" x="724" y="858"/>
<text x="766" y="874">
EOS_FREE</text>
</g>
</a>
</g>
<path d=" M 690 836 h 10"/>
</g>
</g>
<g class="character">
<rect height="22" rx="10" ry="10" width="76" x="870" y="825"/>
<text x="908" y="841">
IGNORED</text>
</g>
<g class="string">
<rect height="22" rx="10" ry="10" width="28" x="956" y="825"/>
<text x="970" y="841">
}</text>
</g>
<path d=" M 248 836 h 10"/>
<path d=" M 334 836 h 10"/>
<path d=" M 468 836 h 10"/>
<path d=" M 554 836 h 10"/>
<path d=" M 592 836 h 10"/>
<path d=" M 860 836 h 10"/>
<path d=" M 946 836 h 10"/>
</g>
<path d=" M 994 836 h 5 a 5 5 0 0 1 5 -5 a 5 5 0 0 1 5 5 a 5 5 0 0 1 -5 5 a 5 5 0 0 1 -5 -5"/>
<path d=" M 25 836 h 10"/>
<path d=" M 122 836 h 10"/>
<path d=" M 984 836 h 10"/>
</g>
<g class="sequence">
<path d=" M 10 933 a 5 5 0 0 1 5 -5 a 5 5 0 0 1 5 5 a 5 5 0 0 1 -5 5 a 5 5 0 0 1 -5 -5 m 10 0 h 5"/>
<text class="comment" id="ImportMacro" x="78" y="938">
ImportMacro</text>
<g class="sequence">
<g class="sequence">
<a class="link" xlink:href="#NamepathFree">
<g class="symbol">
<rect height="22" width="116" x="132" y="922"/>
<text x="190" y="938">
NamepathFree</text>
</g>
</a>
<g class="character">
<rect height="22" rx="10" ry="10" width="76" x="258" y="922"/>
<text x="296" y="938">
IGNORED</text>
</g>
<g class="string">
<rect height="22" rx="10" ry="10" width="76" x="344" y="922"/>
<text x="382" y="938">
[.∷]|::</text>
</g>
<g class="character">
<rect height="22" rx="10" ry="10" width="76" x="430" y="922"/>
<text x="468" y="938">
IGNORED</text>
</g>
<a class="link" xlink:href="#ImportMacroItem">
<g class="symbol">
<rect height="22" width="140" x="516" y="922"/>
<text x="586" y="938">
ImportMacroItem</text>
</g>
</a>
<g class="character">
<rect height="22" rx="10" ry="10" width="76" x="666" y="922"/>
<text x="704" y="938">
IGNORED</text>
</g>
<a class="link" xlink:href="#KW_AS">
<g class="symbol">
<rect height="22" width="60" x="752" y="922"/>
<text x="782" y="938">
KW_AS</text>
</g>
</a>
<path d=" M 248 933 h 10"/>
<path d=" M 334 933 h 10"/>
<path d=" M 420 933 h 10"/>
<path d=" M 506 933 h 10"/>
<path d=" M 656 933 h 10"/>
<path d=" M 742 933 h 10"/>
</g>
<g class="character">
<rect height="22" rx="10" ry="10" width="76" x="822" y="922"/>
<text x="860" y="938">
IGNORED</text>
</g>
<a class="link" xlink:href="#ImportMacroItem">
<g class="symbol">
<rect height="22" width="140" x="908" y="922"/>
<text x="978" y="938">
ImportMacroItem</text>
</g>
</a>
<path d=" M 812 933 h 10"/>
<path d=" M 898 933 h 10"/>
</g>
<path d=" M 1058 933 h 5 a 5 5 0 0 1 5 -5 a 5 5 0 0 1 5 5 a 5 5 0 0 1 -5 5 a 5 5 0 0 1 -5 -5"/>
<path d=" M 25 933 h 10"/>
<path d=" M 122 933 h 10"/>
<path d=" M 1048 933 h 10"/>
</g>
<g class="sequence">
<path d=" M 10 967 a 5 5 0 0 1 5 -5 a 5 5 0 0 1 5 5 a 5 5 0 0 1 -5 5 a 5 5 0 0 1 -5 -5 m 10 0 h 5"/>
<text class="comment" id="ImportMacroItem" x="92" y="972">
ImportMacroItem</text>
<g class="choice">
<path d=" M 160 967 h 24 m 138 0 h 24"/>
<g class="sequence">
<g class="string">
<rect height="22" rx="10" ry="10" width="28" x="184" y="956"/>
<text x="198" y="972">
#</text>
</g>
<a class="link" xlink:href="#Identifier">
<g class="symbol">
<rect height="22" width="100" x="222" y="956"/>
<text x="272" y="972">
Identifier</text>
</g>
</a>
<path d=" M 212 967 h 10"/>
</g>
<path d=" M 160 967 a 12 12 0 0 1 12 12 v 9 m 162 0 v -9 a 12 12 0 0 1 12 -12"/>
<path d=" M 172 988 v 0 a 12 12 0 0 0 12 12 m 138 0 h 0 a 12 12 0 0 0 12 -12 v 0"/>
<g class="sequence">
<g class="string">
<rect height="22" rx="10" ry="10" width="28" x="184" y="989"/>
<text x="198" y="1005">
@</text>
</g>
<a class="link" xlink:href="#Identifier">
<g class="symbol">
<rect height="22" width="100" x="222" y="989"/>
<text x="272" y="1005">
Identifier</text>
</g>
</a>
<path d=" M 212 1000 h 10"/>
</g>
</g>
<path d=" M 356 967 h 5 a 5 5 0 0 1 5 -5 a 5 5 0 0 1 5 5 a 5 5 0 0 1 -5 5 a 5 5 0 0 1 -5 -5"/>
<path d=" M 25 967 h 10"/>
<path d=" M 150 967 h 10"/>
<path d=" M 346 967 h 10"/>
</g>
<g class="sequence">
<path d=" M 10 1034 a 5 5 0 0 1 5 -5 a 5 5 0 0 1 5 5 a 5 5 0 0 1 -5 5 a 5 5 0 0 1 -5 -5 m 10 0 h 5"/>
<text class="comment" id="KW_IMPORT" x="71" y="1039">
KW_IMPORT</text>
<g class="string">
<rect height="22" rx="10" ry="10" width="60" x="118" y="1023"/>
<text x="148" y="1039">
using</text>
</g>
<path d=" M 188 1034 h 5 a 5 5 0 0 1 5 -5 a 5 5 0 0 1 5 5 a 5 5 0 0 1 -5 5 a 5 5 0 0 1 -5 -5"/>
<path d=" M 25 1034 h 10"/>
<path d=" M 108 1034 h 10"/>
<path d=" M 178 1034 h 10"/>
</g>
<g class="sequence">
<path d=" M 10 1068 a 5 5 0 0 1 5 -5 a 5 5 0 0 1 5 5 a 5 5 0 0 1 -5 5 a 5 5 0 0 1 -5 -5 m 10 0 h 5"/>
<text class="comment" id="OP_IMPORT_ALL" x="85" y="1073">
OP_IMPORT_ALL</text>
<g class="string">
<rect height="22" rx="10" ry="10" width="28" x="146" y="1057"/>
<text x="160" y="1073">
*</text>
</g>
<path d=" M 184 1068 h 5 a 5 5 0 0 1 5 -5 a 5 5 0 0 1 5 5 a 5 5 0 0 1 -5 5 a 5 5 0 0 1 -5 -5"/>
<path d=" M 25 1068 h 10"/>
<path d=" M 136 1068 h 10"/>
<path d=" M 174 1068 h 10"/>
</g>
<g class="sequence">
<path d=" M 10 1115 a 5 5 0 0 1 5 -5 a 5 5 0 0 1 5 5 a 5 5 0 0 1 -5 5 a 5 5 0 0 1 -5 -5 m 10 0 h 5"/>
<text class="comment" id="DefineClass" x="78" y="1120">
DefineClass</text>
<g class="sequence">
<g class="optional">
<path d=" M 132 1115 h 24 m -24 0 a 12 12 0 0 0 12 -12 v 0 a 12 12 0 0 1 12 -12 h 132 m -63 0 l -5 -5 m 0 10 l 5 -5 m 63 0 a 12 12 0 0 1 12 12 v 0 a 12 12 0 0 0 12 12 h -24"/>
<a class="link" xlink:href="#DefineTemplate">
<g class="symbol">
<rect height="22" width="132" x="156" y="1104"/>
<text x="222" y="1120">
DefineTemplate</text>
</g>
</a>
</g>
<g class="character">
<rect height="22" rx="10" ry="10" width="76" x="322" y="1104"/>
<text x="360" y="1120">
IGNORED</text>
</g>
<a class="link" xlink:href="#KW_CLASS">
<g class="symbol">
<rect height="22" width="84" x="408" y="1104"/>
<text x="450" y="1120">
KW_CLASS</text>
</g>
</a>
<g class="character">
<rect height="22" rx="10" ry="10" width="76" x="502" y="1104"/>
<text x="540" y="1120">
IGNORED</text>
</g>
<a class="link" xlink:href="#Identifier">
<g class="symbol">
<rect height="22" width="100" x="588" y="1104"/>
<text x="638" y="1120">
Identifier</text>
</g>
</a>
<g class="character">
<rect height="22" rx="10" ry="10" width="76" x="698" y="1104"/>
<text x="736" y="1120">
IGNORED</text>
</g>
<g class="optional">
<path d=" M 784 1115 h 24 m -24 0 a 12 12 0 0 0 12 -12 v 0 a 12 12 0 0 1 12 -12 h 124 m -59 0 l -5 -5 m 0 10 l 5 -5 m 59 0 a 12 12 0 0 1 12 12 v 0 a 12 12 0 0 0 12 12 h -24"/>
<a class="link" xlink:href="#DefineGeneric">
<g class="symbol">
<rect height="22" width="124" x="808" y="1104"/>
<text x="870" y="1120">
DefineGeneric</text>
</g>
</a>
</g>
<g class="character">
<rect height="22" rx="10" ry="10" width="76" x="966" y="1104"/>
<text x="1004" y="1120">
IGNORED</text>
</g>
<g class="optional">
<path d=" M 1052 1115 h 24 m -24 0 a 12 12 0 0 0 12 -12 v 0 a 12 12 0 0 1 12 -12 h 116 m -55 0 l -5 -5 m 0 10 l 5 -5 m 55 0 a 12 12 0 0 1 12 12 v 0 a 12 12 0 0 0 12 12 h -24"/>
<a class="link" xlink:href="#ClassInherit">
<g class="symbol">
<rect height="22" width="116" x="1076" y="1104"/>
<text x="1134" y="1120">
ClassInherit</text>
</g>
</a>
</g>
<g class="character">
<rect height="22" rx="10" ry="10" width="76" x="1226" y="1104"/>
<text x="1264" y="1120">
IGNORED</text>
</g>
<g class="optional">
<path d=" M 1312 1115 h 24 m -24 0 a 12 12 0 0 0 12 -12 v 0 a 12 12 0 0 1 12 -12 h 84 m -39 0 l -5 -5 m 0 10 l 5 -5 m 39 0 a 12 12 0 0 1 12 12 v 0 a 12 12 0 0 0 12 12 h -24"/>
<a class="link" xlink:href="#TypeHint">
<g class="symbol">
<rect height="22" width="84" x="1336" y="1104"/>
<text x="1378" y="1120">
TypeHint</text>
</g>
</a>
</g>
<g class="character">
<rect height="22" rx="10" ry="10" width="76" x="1454" y="1104"/>
<text x="1492" y="1120">
IGNORED</text>
</g>
<a class="link" xlink:href="#ClassBlock">
<g class="symbol">
<rect height="22" width="100" x="1540" y="1104"/>
<text x="1590" y="1120">
ClassBlock</text>
</g>
</a>
<g class="character">
<rect height="22" rx="10" ry="10" width="76" x="1650" y="1104"/>
<text x="1688" y="1120">
IGNORED</text>
</g>
<g class="optional">
<path d=" M 1736 1115 h 24 m -24 0 a 12 12 0 0 0 12 -12 v 0 a 12 12 0 0 1 12 -12 h 44 a 12 12 0 0 1 12 12 v 0 a 12 12 0 0 0 12 12 h -24"/>
<a class="link" xlink:href="#EOS">
<g class="symbol">
<rect height="22" width="44" x="1760" y="1104"/>
<text x="1782" y="1120">
EOS</text>
</g>
</a>
</g>
<path d=" M 312 1115 h 10"/>
<path d=" M 398 1115 h 10"/>
<path d=" M 492 1115 h 10"/>
<path d=" M 578 1115 h 10"/>
<path d=" M 688 1115 h 10"/>
<path d=" M 774 1115 h 10"/>
<path d=" M 956 1115 h 10"/>
<path d=" M 1042 1115 h 10"/>
<path d=" M 1216 1115 h 10"/>
<path d=" M 1302 1115 h 10"/>
<path d=" M 1444 1115 h 10"/>
<path d=" M 1530 1115 h 10"/>
<path d=" M 1640 1115 h 10"/>
<path d=" M 1726 1115 h 10"/>
</g>
<path d=" M 1838 1115 h 5 a 5 5 0 0 1 5 -5 a 5 5 0 0 1 5 5 a 5 5 0 0 1 -5 5 a 5 5 0 0 1 -5 -5"/>
<path d=" M 25 1115 h 10"/>
<path d=" M 122 1115 h 10"/>
<path d=" M 1828 1115 h 10"/>
</g>
<g class="sequence">
<path d=" M 10 1149 a 5 5 0 0 1 5 -5 a 5 5 0 0 1 5 5 a 5 5 0 0 1 -5 5 a 5 5 0 0 1 -5 -5 m 10 0 h 5"/>
<text class="comment" id="ClassBlock" x="75" y="1154">
ClassBlock</text>
<g class="sequence">
<g class="string">
<rect height="22" rx="10" ry="10" width="28" x="125" y="1138"/>
<text x="139" y="1154">
{</text>
</g>
<g class="character">
<rect height="22" rx="10" ry="10" width="76" x="163" y="1138"/>
<text x="201" y="1154">
IGNORED</text>
</g>
<g class="repeat">
<path d=" M 249 1149 h 12 m 218 0 h 12 m -12 0 a 12 12 0 0 1 12 12 v 7 a 12 12 0 0 1 -12 12 m -52 0 h -166 m 86 0 l 5 -5 m 0 10 l -5 -5 m -86 0 a 12 12 0 0 1 -12 -12 v -7 a 12 12 0 0 1 12 -12"/>
<text class="comment" x="453" y="1185">
[0, ∞]</text>
<g class="sequence">
<g class="character">
<rect height="22" rx="10" ry="10" width="76" x="261" y="1138"/>
<text x="299" y="1154">
IGNORED</text>
</g>
<a class="link" xlink:href="#ClassBlockItem">
<g class="symbol">
<rect height="22" width="132" x="347" y="1138"/>
<text x="413" y="1154">
ClassBlockItem</text>
</g>
</a>
<path d=" M 337 1149 h 10"/>
</g>
</g>
<g class="character">
<rect height="22" rx="10" ry="10" width="76" x="501" y="1138"/>
<text x="539" y="1154">
IGNORED</text>
</g>
<g class="string">
<rect height="22" rx="10" ry="10" width="28" x="587" y="1138"/>
<text x="601" y="1154">
}</text>
</g>
<path d=" M 153 1149 h 10"/>
<path d=" M 239 1149 h 10"/>
<path d=" M 491 1149 h 10"/>
<path d=" M 577 1149 h 10"/>
</g>
<path d=" M 625 1149 h 5 a 5 5 0 0 1 5 -5 a 5 5 0 0 1 5 5 a 5 5 0 0 1 -5 5 a 5 5 0 0 1 -5 -5"/>
<path d=" M 25 1149 h 10"/>
<path d=" M 115 1149 h 10"/>
<path d=" M 615 1149 h 10"/>
</g>
<g class="sequence">
<path d=" M 10 1213 a 5 5 0 0 1 5 -5 a 5 5 0 0 1 5 5 a 5 5 0 0 1 -5 5 a 5 5 0 0 1 -5 -5 m 10 0 h 5"/>
<text class="comment" id="ClassBlockItem" x="89" y="1218">
ClassBlockItem</text>
<g class="choice">
<path d=" M 153 1213 h 24 m 108 0 h 24"/>
<a class="link" xlink:href="#ClassDomain">
<g class="symbol">
<rect height="22" width="108" x="177" y="1202"/>
<text x="231" y="1218">
ClassDomain</text>
</g>
</a>
<path d=" M 153 1213 a 12 12 0 0 1 12 12 v 9 m 132 0 v -9 a 12 12 0 0 1 12 -12"/>
<path d=" M 165 1234 v 33 m 132 0 v -33"/>
<path d=" M 165 1267 v 33 m 132 0 v -33"/>
<path d=" M 165 1234 v 0 a 12 12 0 0 0 12 12 m 108 0 h 0 a 12 12 0 0 0 12 -12 v 0"/>
<a class="link" xlink:href="#ClassMethod">
<g class="symbol">
<rect height="22" width="108" x="177" y="1235"/>
<text x="231" y="1251">
ClassMethod</text>
</g>
</a>
<path d=" M 165 1267 v 0 a 12 12 0 0 0 12 12 m 100 0 h 8 a 12 12 0 0 0 12 -12 v 0"/>
<a class="link" xlink:href="#ClassField">
<g class="symbol">
<rect height="22" width="100" x="177" y="1268"/>
<text x="227" y="1284">
ClassField</text>
</g>
</a>
<path d=" M 165 1300 v 0 a 12 12 0 0 0 12 12 m 84 0 h 24 a 12 12 0 0 0 12 -12 v 0"/>
<a class="link" xlink:href="#EOS_FREE">
<g class="symbol">
<rect height="22" width="84" x="177" y="1301"/>
<text x="219" y="1317">
EOS_FREE</text>
</g>
</a>
</g>
<path d=" M 319 1213 h 5 a 5 5 0 0 1 5 -5 a 5 5 0 0 1 5 5 a 5 5 0 0 1 -5 5 a 5 5 0 0 1 -5 -5"/>
<path d=" M 25 1213 h 10"/>
<path d=" M 143 1213 h 10"/>
<path d=" M 309 1213 h 10"/>
</g>
<g class="sequence">
<path d=" M 10 1371 a 5 5 0 0 1 5 -5 a 5 5 0 0 1 5 5 a 5 5 0 0 1 -5 5 a 5 5 0 0 1 -5 -5 m 10 0 h 5"/>
<text class="comment" id="ClassInherit" x="82" y="1376">
ClassInherit</text>
<g class="sequence">
<g class="string">
<rect height="22" rx="10" ry="10" width="28" x="139" y="1360"/>
<text x="153" y="1376">
(</text>
</g>
<g class="character">
<rect height="22" rx="10" ry="10" width="76" x="177" y="1360"/>
<text x="215" y="1376">
IGNORED</text>
</g>
<g class="optional">
<path d=" M 263 1371 h 24 m -24 0 a 12 12 0 0 0 12 -12 v -12 a 12 12 0 0 1 12 -12 h 798 m -396 0 l -5 -5 m 0 10 l 5 -5 m 396 0 a 12 12 0 0 1 12 12 v 12 a 12 12 0 0 0 12 12 h -24"/>
<g class="sequence">
<a class="link" xlink:href="#ClassInheritItem">
<g class="symbol">
<rect height="22" width="148" x="287" y="1360"/>
<text x="361" y="1376">
ClassInheritItem</text>
</g>
</a>
<g class="character">
<rect height="22" rx="10" ry="10" width="76" x="445" y="1360"/>
<text x="483" y="1376">
IGNORED</text>
</g>
<g class="repeat">
<path d=" M 531 1371 h 12 m 358 0 h 12 m -12 0 a 12 12 0 0 1 12 12 v 7 a 12 12 0 0 1 -12 12 m -52 0 h -306 m 156 0 l 5 -5 m 0 10 l -5 -5 m -156 0 a 12 12 0 0 1 -12 -12 v -7 a 12 12 0 0 1 12 -12"/>
<text class="comment" x="875" y="1407">
[0, ∞]</text>
<g class="sequence">
<g class="character">
<rect height="22" rx="10" ry="10" width="76" x="543" y="1360"/>
<text x="581" y="1376">
IGNORED</text>
</g>
<g class="sequence">
<g class="string">
<rect height="22" rx="10" ry="10" width="28" x="629" y="1360"/>
<text x="643" y="1376">
,</text>
</g>
<g class="character">
<rect height="22" rx="10" ry="10" width="76" x="667" y="1360"/>
<text x="705" y="1376">
IGNORED</text>
</g>
<a class="link" xlink:href="#ClassInheritItem">
<g class="symbol">
<rect height="22" width="148" x="753" y="1360"/>
<text x="827" y="1376">
ClassInheritItem</text>
</g>
</a>
<path d=" M 657 1371 h 10"/>
<path d=" M 743 1371 h 10"/>
</g>
<path d=" M 619 1371 h 10"/>
</g>
</g>
<g class="character">
<rect height="22" rx="10" ry="10" width="76" x="923" y="1360"/>
<text x="961" y="1376">
IGNORED</text>
</g>
<g class="optional">
<path d=" M 1009 1371 h 24 m -24 0 a 12 12 0 0 0 12 -12 v 0 a 12 12 0 0 1 12 -12 h 28 a 12 12 0 0 1 12 12 v 0 a 12 12 0 0 0 12 12 h -24"/>
<g class="string">
<rect height="22" rx="10" ry="10" width="28" x="1033" y="1360"/>
<text x="1047" y="1376">
,</text>
</g>
</g>
<path d=" M 435 1371 h 10"/>
<path d=" M 521 1371 h 10"/>
<path d=" M 913 1371 h 10"/>
<path d=" M 999 1371 h 10"/>
</g>
</g>
<g class="character">
<rect height="22" rx="10" ry="10" width="76" x="1119" y="1360"/>
<text x="1157" y="1376">
IGNORED</text>
</g>
<g class="string">
<rect height="22" rx="10" ry="10" width="28" x="1205" y="1360"/>
<text x="1219" y="1376">
)</text>
</g>
<path d=" M 167 1371 h 10"/>
<path d=" M 253 1371 h 10"/>
<path d=" M 1109 1371 h 10"/>
<path d=" M 1195 1371 h 10"/>
</g>
<path d=" M 1243 1371 h 5 a 5 5 0 0 1 5 -5 a 5 5 0 0 1 5 5 a 5 5 0 0 1 -5 5 a 5 5 0 0 1 -5 -5"/>
<path d=" M 25 1371 h 10"/>
<path d=" M 129 1371 h 10"/>
<path d=" M 1233 1371 h 10"/>
</g>
<g class="sequence">
<path d=" M 10 1435 a 5 5 0 0 1 5 -5 a 5 5 0 0 1 5 5 a 5 5 0 0 1 -5 5 a 5 5 0 0 1 -5 -5 m 10 0 h 5"/>
<text class="comment" id="ClassInheritItem" x="96" y="1440">
ClassInheritItem</text>
<a class="link" xlink:href="#Namepath">
<g class="symbol">
<rect height="22" width="84" x="167" y="1424"/>
<text x="209" y="1440">
Namepath</text>
</g>
</a>
<path d=" M 261 1435 h 5 a 5 5 0 0 1 5 -5 a 5 5 0 0 1 5 5 a 5 5 0 0 1 -5 5 a 5 5 0 0 1 -5 -5"/>
<path d=" M 25 1435 h 10"/>
<path d=" M 157 1435 h 10"/>
<path d=" M 251 1435 h 10"/>
</g>
<g class="sequence">
<path d=" M 10 1469 a 5 5 0 0 1 5 -5 a 5 5 0 0 1 5 5 a 5 5 0 0 1 -5 5 a 5 5 0 0 1 -5 -5 m 10 0 h 5"/>
<text class="comment" id="ClassField" x="75" y="1474">
ClassField</text>
<a class="link" xlink:href="#Identifier">
<g class="symbol">
<rect height="22" width="100" x="125" y="1458"/>
<text x="175" y="1474">
Identifier</text>
</g>
</a>
<path d=" M 235 1469 h 5 a 5 5 0 0 1 5 -5 a 5 5 0 0 1 5 5 a 5 5 0 0 1 -5 5 a 5 5 0 0 1 -5 -5"/>
<path d=" M 25 1469 h 10"/>
<path d=" M 115 1469 h 10"/>
<path d=" M 225 1469 h 10"/>
</g>
<g class="sequence">
<path d=" M 10 1503 a 5 5 0 0 1 5 -5 a 5 5 0 0 1 5 5 a 5 5 0 0 1 -5 5 a 5 5 0 0 1 -5 -5 m 10 0 h 5"/>
<text class="comment" id="ClassMethod" x="78" y="1508">
ClassMethod</text>
<g class="sequence">
<a class="link" xlink:href="#Identifier">
<g class="symbol">
<rect height="22" width="100" x="132" y="1492"/>
<text x="182" y="1508">
Identifier</text>
</g>
</a>
<g class="character">
<rect height="22" rx="10" ry="10" width="76" x="242" y="1492"/>
<text x="280" y="1508">
IGNORED</text>
</g>
<g class="string">
<rect height="22" rx="10" ry="10" width="28" x="328" y="1492"/>
<text x="342" y="1508">
(</text>
</g>
<g class="character">
<rect height="22" rx="10" ry="10" width="76" x="366" y="1492"/>
<text x="404" y="1508">
IGNORED</text>
</g>
<g class="string">
<rect height="22" rx="10" ry="10" width="28" x="452" y="1492"/>
<text x="466" y="1508">
)</text>
</g>
<path d=" M 232 1503 h 10"/>
<path d=" M 318 1503 h 10"/>
<path d=" M 356 1503 h 10"/>
<path d=" M 442 1503 h 10"/>
</g>
<path d=" M 490 1503 h 5 a 5 5 0 0 1 5 -5 a 5 5 0 0 1 5 5 a 5 5 0 0 1 -5 5 a 5 5 0 0 1 -5 -5"/>
<path d=" M 25 1503 h 10"/>
<path d=" M 122 1503 h 10"/>
<path d=" M 480 1503 h 10"/>
</g>
<g class="sequence">
<path d=" M 10 1537 a 5 5 0 0 1 5 -5 a 5 5 0 0 1 5 5 a 5 5 0 0 1 -5 5 a 5 5 0 0 1 -5 -5 m 10 0 h 5"/>
<text class="comment" id="ClassDomain" x="78" y="1542">
ClassDomain</text>
<g class="sequence">
<a class="link" xlink:href="#Identifier">
<g class="symbol">
<rect height="22" width="100" x="132" y="1526"/>
<text x="182" y="1542">
Identifier</text>
</g>
</a>
<g class="character">
<rect height="22" rx="10" ry="10" width="76" x="242" y="1526"/>
<text x="280" y="1542">
IGNORED</text>
</g>
<a class="link" xlink:href="#ClassBlock">
<g class="symbol">
<rect height="22" width="100" x="328" y="1526"/>
<text x="378" y="1542">
ClassBlock</text>
</g>
</a>
<path d=" M 232 1537 h 10"/>
<path d=" M 318 1537 h 10"/>
</g>
<path d=" M 438 1537 h 5 a 5 5 0 0 1 5 -5 a 5 5 0 0 1 5 5 a 5 5 0 0 1 -5 5 a 5 5 0 0 1 -5 -5"/>
<path d=" M 25 1537 h 10"/>
<path d=" M 122 1537 h 10"/>
<path d=" M 428 1537 h 10"/>
</g>
<g class="sequence">
<path d=" M 10 1584 a 5 5 0 0 1 5 -5 a 5 5 0 0 1 5 5 a 5 5 0 0 1 -5 5 a 5 5 0 0 1 -5 -5 m 10 0 h 5"/>
<text class="comment" id="DefineTemplate" x="89" y="1589">
DefineTemplate</text>
<g class="sequence">
<a class="link" xlink:href="#KW_TEMPLATE">
<g class="symbol">
<rect height="22" width="108" x="153" y="1573"/>
<text x="207" y="1589">
KW_TEMPLATE</text>
</g>
</a>
<g class="character">
<rect height="22" rx="10" ry="10" width="76" x="271" y="1573"/>
<text x="309" y="1589">
IGNORED</text>
</g>
<g class="optional">
<path d=" M 357 1584 h 24 m -24 0 a 12 12 0 0 0 12 -12 v 0 a 12 12 0 0 1 12 -12 h 164 m -79 0 l -5 -5 m 0 10 l 5 -5 m 79 0 a 12 12 0 0 1 12 12 v 0 a 12 12 0 0 0 12 12 h -24"/>
<a class="link" xlink:href="#TemplateParameters">
<g class="symbol">
<rect height="22" width="164" x="381" y="1573"/>
<text x="463" y="1589">
TemplateParameters</text>
</g>
</a>
</g>
<g class="character">
<rect height="22" rx="10" ry="10" width="76" x="579" y="1573"/>
<text x="617" y="1589">
IGNORED</text>
</g>
<a class="link" xlink:href="#TemplateBlock">
<g class="symbol">
<rect height="22" width="124" x="665" y="1573"/>
<text x="727" y="1589">
TemplateBlock</text>
</g>
</a>
<path d=" M 261 1584 h 10"/>
<path d=" M 347 1584 h 10"/>
<path d=" M 569 1584 h 10"/>
<path d=" M 655 1584 h 10"/>
</g>
<path d=" M 799 1584 h 5 a 5 5 0 0 1 5 -5 a 5 5 0 0 1 5 5 a 5 5 0 0 1 -5 5 a 5 5 0 0 1 -5 -5"/>
<path d=" M 25 1584 h 10"/>
<path d=" M 143 1584 h 10"/>
<path d=" M 789 1584 h 10"/>
</g>
<g class="sequence">
<path d=" M 10 1631 a 5 5 0 0 1 5 -5 a 5 5 0 0 1 5 5 a 5 5 0 0 1 -5 5 a 5 5 0 0 1 -5 -5 m 10 0 h 5"/>
<text class="comment" id="TemplateParameters" x="103" y="1636">
TemplateParameters</text>
<g class="choice">
<path d=" M 181 1631 h 24 m 766 0 h 272 m -133 0 l -5 -5 m 0 10 l 5 -5 m 133 0"/>
<g class="sequence">
<a class="link" xlink:href="#Identifier">
<g class="symbol">
<rect height="22" width="100" x="205" y="1620"/>
<text x="255" y="1636">
Identifier</text>
</g>
</a>
<g class="character">
<rect height="22" rx="10" ry="10" width="76" x="315" y="1620"/>
<text x="353" y="1636">
IGNORED</text>
</g>
<g class="repeat">
<path d=" M 401 1631 h 12 m 342 0 h 12 m -12 0 a 12 12 0 0 1 12 12 v 7 a 12 12 0 0 1 -12 12 m -52 0 h -290 m 148 0 l 5 -5 m 0 10 l -5 -5 m -148 0 a 12 12 0 0 1 -12 -12 v -7 a 12 12 0 0 1 12 -12"/>
<text class="comment" x="729" y="1667">
[0, ∞]</text>
<g class="sequence">
<g class="character">
<rect height="22" rx="10" ry="10" width="76" x="413" y="1620"/>
<text x="451" y="1636">
IGNORED</text>
</g>
<g class="sequence">
<a class="link" xlink:href="#COMMA">
<g class="symbol">
<rect height="22" width="60" x="499" y="1620"/>
<text x="529" y="1636">
COMMA</text>
</g>
</a>
<g class="character">
<rect height="22" rx="10" ry="10" width="76" x="569" y="1620"/>
<text x="607" y="1636">
IGNORED</text>
</g>
<a class="link" xlink:href="#Identifier">
<g class="symbol">
<rect height="22" width="100" x="655" y="1620"/>
<text x="705" y="1636">
Identifier</text>
</g>
</a>
<path d=" M 559 1631 h 10"/>
<path d=" M 645 1631 h 10"/>
</g>
<path d=" M 489 1631 h 10"/>
</g>
</g>
<g class="character">
<rect height="22" rx="10" ry="10" width="76" x="777" y="1620"/>
<text x="815" y="1636">
IGNORED</text>
</g>
<g class="optional">
<path d=" M 863 1631 h 24 m -24 0 a 12 12 0 0 0 12 -12 v 0 a 12 12 0 0 1 12 -12 h 60 m -27 0 l -5 -5 m 0 10 l 5 -5 m 27 0 a 12 12 0 0 1 12 12 v 0 a 12 12 0 0 0 12 12 h -24"/>
<a class="link" xlink:href="#COMMA">
<g class="symbol">
<rect height="22" width="60" x="887" y="1620"/>
<text x="917" y="1636">
COMMA</text>
</g>
</a>
</g>
<path d=" M 305 1631 h 10"/>
<path d=" M 391 1631 h 10"/>
<path d=" M 767 1631 h 10"/>
<path d=" M 853 1631 h 10"/>
</g>
<path d=" M 181 1631 a 12 12 0 0 1 12 12 v 39 m 1038 0 v -39 a 12 12 0 0 1 12 -12"/>
<path d=" M 193 1694 v 63 m 0 -28 l -5 -5 m 10 0 l -5 5 m 0 28 m 1038 0 v -63 m 0 34 l -5 5 m 10 0 l -5 -5 m 0 -34"/>
<path d=" M 193 1757 v 33 m 1038 0 v -33"/>
<path d=" M 193 1790 v 33 m 1038 0 v -33"/>
<path d=" M 193 1823 v 63 m 0 -28 l -5 -5 m 10 0 l -5 5 m 0 28 m 1038 0 v -63 m 0 34 l -5 5 m 10 0 l -5 -5 m 0 -34"/>
<path d=" M 193 1898 v 33 m 1038 0 v -33"/>
<path d=" M 193 1682 v 12 a 12 12 0 0 0 12 12 m 1014 0 h 0 a 12 12 0 0 0 12 -12 v -12"/>
<g class="sequence">
<g class="string">
<rect height="22" rx="10" ry="10" width="28" x="205" y="1695"/>
<text x="219" y="1711">
&lt;</text>
</g>
<g class="character">
<rect height="22" rx="10" ry="10" width="76" x="243" y="1695"/>
<text x="281" y="1711">
IGNORED</text>
</g>
<a class="link" xlink:href="#Identifier">
<g class="symbol">
<rect height="22" width="100" x="329" y="1695"/>
<text x="379" y="1711">
Identifier</text>
</g>
</a>
<g class="character">
<rect height="22" rx="10" ry="10" width="76" x="439" y="1695"/>
<text x="477" y="1711">
IGNORED</text>
</g>
<g class="repeat">
<path d=" M 525 1706 h 12 m 342 0 h 12 m -12 0 a 12 12 0 0 1 12 12 v 7 a 12 12 0 0 1 -12 12 m -52 0 h -290 m 148 0 l 5 -5 m 0 10 l -5 -5 m -148 0 a 12 12 0 0 1 -12 -12 v -7 a 12 12 0 0 1 12 -12"/>
<text class="comment" x="853" y="1742">
[0, ∞]</text>
<g class="sequence">
<g class="character">
<rect height="22" rx="10" ry="10" width="76" x="537" y="1695"/>
<text x="575" y="1711">
IGNORED</text>
</g>
<g class="sequence">
<a class="link" xlink:href="#COMMA">
<g class="symbol">
<rect height="22" width="60" x="623" y="1695"/>
<text x="653" y="1711">
COMMA</text>
</g>
</a>
<g class="character">
<rect height="22" rx="10" ry="10" width="76" x="693" y="1695"/>
<text x="731" y="1711">
IGNORED</text>
</g>
<a class="link" xlink:href="#Identifier">
<g class="symbol">
<rect height="22" width="100" x="779" y="1695"/>
<text x="829" y="1711">
Identifier</text>
</g>
</a>
<path d=" M 683 1706 h 10"/>
<path d=" M 769 1706 h 10"/>
</g>
<path d=" M 613 1706 h 10"/>
</g>
</g>
<g class="character">
<rect height="22" rx="10" ry="10" width="76" x="901" y="1695"/>
<text x="939" y="1711">
IGNORED</text>
</g>
<g class="optional">
<path d=" M 987 1706 h 24 m -24 0 a 12 12 0 0 0 12 -12 v 0 a 12 12 0 0 1 12 -12 h 60 m -27 0 l -5 -5 m 0 10 l 5 -5 m 27 0 a 12 12 0 0 1 12 12 v 0 a 12 12 0 0 0 12 12 h -24"/>
<a class="link" xlink:href="#COMMA">
<g class="symbol">
<rect height="22" width="60" x="1011" y="1695"/>
<text x="1041" y="1711">
COMMA</text>
</g>
</a>
</g>
<g class="character">
<rect height="22" rx="10" ry="10" width="76" x="1105" y="1695"/>
<text x="1143" y="1711">
IGNORED</text>
</g>
<g class="string">
<rect height="22" rx="10" ry="10" width="28" x="1191" y="1695"/>
<text x="1205" y="1711">
&gt;</text>
</g>
<path d=" M 233 1706 h 10"/>
<path d=" M 319 1706 h 10"/>
<path d=" M 429 1706 h 10"/>
<path d=" M 515 1706 h 10"/>
<path d=" M 891 1706 h 10"/>
<path d=" M 977 1706 h 10"/>
<path d=" M 1095 1706 h 10"/>
<path d=" M 1181 1706 h 10"/>
</g>
<path d=" M 193 1757 v 0 a 12 12 0 0 0 12 12 m 28 0 h 986 m -490 0 l -5 -5 m 0 10 l 5 -5 m 490 0 a 12 12 0 0 0 12 -12 v 0"/>
<g class="string">
<rect height="22" rx="10" ry="10" width="28" x="205" y="1758"/>
<text x="219" y="1774">
⟨</text>
</g>
<path d=" M 193 1790 v 0 a 12 12 0 0 0 12 12 m 100 0 h 914 m -454 0 l -5 -5 m 0 10 l 5 -5 m 454 0 a 12 12 0 0 0 12 -12 v 0"/>
<a class="link" xlink:href="#Identifier">
<g class="symbol">
<rect height="22" width="100" x="205" y="1791"/>
<text x="255" y="1807">
Identifier</text>
</g>
</a>
<path d=" M 193 1823 v 0 a 12 12 0 0 0 12 12 m 366 0 h 648 m -321 0 l -5 -5 m 0 10 l 5 -5 m 321 0 a 12 12 0 0 0 12 -12 v 0"/>
<g class="repeat">
<path d=" M 205 1835 h 12 m 342 0 h 12 m -12 0 a 12 12 0 0 1 12 12 v 7 a 12 12 0 0 1 -12 12 m -52 0 h -290 m 148 0 l 5 -5 m 0 10 l -5 -5 m -148 0 a 12 12 0 0 1 -12 -12 v -7 a 12 12 0 0 1 12 -12"/>
<text class="comment" x="533" y="1871">
[0, ∞]</text>
<g class="sequence">
<g class="character">
<rect height="22" rx="10" ry="10" width="76" x="217" y="1824"/>
<text x="255" y="1840">
IGNORED</text>
</g>
<g class="sequence">
<a class="link" xlink:href="#COMMA">
<g class="symbol">
<rect height="22" width="60" x="303" y="1824"/>
<text x="333" y="1840">
COMMA</text>
</g>
</a>
<g class="character">
<rect height="22" rx="10" ry="10" width="76" x="373" y="1824"/>
<text x="411" y="1840">
IGNORED</text>
</g>
<a class="link" xlink:href="#Identifier">
<g class="symbol">
<rect height="22" width="100" x="459" y="1824"/>
<text x="509" y="1840">
Identifier</text>
</g>
</a>
<path d=" M 363 1835 h 10"/>
<path d=" M 449 1835 h 10"/>
</g>
<path d=" M 293 1835 h 10"/>
</g>
</g>
<path d=" M 193 1886 v 12 a 12 12 0 0 0 12 12 m 108 0 h 906 m -450 0 l -5 -5 m 0 10 l 5 -5 m 450 0 a 12 12 0 0 0 12 -12 v -12"/>
<g class="optional">
<path d=" M 205 1910 h 24 m -24 0 a 12 12 0 0 0 12 -12 v 0 a 12 12 0 0 1 12 -12 h 60 m -27 0 l -5 -5 m 0 10 l 5 -5 m 27 0 a 12 12 0 0 1 12 12 v 0 a 12 12 0 0 0 12 12 h -24"/>
<a class="link" xlink:href="#COMMA">
<g class="symbol">
<rect height="22" width="60" x="229" y="1899"/>
<text x="259" y="1915">
COMMA</text>
</g>
</a>
</g>
<path d=" M 193 1931 v 0 a 12 12 0 0 0 12 12 m 28 0 h 986 m -490 0 l -5 -5 m 0 10 l 5 -5 m 490 0 a 12 12 0 0 0 12 -12 v 0"/>
<g class="string">
<rect height="22" rx="10" ry="10" width="28" x="205" y="1932"/>
<text x="219" y="1948">
⟩</text>
</g>
</g>
<path d=" M 1253 1631 h 5 a 5 5 0 0 1 5 -5 a 5 5 0 0 1 5 5 a 5 5 0 0 1 -5 5 a 5 5 0 0 1 -5 -5"/>
<path d=" M 25 1631 h 10"/>
<path d=" M 171 1631 h 10"/>
<path d=" M 1243 1631 h 10"/>
</g>
<g class="sequence">
<path d=" M 10 1977 a 5 5 0 0 1 5 -5 a 5 5 0 0 1 5 5 a 5 5 0 0 1 -5 5 a 5 5 0 0 1 -5 -5 m 10 0 h 5"/>
<text class="comment" id="TemplateBlock" x="85" y="1982">
TemplateBlock</text>
<g class="sequence">
<g class="string">
<rect height="22" rx="10" ry="10" width="28" x="146" y="1966"/>
<text x="160" y="1982">
{</text>
</g>
<g class="character">
<rect height="22" rx="10" ry="10" width="76" x="184" y="1966"/>
<text x="222" y="1982">
IGNORED</text>
</g>
<g class="repeat">
<path d=" M 270 1977 h 12 m 298 0 h 12 m -12 0 a 12 12 0 0 1 12 12 v 73 m 0 -33 l -5 -5 m 10 0 l -5 5 m 0 33 a 12 12 0 0 1 -12 12 m -52 0 h -246 m 126 0 l 5 -5 m 0 10 l -5 -5 m -126 0 a 12 12 0 0 1 -12 -12 v -73 m 0 39 l -5 5 m 10 0 l -5 -5 m 0 -39 a 12 12 0 0 1 12 -12"/>
<text class="comment" x="554" y="2079">
[0, ∞]</text>
<g class="sequence">
<g class="character">
<rect height="22" rx="10" ry="10" width="76" x="282" y="1966"/>
<text x="320" y="1982">
IGNORED</text>
</g>
<g class="choice">
<path d=" M 368 1977 h 24 m 156 0 h 32"/>
<a class="link" xlink:href="#TemplateStatement">
<g class="symbol">
<rect height="22" width="156" x="392" y="1966"/>
<text x="470" y="1982">
TemplateStatement</text>
</g>
</a>
<path d=" M 368 1977 a 12 12 0 0 1 12 12 v 9 m 188 0 v -9 a 12 12 0 0 1 12 -12"/>
<path d=" M 380 1998 v 33 m 188 0 v -33"/>
<path d=" M 380 1998 v 0 a 12 12 0 0 0 12 12 m 164 0 h 0 a 12 12 0 0 0 12 -12 v 0"/>
<a class="link" xlink:href="#TemplateImplements">
<g class="symbol">
<rect height="22" width="164" x="392" y="1999"/>
<text x="474" y="2015">
TemplateImplements</text>
</g>
</a>
<path d=" M 380 2031 v 0 a 12 12 0 0 0 12 12 m 84 0 h 80 m -37 0 l -5 -5 m 0 10 l 5 -5 m 37 0 a 12 12 0 0 0 12 -12 v 0"/>
<a class="link" xlink:href="#EOS_FREE">
<g class="symbol">
<rect height="22" width="84" x="392" y="2032"/>
<text x="434" y="2048">
EOS_FREE</text>
</g>
</a>
</g>
<path d=" M 358 1977 h 10"/>
</g>
</g>
<g class="character">
<rect height="22" rx="10" ry="10" width="76" x="602" y="1966"/>
<text x="640" y="1982">
IGNORED</text>
</g>
<g class="string">
<rect height="22" rx="10" ry="10" width="28" x="688" y="1966"/>
<text x="702" y="1982">
}</text>
</g>
<path d=" M 174 1977 h 10"/>
<path d=" M 260 1977 h 10"/>
<path d=" M 592 1977 h 10"/>
<path d=" M 678 1977 h 10"/>
</g>
<path d=" M 726 1977 h 5 a 5 5 0 0 1 5 -5 a 5 5 0 0 1 5 5 a 5 5 0 0 1 -5 5 a 5 5 0 0 1 -5 -5"/>
<path d=" M 25 1977 h 10"/>
<path d=" M 136 1977 h 10"/>
<path d=" M 716 1977 h 10"/>
</g>
<g class="sequence">
<path d=" M 10 2107 a 5 5 0 0 1 5 -5 a 5 5 0 0 1 5 5 a 5 5 0 0 1 -5 5 a 5 5 0 0 1 -5 -5 m 10 0 h 5"/>
<text class="comment" id="TemplateStatement" x="99" y="2112">
TemplateStatement</text>
<a class="link" xlink:href="#WhereBlock">
<g class="symbol">
<rect height="22" width="100" x="174" y="2096"/>
<text x="224" y="2112">
WhereBlock</text>
</g>
</a>
<path d=" M 284 2107 h 5 a 5 5 0 0 1 5 -5 a 5 5 0 0 1 5 5 a 5 5 0 0 1 -5 5 a 5 5 0 0 1 -5 -5"/>
<path d=" M 25 2107 h 10"/>
<path d=" M 164 2107 h 10"/>
<path d=" M 274 2107 h 10"/>
</g>
</g>
</svg>