<svg class="railroad" viewBox="0 0 1367 5894" xmlns="http://www.w3.org/2000/svg" xmlns:xlink="http://www.w3.org/1999/xlink">
<style type="text/css">svg.railroad{background-color:hsl(30,20%,95%);background-size:15px 15px;background-image:linear-gradient(to right,rgba(30,30,30,.05) 1px,transparent 1px),linear-gradient(to bottom,rgba(30,30,30,.05) 1px,transparent 1px);}svg.railroad path{stroke-width:3px;stroke:black;fill:transparent;}svg.railroad .debug{stroke-width:1px;stroke:red;}svg.railroad text{font-size:14px;font-family:monospace;text-anchor:middle;}svg.railroad .nonterminal text{font-weight:bold;}svg.railroad text.comment{font-family:serif;font-style:italic;font-size:12px;}svg.railroad rect{stroke-width:3px;stroke:black;}svg.railroad g.labeledbox>rect{stroke-width:1px;stroke:grey;stroke-dasharray:5px;fill:rgba(90,90,150,.1);}svg.railroad .symbol>rect{fill:rgba(90,90,150,.1);}svg.railroad .regex>rect{fill:honeydew;}svg.railroad .string>rect{fill:cornsilk;}svg.railroad .character>rect{fill:lightcoral;}</style>
<g class="verticalgrid">
<g class="sequence">
<path d=" M 10 21 a 5 5 0 0 1 5 -5 a 5 5 0 0 1 5 5 a 5 5 0 0 1 -5 5 a 5 5 0 0 1 -5 -5 m 10 0 h 5"/>
<text class="comment" id="Program" x="64" y="26">
Program</text>
<g class="repeat">
<path d=" M 104 21 h 12 m 178 0 h 12 m -12 0 a 12 12 0 0 1 12 12 v 7 a 12 12 0 0 1 -12 12 m -52 0 h -126 m 66 0 l 5 -5 m 0 10 l -5 -5 m -66 0 a 12 12 0 0 1 -12 -12 v -7 a 12 12 0 0 1 12 -12"/>
<text class="comment" x="268" y="57">
[0, ∞]</text>
<g class="sequence">
<g class="character">
<rect height="22" rx="10" ry="10" width="76" x="116" y="10"/>
<text x="154" y="26">
IGNORED</text>
</g>
<a class="link" xlink:href="#Statement">
<g class="symbol">
<rect height="22" width="92" x="202" y="10"/>
<text x="248" y="26">
Statement</text>
</g>
</a>
<path d=" M 192 21 h 10"/>
</g>
</g>
<path d=" M 316 21 h 5 a 5 5 0 0 1 5 -5 a 5 5 0 0 1 5 5 a 5 5 0 0 1 -5 5 a 5 5 0 0 1 -5 -5"/>
<path d=" M 25 21 h 10"/>
<path d=" M 94 21 h 10"/>
<path d=" M 306 21 h 10"/>
</g>
<g class="sequence">
<path d=" M 10 85 a 5 5 0 0 1 5 -5 a 5 5 0 0 1 5 5 a 5 5 0 0 1 -5 5 a 5 5 0 0 1 -5 -5 m 10 0 h 5"/>
<text class="comment" id="Statement" x="71" y="90">
Statement</text>
<g class="choice">
<path d=" M 118 85 h 24 m 140 0 h 24"/>
<a class="link" xlink:href="#DefineNamespace">
<g class="symbol">
<rect height="22" width="140" x="142" y="74"/>
<text x="212" y="90">
DefineNamespace</text>
</g>
</a>
<path d=" M 118 85 a 12 12 0 0 1 12 12 v 9 m 164 0 v -9 a 12 12 0 0 1 12 -12"/>
<path d=" M 130 106 v 0 a 12 12 0 0 0 12 12 m 116 0 h 24 a 12 12 0 0 0 12 -12 v 0"/>
<a class="link" xlink:href="#DefineImport">
<g class="symbol">
<rect height="22" width="116" x="142" y="107"/>
<text x="200" y="123">
DefineImport</text>
</g>
</a>
</g>
<path d=" M 316 85 h 5 a 5 5 0 0 1 5 -5 a 5 5 0 0 1 5 5 a 5 5 0 0 1 -5 5 a 5 5 0 0 1 -5 -5"/>
<path d=" M 25 85 h 10"/>
<path d=" M 108 85 h 10"/>
<path d=" M 306 85 h 10"/>
</g>
<g class="sequence">
<path d=" M 10 152 a 5 5 0 0 1 5 -5 a 5 5 0 0 1 5 5 a 5 5 0 0 1 -5 5 a 5 5 0 0 1 -5 -5 m 10 0 h 5"/>
<text class="comment" id="EOS" x="50" y="157">
EOS</text>
<g class="choice">
<path d=" M 76 152 h 24 m 60 0 h 24"/>
<g class="string">
<rect height="22" rx="10" ry="10" width="60" x="100" y="141"/>
<text x="130" y="157">
[;；]</text>
</g>
<path d=" M 76 152 a 12 12 0 0 1 12 12 v 9 m 84 0 v -9 a 12 12 0 0 1 12 -12"/>
<path d=" M 88 173 v 0 a 12 12 0 0 0 12 12 m 52 0 h 8 a 12 12 0 0 0 12 -12 v 0"/>
<g class="string">
<rect height="22" rx="10" ry="10" width="52" x="100" y="174"/>
<text x="126" y="190">
⁏|;;</text>
</g>
</g>
<path d=" M 194 152 h 5 a 5 5 0 0 1 5 -5 a 5 5 0 0 1 5 5 a 5 5 0 0 1 -5 5 a 5 5 0 0 1 -5 -5"/>
<path d=" M 25 152 h 10"/>
<path d=" M 66 152 h 10"/>
<path d=" M 184 152 h 10"/>
</g>
<g class="sequence">
<path d=" M 10 219 a 5 5 0 0 1 5 -5 a 5 5 0 0 1 5 5 a 5 5 0 0 1 -5 5 a 5 5 0 0 1 -5 -5 m 10 0 h 5"/>
<text class="comment" id="EOS_FREE" x="68" y="224">
EOS_FREE</text>
<g class="string">
<rect height="22" rx="10" ry="10" width="92" x="111" y="208"/>
<text x="157" y="224">
[,，;；⁏]</text>
</g>
<path d=" M 213 219 h 5 a 5 5 0 0 1 5 -5 a 5 5 0 0 1 5 5 a 5 5 0 0 1 -5 5 a 5 5 0 0 1 -5 -5"/>
<path d=" M 25 219 h 10"/>
<path d=" M 101 219 h 10"/>
<path d=" M 203 219 h 10"/>
</g>
<g class="sequence">
<path d=" M 10 266 a 5 5 0 0 1 5 -5 a 5 5 0 0 1 5 5 a 5 5 0 0 1 -5 5 a 5 5 0 0 1 -5 -5 m 10 0 h 5"/>
<text class="comment" id="DefineNamespace" x="92" y="271">
DefineNamespace</text>
<g class="sequence">
<a class="link" xlink:href="#KW_NAMESPACE">
<g class="symbol">
<rect height="22" width="116" x="160" y="255"/>
<text x="218" y="271">
KW_NAMESPACE</text>
</g>
</a>
<g class="character">
<rect height="22" rx="10" ry="10" width="76" x="286" y="255"/>
<text x="324" y="271">
IGNORED</text>
</g>
<g class="optional">
<path d=" M 372 266 h 24 m -24 0 a 12 12 0 0 0 12 -12 v 0 a 12 12 0 0 1 12 -12 h 116 m -55 0 l -5 -5 m 0 10 l 5 -5 m 55 0 a 12 12 0 0 1 12 12 v 0 a 12 12 0 0 0 12 12 h -24"/>
<a class="link" xlink:href="#OP_NAMESPACE">
<g class="symbol">
<rect height="22" width="116" x="396" y="255"/>
<text x="454" y="271">
OP_NAMESPACE</text>
</g>
</a>
</g>
<g class="character">
<rect height="22" rx="10" ry="10" width="76" x="546" y="255"/>
<text x="584" y="271">
IGNORED</text>
</g>
<a class="link" xlink:href="#NamepathFree">
<g class="symbol">
<rect height="22" width="116" x="632" y="255"/>
<text x="690" y="271">
NamepathFree</text>
</g>
</a>
<g class="character">
<rect height="22" rx="10" ry="10" width="76" x="758" y="255"/>
<text x="796" y="271">
IGNORED</text>
</g>
<g class="optional">
<path d=" M 844 266 h 24 m -24 0 a 12 12 0 0 0 12 -12 v 0 a 12 12 0 0 1 12 -12 h 44 a 12 12 0 0 1 12 12 v 0 a 12 12 0 0 0 12 12 h -24"/>
<a class="link" xlink:href="#EOS">
<g class="symbol">
<rect height="22" width="44" x="868" y="255"/>
<text x="890" y="271">
EOS</text>
</g>
</a>
</g>
<path d=" M 276 266 h 10"/>
<path d=" M 362 266 h 10"/>
<path d=" M 536 266 h 10"/>
<path d=" M 622 266 h 10"/>
<path d=" M 748 266 h 10"/>
<path d=" M 834 266 h 10"/>
</g>
<path d=" M 946 266 h 5 a 5 5 0 0 1 5 -5 a 5 5 0 0 1 5 5 a 5 5 0 0 1 -5 5 a 5 5 0 0 1 -5 -5"/>
<path d=" M 25 266 h 10"/>
<path d=" M 150 266 h 10"/>
<path d=" M 936 266 h 10"/>
</g>
<g class="sequence">
<path d=" M 10 300 a 5 5 0 0 1 5 -5 a 5 5 0 0 1 5 5 a 5 5 0 0 1 -5 5 a 5 5 0 0 1 -5 -5 m 10 0 h 5"/>
<text class="comment" id="OP_NAMESPACE" x="82" y="305">
OP_NAMESPACE</text>
<g class="choice">
<path d=" M 139 300 h 24 m 28 0 h 24"/>
<g class="string">
<rect height="22" rx="10" ry="10" width="28" x="163" y="289"/>
<text x="177" y="305">
!</text>
</g>
<path d=" M 139 300 a 12 12 0 0 1 12 12 v 9 m 52 0 v -9 a 12 12 0 0 1 12 -12"/>
<path d=" M 151 321 v 33 m 52 0 v -33"/>
<path d=" M 151 321 v 0 a 12 12 0 0 0 12 12 m 28 0 h 0 a 12 12 0 0 0 12 -12 v 0"/>
<g class="string">
<rect height="22" rx="10" ry="10" width="28" x="163" y="322"/>
<text x="177" y="338">
?</text>
</g>
<path d=" M 151 354 v 0 a 12 12 0 0 0 12 12 m 28 0 h 0 a 12 12 0 0 0 12 -12 v 0"/>
<g class="string">
<rect height="22" rx="10" ry="10" width="28" x="163" y="355"/>
<text x="177" y="371">
*</text>
</g>
</g>
<path d=" M 225 300 h 5 a 5 5 0 0 1 5 -5 a 5 5 0 0 1 5 5 a 5 5 0 0 1 -5 5 a 5 5 0 0 1 -5 -5"/>
<path d=" M 25 300 h 10"/>
<path d=" M 129 300 h 10"/>
<path d=" M 215 300 h 10"/>
</g>
<g class="sequence">
<path d=" M 10 413 a 5 5 0 0 1 5 -5 a 5 5 0 0 1 5 5 a 5 5 0 0 1 -5 5 a 5 5 0 0 1 -5 -5 m 10 0 h 5"/>
<text class="comment" id="DefineImport" x="82" y="418">
DefineImport</text>
<g class="choice">
<path d=" M 139 413 h 24 m 524 0 h 296 m -145 0 l -5 -5 m 0 10 l 5 -5 m 145 0"/>
<g class="sequence">
<a class="link" xlink:href="#KW_IMPORT">
<g class="symbol">
<rect height="22" width="92" x="163" y="402"/>
<text x="209" y="418">
KW_IMPORT</text>
</g>
</a>
<g class="character">
<rect height="22" rx="10" ry="10" width="76" x="265" y="402"/>
<text x="303" y="418">
IGNORED</text>
</g>
<g class="optional">
<path d=" M 351 413 h 24 m -24 0 a 12 12 0 0 0 12 -12 v 0 a 12 12 0 0 1 12 -12 h 100 m -47 0 l -5 -5 m 0 10 l 5 -5 m 47 0 a 12 12 0 0 1 12 12 v 0 a 12 12 0 0 0 12 12 h -24"/>
<a class="link" xlink:href="#ImportTerm">
<g class="symbol">
<rect height="22" width="100" x="375" y="402"/>
<text x="425" y="418">
ImportTerm</text>
</g>
</a>
</g>
<g class="character">
<rect height="22" rx="10" ry="10" width="76" x="509" y="402"/>
<text x="547" y="418">
IGNORED</text>
</g>
<g class="optional">
<path d=" M 595 413 h 24 m -24 0 a 12 12 0 0 0 12 -12 v 0 a 12 12 0 0 1 12 -12 h 44 a 12 12 0 0 1 12 12 v 0 a 12 12 0 0 0 12 12 h -24"/>
<a class="link" xlink:href="#EOS">
<g class="symbol">
<rect height="22" width="44" x="619" y="402"/>
<text x="641" y="418">
EOS</text>
</g>
</a>
</g>
<path d=" M 255 413 h 10"/>
<path d=" M 341 413 h 10"/>
<path d=" M 499 413 h 10"/>
<path d=" M 585 413 h 10"/>
</g>
<path d=" M 139 413 a 12 12 0 0 1 12 12 v 9 m 820 0 v -9 a 12 12 0 0 1 12 -12"/>
<path d=" M 151 434 v 12 a 12 12 0 0 0 12 12 m 796 0 h 0 a 12 12 0 0 0 12 -12 v -12"/>
<g class="sequence">
<a class="link" xlink:href="#KW_IMPORT">
<g class="symbol">
<rect height="22" width="92" x="163" y="447"/>
<text x="209" y="463">
KW_IMPORT</text>
</g>
</a>
<g class="character">
<rect height="22" rx="10" ry="10" width="76" x="265" y="447"/>
<text x="303" y="463">
IGNORED</text>
</g>
<g class="sequence">
<g class="string">
<rect height="22" rx="10" ry="10" width="28" x="351" y="447"/>
<text x="365" y="463">
{</text>
</g>
<g class="repeat">
<path d=" M 389 458 h 12 m 234 0 h 12 m -12 0 a 12 12 0 0 1 12 12 v 40 a 12 12 0 0 1 -12 12 m -52 0 h -182 m 94 0 l 5 -5 m 0 10 l -5 -5 m -94 0 a 12 12 0 0 1 -12 -12 v -40 a 12 12 0 0 1 12 -12"/>
<text class="comment" x="609" y="527">
[0, ∞]</text>
<g class="sequence">
<g class="character">
<rect height="22" rx="10" ry="10" width="76" x="401" y="447"/>
<text x="439" y="463">
IGNORED</text>
</g>
<g class="choice">
<path d=" M 487 458 h 24 m 100 0 h 24"/>
<a class="link" xlink:href="#ImportTerm">
<g class="symbol">
<rect height="22" width="100" x="511" y="447"/>
<text x="561" y="463">
ImportTerm</text>
</g>
</a>
<path d=" M 487 458 a 12 12 0 0 1 12 12 v 9 m 124 0 v -9 a 12 12 0 0 1 12 -12"/>
<path d=" M 499 479 v 0 a 12 12 0 0 0 12 12 m 84 0 h 16 a 12 12 0 0 0 12 -12 v 0"/>
<a class="link" xlink:href="#EOS_FREE">
<g class="symbol">
<rect height="22" width="84" x="511" y="480"/>
<text x="553" y="496">
EOS_FREE</text>
</g>
</a>
</g>
<path d=" M 477 458 h 10"/>
</g>
</g>
<path d=" M 379 458 h 10"/>
</g>
<g class="character">
<rect height="22" rx="10" ry="10" width="76" x="657" y="447"/>
<text x="695" y="463">
IGNORED</text>
</g>
<g class="string">
<rect height="22" rx="10" ry="10" width="28" x="743" y="447"/>
<text x="757" y="463">
}</text>
</g>
<g class="character">
<rect height="22" rx="10" ry="10" width="76" x="781" y="447"/>
<text x="819" y="463">
IGNORED</text>
</g>
<g class="optional">
<path d=" M 867 458 h 24 m -24 0 a 12 12 0 0 0 12 -12 v 0 a 12 12 0 0 1 12 -12 h 44 a 12 12 0 0 1 12 12 v 0 a 12 12 0 0 0 12 12 h -24"/>
<a class="link" xlink:href="#EOS">
<g class="symbol">
<rect height="22" width="44" x="891" y="447"/>
<text x="913" y="463">
EOS</text>
</g>
</a>
</g>
<path d=" M 255 458 h 10"/>
<path d=" M 341 458 h 10"/>
<path d=" M 647 458 h 10"/>
<path d=" M 733 458 h 10"/>
<path d=" M 771 458 h 10"/>
<path d=" M 857 458 h 10"/>
</g>
</g>
<path d=" M 993 413 h 5 a 5 5 0 0 1 5 -5 a 5 5 0 0 1 5 5 a 5 5 0 0 1 -5 5 a 5 5 0 0 1 -5 -5"/>
<path d=" M 25 413 h 10"/>
<path d=" M 129 413 h 10"/>
<path d=" M 983 413 h 10"/>
</g>
<g class="sequence">
<path d=" M 10 555 a 5 5 0 0 1 5 -5 a 5 5 0 0 1 5 5 a 5 5 0 0 1 -5 5 a 5 5 0 0 1 -5 -5 m 10 0 h 5"/>
<text class="comment" id="ImportTerm" x="75" y="560">
ImportTerm</text>
<g class="choice">
<path d=" M 125 555 h 24 m 84 0 h 56 m -25 0 l -5 -5 m 0 10 l 5 -5 m 25 0"/>
<a class="link" xlink:href="#ImportAs">
<g class="symbol">
<rect height="22" width="84" x="149" y="544"/>
<text x="191" y="560">
ImportAs</text>
</g>
</a>
<path d=" M 125 555 a 12 12 0 0 1 12 12 v 9 m 140 0 v -9 a 12 12 0 0 1 12 -12"/>
<path d=" M 137 576 v 33 m 140 0 v -33"/>
<path d=" M 137 609 v 33 m 140 0 v -33"/>
<path d=" M 137 642 v 33 m 140 0 v -33"/>
<path d=" M 137 576 v 0 a 12 12 0 0 0 12 12 m 92 0 h 24 a 12 12 0 0 0 12 -12 v 0"/>
<a class="link" xlink:href="#ImportAll">
<g class="symbol">
<rect height="22" width="92" x="149" y="577"/>
<text x="195" y="593">
ImportAll</text>
</g>
</a>
<path d=" M 137 609 v 0 a 12 12 0 0 0 12 12 m 108 0 h 8 a 12 12 0 0 0 12 -12 v 0"/>
<a class="link" xlink:href="#ImportMacro">
<g class="symbol">
<rect height="22" width="108" x="149" y="610"/>
<text x="203" y="626">
ImportMacro</text>
</g>
</a>
<path d=" M 137 642 v 0 a 12 12 0 0 0 12 12 m 108 0 h 8 a 12 12 0 0 0 12 -12 v 0"/>
<a class="link" xlink:href="#ImportBlock">
<g class="symbol">
<rect height="22" width="108" x="149" y="643"/>
<text x="203" y="659">
ImportBlock</text>
</g>
</a>
<path d=" M 137 675 v 0 a 12 12 0 0 0 12 12 m 116 0 h 0 a 12 12 0 0 0 12 -12 v 0"/>
<a class="link" xlink:href="#NamepathFree">
<g class="symbol">
<rect height="22" width="116" x="149" y="676"/>
<text x="207" y="692">
NamepathFree</text>
</g>
</a>
</g>
<path d=" M 299 555 h 5 a 5 5 0 0 1 5 -5 a 5 5 0 0 1 5 5 a 5 5 0 0 1 -5 5 a 5 5 0 0 1 -5 -5"/>
<path d=" M 25 555 h 10"/>
<path d=" M 115 555 h 10"/>
<path d=" M 289 555 h 10"/>
</g>
<g class="sequence">
<path d=" M 10 721 a 5 5 0 0 1 5 -5 a 5 5 0 0 1 5 5 a 5 5 0 0 1 -5 5 a 5 5 0 0 1 -5 -5 m 10 0 h 5"/>
<text class="comment" id="ImportAs" x="68" y="726">
ImportAs</text>
<g class="sequence">
<g class="sequence">
<a class="link" xlink:href="#NamepathFree">
<g class="symbol">
<rect height="22" width="116" x="111" y="710"/>
<text x="169" y="726">
NamepathFree</text>
</g>
</a>
<g class="character">
<rect height="22" rx="10" ry="10" width="76" x="237" y="710"/>
<text x="275" y="726">
IGNORED</text>
</g>
<a class="link" xlink:href="#KW_AS">
<g class="symbol">
<rect height="22" width="60" x="323" y="710"/>
<text x="353" y="726">
KW_AS</text>
</g>
</a>
<path d=" M 227 721 h 10"/>
<path d=" M 313 721 h 10"/>
</g>
<g class="character">
<rect height="22" rx="10" ry="10" width="76" x="393" y="710"/>
<text x="431" y="726">
IGNORED</text>
</g>
<a class="link" xlink:href="#Identifier">
<g class="symbol">
<rect height="22" width="100" x="479" y="710"/>
<text x="529" y="726">
Identifier</text>
</g>
</a>
<path d=" M 383 721 h 10"/>
<path d=" M 469 721 h 10"/>
</g>
<path d=" M 589 721 h 5 a 5 5 0 0 1 5 -5 a 5 5 0 0 1 5 5 a 5 5 0 0 1 -5 5 a 5 5 0 0 1 -5 -5"/>
<path d=" M 25 721 h 10"/>
<path d=" M 101 721 h 10"/>
<path d=" M 579 721 h 10"/>
</g>
<g class="sequence">
<path d=" M 10 755 a 5 5 0 0 1 5 -5 a 5 5 0 0 1 5 5 a 5 5 0 0 1 -5 5 a 5 5 0 0 1 -5 -5 m 10 0 h 5"/>
<text class="comment" id="ImportAll" x="71" y="760">
ImportAll</text>
<g class="sequence">
<a class="link" xlink:href="#NamepathFree">
<g class="symbol">
<rect height="22" width="116" x="118" y="744"/>
<text x="176" y="760">
NamepathFree</text>
</g>
</a>
<g class="character">
<rect height="22" rx="10" ry="10" width="76" x="244" y="744"/>
<text x="282" y="760">
IGNORED</text>
</g>
<g class="string">
<rect height="22" rx="10" ry="10" width="76" x="330" y="744"/>
<text x="368" y="760">
[.∷]|::</text>
</g>
<g class="character">
<rect height="22" rx="10" ry="10" width="76" x="416" y="744"/>
<text x="454" y="760">
IGNORED</text>
</g>
<a class="link" xlink:href="#OP_IMPORT_ALL">
<g class="symbol">
<rect height="22" width="124" x="502" y="744"/>
<text x="564" y="760">
OP_IMPORT_ALL</text>
</g>
</a>
<path d=" M 234 755 h 10"/>
<path d=" M 320 755 h 10"/>
<path d=" M 406 755 h 10"/>
<path d=" M 492 755 h 10"/>
</g>
<path d=" M 636 755 h 5 a 5 5 0 0 1 5 -5 a 5 5 0 0 1 5 5 a 5 5 0 0 1 -5 5 a 5 5 0 0 1 -5 -5"/>
<path d=" M 25 755 h 10"/>
<path d=" M 108 755 h 10"/>
<path d=" M 626 755 h 10"/>
</g>
<g class="sequence">
<path d=" M 10 802 a 5 5 0 0 1 5 -5 a 5 5 0 0 1 5 5 a 5 5 0 0 1 -5 5 a 5 5 0 0 1 -5 -5 m 10 0 h 5"/>
<text class="comment" id="ImportBlock" x="78" y="807">
ImportBlock</text>
<g class="sequence">
<a class="link" xlink:href="#NamepathFree">
<g class="symbol">
<rect height="22" width="116" x="132" y="791"/>
<text x="190" y="807">
NamepathFree</text>
</g>
</a>
<g class="character">
<rect height="22" rx="10" ry="10" width="76" x="258" y="791"/>
<text x="296" y="807">
IGNORED</text>
</g>
<g class="optional">
<path d=" M 344 802 h 24 m -24 0 a 12 12 0 0 0 12 -12 v 0 a 12 12 0 0 1 12 -12 h 76 m -35 0 l -5 -5 m 0 10 l 5 -5 m 35 0 a 12 12 0 0 1 12 12 v 0 a 12 12 0 0 0 12 12 h -24"/>
<g class="string">
<rect height="22" rx="10" ry="10" width="76" x="368" y="791"/>
<text x="406" y="807">
[.∷]|::</text>
</g>
</g>
<g class="character">
<rect height="22" rx="10" ry="10" width="76" x="478" y="791"/>
<text x="516" y="807">
IGNORED</text>
</g>
<g class="string">
<rect height="22" rx="10" ry="10" width="28" x="564" y="791"/>
<text x="578" y="807">
{</text>
</g>
<g class="repeat">
<path d=" M 602 802 h 12 m 234 0 h 12 m -12 0 a 12 12 0 0 1 12 12 v 40 a 12 12 0 0 1 -12 12 m -52 0 h -182 m 94 0 l 5 -5 m 0 10 l -5 -5 m -94 0 a 12 12 0 0 1 -12 -12 v -40 a 12 12 0 0 1 12 -12"/>
<text class="comment" x="822" y="871">
[0, ∞]</text>
<g class="sequence">
<g class="character">
<rect height="22" rx="10" ry="10" width="76" x="614" y="791"/>
<text x="652" y="807">
IGNORED</text>
</g>
<g class="choice">
<path d=" M 700 802 h 24 m 100 0 h 24"/>
<a class="link" xlink:href="#ImportTerm">
<g class="symbol">
<rect height="22" width="100" x="724" y="791"/>
<text x="774" y="807">
ImportTerm</text>
</g>
</a>
<path d=" M 700 802 a 12 12 0 0 1 12 12 v 9 m 124 0 v -9 a 12 12 0 0 1 12 -12"/>
<path d=" M 712 823 v 0 a 12 12 0 0 0 12 12 m 84 0 h 16 a 12 12 0 0 0 12 -12 v 0"/>
<a class="link" xlink:href="#EOS_FREE">
<g class="symbol">
<rect height="22" width="84" x="724" y="824"/>
<text x="766" y="840">
EOS_FREE</text>
</g>
</a>
</g>
<path d=" M 690 802 h 10"/>
</g>
</g>
<g class="character">
<rect height="22" rx="10" ry="10" width="76" x="870" y="791"/>
<text x="908" y="807">
IGNORED</text>
</g>
<g class="string">
<rect height="22" rx="10" ry="10" width="28" x="956" y="791"/>
<text x="970" y="807">
}</text>
</g>
<path d=" M 248 802 h 10"/>
<path d=" M 334 802 h 10"/>
<path d=" M 468 802 h 10"/>
<path d=" M 554 802 h 10"/>
<path d=" M 592 802 h 10"/>
<path d=" M 860 802 h 10"/>
<path d=" M 946 802 h 10"/>
</g>
<path d=" M 994 802 h 5 a 5 5 0 0 1 5 -5 a 5 5 0 0 1 5 5 a 5 5 0 0 1 -5 5 a 5 5 0 0 1 -5 -5"/>
<path d=" M 25 802 h 10"/>
<path d=" M 122 802 h 10"/>
<path d=" M 984 802 h 10"/>
</g>
<g class="sequence">
<path d=" M 10 899 a 5 5 0 0 1 5 -5 a 5 5 0 0 1 5 5 a 5 5 0 0 1 -5 5 a 5 5 0 0 1 -5 -5 m 10 0 h 5"/>
<text class="comment" id="ImportMacro" x="78" y="904">
ImportMacro</text>
<g class="sequence">
<g class="sequence">
<a class="link" xlink:href="#NamepathFree">
<g class="symbol">
<rect height="22" width="116" x="132" y="888"/>
<text x="190" y="904">
NamepathFree</text>
</g>
</a>
<g class="character">
<rect height="22" rx="10" ry="10" width="76" x="258" y="888"/>
<text x="296" y="904">
IGNORED</text>
</g>
<g class="string">
<rect height="22" rx="10" ry="10" width="76" x="344" y="888"/>
<text x="382" y="904">
[.∷]|::</text>
</g>
<g class="character">
<rect height="22" rx="10" ry="10" width="76" x="430" y="888"/>
<text x="468" y="904">
IGNORED</text>
</g>
<a class="link" xlink:href="#ImportMacroItem">
<g class="symbol">
<rect height="22" width="140" x="516" y="888"/>
<text x="586" y="904">
ImportMacroItem</text>
</g>
</a>
<g class="character">
<rect height="22" rx="10" ry="10" width="76" x="666" y="888"/>
<text x="704" y="904">
IGNORED</text>
</g>
<a class="link" xlink:href="#KW_AS">
<g class="symbol">
<rect height="22" width="60" x="752" y="888"/>
<text x="782" y="904">
KW_AS</text>
</g>
</a>
<path d=" M 248 899 h 10"/>
<path d=" M 334 899 h 10"/>
<path d=" M 420 899 h 10"/>
<path d=" M 506 899 h 10"/>
<path d=" M 656 899 h 10"/>
<path d=" M 742 899 h 10"/>
</g>
<g class="character">
<rect height="22" rx="10" ry="10" width="76" x="822" y="888"/>
<text x="860" y="904">
IGNORED</text>
</g>
<a class="link" xlink:href="#ImportMacroItem">
<g class="symbol">
<rect height="22" width="140" x="908" y="888"/>
<text x="978" y="904">
ImportMacroItem</text>
</g>
</a>
<path d=" M 812 899 h 10"/>
<path d=" M 898 899 h 10"/>
</g>
<path d=" M 1058 899 h 5 a 5 5 0 0 1 5 -5 a 5 5 0 0 1 5 5 a 5 5 0 0 1 -5 5 a 5 5 0 0 1 -5 -5"/>
<path d=" M 25 899 h 10"/>
<path d=" M 122 899 h 10"/>
<path d=" M 1048 899 h 10"/>
</g>
<g class="sequence">
<path d=" M 10 933 a 5 5 0 0 1 5 -5 a 5 5 0 0 1 5 5 a 5 5 0 0 1 -5 5 a 5 5 0 0 1 -5 -5 m 10 0 h 5"/>
<text class="comment" id="ImportMacroItem" x="92" y="938">
ImportMacroItem</text>
<g class="choice">
<path d=" M 160 933 h 24 m 138 0 h 24"/>
<g class="sequence">
<g class="string">
<rect height="22" rx="10" ry="10" width="28" x="184" y="922"/>
<text x="198" y="938">
#</text>
</g>
<a class="link" xlink:href="#Identifier">
<g class="symbol">
<rect height="22" width="100" x="222" y="922"/>
<text x="272" y="938">
Identifier</text>
</g>
</a>
<path d=" M 212 933 h 10"/>
</g>
<path d=" M 160 933 a 12 12 0 0 1 12 12 v 9 m 162 0 v -9 a 12 12 0 0 1 12 -12"/>
<path d=" M 172 954 v 0 a 12 12 0 0 0 12 12 m 138 0 h 0 a 12 12 0 0 0 12 -12 v 0"/>
<g class="sequence">
<g class="string">
<rect height="22" rx="10" ry="10" width="28" x="184" y="955"/>
<text x="198" y="971">
@</text>
</g>
<a class="link" xlink:href="#Identifier">
<g class="symbol">
<rect height="22" width="100" x="222" y="955"/>
<text x="272" y="971">
Identifier</text>
</g>
</a>
<path d=" M 212 966 h 10"/>
</g>
</g>
<path d=" M 356 933 h 5 a 5 5 0 0 1 5 -5 a 5 5 0 0 1 5 5 a 5 5 0 0 1 -5 5 a 5 5 0 0 1 -5 -5"/>
<path d=" M 25 933 h 10"/>
<path d=" M 150 933 h 10"/>
<path d=" M 346 933 h 10"/>
</g>
<g class="sequence">
<path d=" M 10 1013 a 5 5 0 0 1 5 -5 a 5 5 0 0 1 5 5 a 5 5 0 0 1 -5 5 a 5 5 0 0 1 -5 -5 m 10 0 h 5"/>
<text class="comment" id="DefineClass" x="78" y="1018">
DefineClass</text>
<g class="sequence">
<g class="optional">
<path d=" M 132 1013 h 24 m -24 0 a 12 12 0 0 0 12 -12 v 0 a 12 12 0 0 1 12 -12 h 132 m -63 0 l -5 -5 m 0 10 l 5 -5 m 63 0 a 12 12 0 0 1 12 12 v 0 a 12 12 0 0 0 12 12 h -24"/>
<a class="link" xlink:href="#DefineTemplate">
<g class="symbol">
<rect height="22" width="132" x="156" y="1002"/>
<text x="222" y="1018">
DefineTemplate</text>
</g>
</a>
</g>
<g class="character">
<rect height="22" rx="10" ry="10" width="76" x="322" y="1002"/>
<text x="360" y="1018">
IGNORED</text>
</g>
<a class="link" xlink:href="#KW_CLASS">
<g class="symbol">
<rect height="22" width="84" x="408" y="1002"/>
<text x="450" y="1018">
KW_CLASS</text>
</g>
</a>
<g class="character">
<rect height="22" rx="10" ry="10" width="76" x="502" y="1002"/>
<text x="540" y="1018">
IGNORED</text>
</g>
<a class="link" xlink:href="#Identifier">
<g class="symbol">
<rect height="22" width="100" x="588" y="1002"/>
<text x="638" y="1018">
Identifier</text>
</g>
</a>
<g class="character">
<rect height="22" rx="10" ry="10" width="76" x="698" y="1002"/>
<text x="736" y="1018">
IGNORED</text>
</g>
<g class="optional">
<path d=" M 784 1013 h 24 m -24 0 a 12 12 0 0 0 12 -12 v 0 a 12 12 0 0 1 12 -12 h 116 m -55 0 l -5 -5 m 0 10 l 5 -5 m 55 0 a 12 12 0 0 1 12 12 v 0 a 12 12 0 0 0 12 12 h -24"/>
<a class="link" xlink:href="#ClassInherit">
<g class="symbol">
<rect height="22" width="116" x="808" y="1002"/>
<text x="866" y="1018">
ClassInherit</text>
</g>
</a>
</g>
<g class="character">
<rect height="22" rx="10" ry="10" width="76" x="958" y="1002"/>
<text x="996" y="1018">
IGNORED</text>
</g>
<a class="link" xlink:href="#ClassBlock">
<g class="symbol">
<rect height="22" width="100" x="1044" y="1002"/>
<text x="1094" y="1018">
ClassBlock</text>
</g>
</a>
<g class="character">
<rect height="22" rx="10" ry="10" width="76" x="1154" y="1002"/>
<text x="1192" y="1018">
IGNORED</text>
</g>
<g class="optional">
<path d=" M 1240 1013 h 24 m -24 0 a 12 12 0 0 0 12 -12 v 0 a 12 12 0 0 1 12 -12 h 44 a 12 12 0 0 1 12 12 v 0 a 12 12 0 0 0 12 12 h -24"/>
<a class="link" xlink:href="#EOS">
<g class="symbol">
<rect height="22" width="44" x="1264" y="1002"/>
<text x="1286" y="1018">
EOS</text>
</g>
</a>
</g>
<path d=" M 312 1013 h 10"/>
<path d=" M 398 1013 h 10"/>
<path d=" M 492 1013 h 10"/>
<path d=" M 578 1013 h 10"/>
<path d=" M 688 1013 h 10"/>
<path d=" M 774 1013 h 10"/>
<path d=" M 948 1013 h 10"/>
<path d=" M 1034 1013 h 10"/>
<path d=" M 1144 1013 h 10"/>
<path d=" M 1230 1013 h 10"/>
</g>
<path d=" M 1342 1013 h 5 a 5 5 0 0 1 5 -5 a 5 5 0 0 1 5 5 a 5 5 0 0 1 -5 5 a 5 5 0 0 1 -5 -5"/>
<path d=" M 25 1013 h 10"/>
<path d=" M 122 1013 h 10"/>
<path d=" M 1332 1013 h 10"/>
</g>
<g class="sequence">
<path d=" M 10 1047 a 5 5 0 0 1 5 -5 a 5 5 0 0 1 5 5 a 5 5 0 0 1 -5 5 a 5 5 0 0 1 -5 -5 m 10 0 h 5"/>
<text class="comment" id="ClassBlock" x="75" y="1052">
ClassBlock</text>
<g class="sequence">
<g class="string">
<rect height="22" rx="10" ry="10" width="28" x="125" y="1036"/>
<text x="139" y="1052">
{</text>
</g>
<g class="character">
<rect height="22" rx="10" ry="10" width="76" x="163" y="1036"/>
<text x="201" y="1052">
IGNORED</text>
</g>
<g class="repeat">
<path d=" M 249 1047 h 12 m 218 0 h 12 m -12 0 a 12 12 0 0 1 12 12 v 7 a 12 12 0 0 1 -12 12 m -52 0 h -166 m 86 0 l 5 -5 m 0 10 l -5 -5 m -86 0 a 12 12 0 0 1 -12 -12 v -7 a 12 12 0 0 1 12 -12"/>
<text class="comment" x="453" y="1083">
[0, ∞]</text>
<g class="sequence">
<g class="character">
<rect height="22" rx="10" ry="10" width="76" x="261" y="1036"/>
<text x="299" y="1052">
IGNORED</text>
</g>
<a class="link" xlink:href="#ClassBlockItem">
<g class="symbol">
<rect height="22" width="132" x="347" y="1036"/>
<text x="413" y="1052">
ClassBlockItem</text>
</g>
</a>
<path d=" M 337 1047 h 10"/>
</g>
</g>
<g class="character">
<rect height="22" rx="10" ry="10" width="76" x="501" y="1036"/>
<text x="539" y="1052">
IGNORED</text>
</g>
<g class="string">
<rect height="22" rx="10" ry="10" width="28" x="587" y="1036"/>
<text x="601" y="1052">
}</text>
</g>
<path d=" M 153 1047 h 10"/>
<path d=" M 239 1047 h 10"/>
<path d=" M 491 1047 h 10"/>
<path d=" M 577 1047 h 10"/>
</g>
<path d=" M 625 1047 h 5 a 5 5 0 0 1 5 -5 a 5 5 0 0 1 5 5 a 5 5 0 0 1 -5 5 a 5 5 0 0 1 -5 -5"/>
<path d=" M 25 1047 h 10"/>
<path d=" M 115 1047 h 10"/>
<path d=" M 615 1047 h 10"/>
</g>
<g class="sequence">
<path d=" M 10 1111 a 5 5 0 0 1 5 -5 a 5 5 0 0 1 5 5 a 5 5 0 0 1 -5 5 a 5 5 0 0 1 -5 -5 m 10 0 h 5"/>
<text class="comment" id="ClassBlockItem" x="89" y="1116">
ClassBlockItem</text>
<g class="choice">
<path d=" M 153 1111 h 24 m 108 0 h 24"/>
<a class="link" xlink:href="#ClassDomain">
<g class="symbol">
<rect height="22" width="108" x="177" y="1100"/>
<text x="231" y="1116">
ClassDomain</text>
</g>
</a>
<path d=" M 153 1111 a 12 12 0 0 1 12 12 v 9 m 132 0 v -9 a 12 12 0 0 1 12 -12"/>
<path d=" M 165 1132 v 33 m 132 0 v -33"/>
<path d=" M 165 1165 v 33 m 132 0 v -33"/>
<path d=" M 165 1132 v 0 a 12 12 0 0 0 12 12 m 108 0 h 0 a 12 12 0 0 0 12 -12 v 0"/>
<a class="link" xlink:href="#ClassMethod">
<g class="symbol">
<rect height="22" width="108" x="177" y="1133"/>
<text x="231" y="1149">
ClassMethod</text>
</g>
</a>
<path d=" M 165 1165 v 0 a 12 12 0 0 0 12 12 m 100 0 h 8 a 12 12 0 0 0 12 -12 v 0"/>
<a class="link" xlink:href="#ClassField">
<g class="symbol">
<rect height="22" width="100" x="177" y="1166"/>
<text x="227" y="1182">
ClassField</text>
</g>
</a>
<path d=" M 165 1198 v 0 a 12 12 0 0 0 12 12 m 84 0 h 24 a 12 12 0 0 0 12 -12 v 0"/>
<a class="link" xlink:href="#EOS_FREE">
<g class="symbol">
<rect height="22" width="84" x="177" y="1199"/>
<text x="219" y="1215">
EOS_FREE</text>
</g>
</a>
</g>
<path d=" M 319 1111 h 5 a 5 5 0 0 1 5 -5 a 5 5 0 0 1 5 5 a 5 5 0 0 1 -5 5 a 5 5 0 0 1 -5 -5"/>
<path d=" M 25 1111 h 10"/>
<path d=" M 143 1111 h 10"/>
<path d=" M 309 1111 h 10"/>
</g>
<g class="sequence">
<path d=" M 10 1269 a 5 5 0 0 1 5 -5 a 5 5 0 0 1 5 5 a 5 5 0 0 1 -5 5 a 5 5 0 0 1 -5 -5 m 10 0 h 5"/>
<text class="comment" id="ClassInherit" x="82" y="1274">
ClassInherit</text>
<g class="sequence">
<g class="string">
<rect height="22" rx="10" ry="10" width="28" x="139" y="1258"/>
<text x="153" y="1274">
(</text>
</g>
<g class="character">
<rect height="22" rx="10" ry="10" width="76" x="177" y="1258"/>
<text x="215" y="1274">
IGNORED</text>
</g>
<g class="optional">
<path d=" M 263 1269 h 24 m -24 0 a 12 12 0 0 0 12 -12 v -12 a 12 12 0 0 1 12 -12 h 798 m -396 0 l -5 -5 m 0 10 l 5 -5 m 396 0 a 12 12 0 0 1 12 12 v 12 a 12 12 0 0 0 12 12 h -24"/>
<g class="sequence">
<a class="link" xlink:href="#ClassInheritItem">
<g class="symbol">
<rect height="22" width="148" x="287" y="1258"/>
<text x="361" y="1274">
ClassInheritItem</text>
</g>
</a>
<g class="character">
<rect height="22" rx="10" ry="10" width="76" x="445" y="1258"/>
<text x="483" y="1274">
IGNORED</text>
</g>
<g class="repeat">
<path d=" M 531 1269 h 12 m 358 0 h 12 m -12 0 a 12 12 0 0 1 12 12 v 7 a 12 12 0 0 1 -12 12 m -52 0 h -306 m 156 0 l 5 -5 m 0 10 l -5 -5 m -156 0 a 12 12 0 0 1 -12 -12 v -7 a 12 12 0 0 1 12 -12"/>
<text class="comment" x="875" y="1305">
[0, ∞]</text>
<g class="sequence">
<g class="character">
<rect height="22" rx="10" ry="10" width="76" x="543" y="1258"/>
<text x="581" y="1274">
IGNORED</text>
</g>
<g class="sequence">
<g class="string">
<rect height="22" rx="10" ry="10" width="28" x="629" y="1258"/>
<text x="643" y="1274">
,</text>
</g>
<g class="character">
<rect height="22" rx="10" ry="10" width="76" x="667" y="1258"/>
<text x="705" y="1274">
IGNORED</text>
</g>
<a class="link" xlink:href="#ClassInheritItem">
<g class="symbol">
<rect height="22" width="148" x="753" y="1258"/>
<text x="827" y="1274">
ClassInheritItem</text>
</g>
</a>
<path d=" M 657 1269 h 10"/>
<path d=" M 743 1269 h 10"/>
</g>
<path d=" M 619 1269 h 10"/>
</g>
</g>
<g class="character">
<rect height="22" rx="10" ry="10" width="76" x="923" y="1258"/>
<text x="961" y="1274">
IGNORED</text>
</g>
<g class="optional">
<path d=" M 1009 1269 h 24 m -24 0 a 12 12 0 0 0 12 -12 v 0 a 12 12 0 0 1 12 -12 h 28 a 12 12 0 0 1 12 12 v 0 a 12 12 0 0 0 12 12 h -24"/>
<g class="string">
<rect height="22" rx="10" ry="10" width="28" x="1033" y="1258"/>
<text x="1047" y="1274">
,</text>
</g>
</g>
<path d=" M 435 1269 h 10"/>
<path d=" M 521 1269 h 10"/>
<path d=" M 913 1269 h 10"/>
<path d=" M 999 1269 h 10"/>
</g>
</g>
<g class="character">
<rect height="22" rx="10" ry="10" width="76" x="1119" y="1258"/>
<text x="1157" y="1274">
IGNORED</text>
</g>
<g class="string">
<rect height="22" rx="10" ry="10" width="28" x="1205" y="1258"/>
<text x="1219" y="1274">
)</text>
</g>
<path d=" M 167 1269 h 10"/>
<path d=" M 253 1269 h 10"/>
<path d=" M 1109 1269 h 10"/>
<path d=" M 1195 1269 h 10"/>
</g>
<path d=" M 1243 1269 h 5 a 5 5 0 0 1 5 -5 a 5 5 0 0 1 5 5 a 5 5 0 0 1 -5 5 a 5 5 0 0 1 -5 -5"/>
<path d=" M 25 1269 h 10"/>
<path d=" M 129 1269 h 10"/>
<path d=" M 1233 1269 h 10"/>
</g>
<g class="sequence">
<path d=" M 10 1333 a 5 5 0 0 1 5 -5 a 5 5 0 0 1 5 5 a 5 5 0 0 1 -5 5 a 5 5 0 0 1 -5 -5 m 10 0 h 5"/>
<text class="comment" id="ClassInheritItem" x="96" y="1338">
ClassInheritItem</text>
<a class="link" xlink:href="#Namepath">
<g class="symbol">
<rect height="22" width="84" x="167" y="1322"/>
<text x="209" y="1338">
Namepath</text>
</g>
</a>
<path d=" M 261 1333 h 5 a 5 5 0 0 1 5 -5 a 5 5 0 0 1 5 5 a 5 5 0 0 1 -5 5 a 5 5 0 0 1 -5 -5"/>
<path d=" M 25 1333 h 10"/>
<path d=" M 157 1333 h 10"/>
<path d=" M 251 1333 h 10"/>
</g>
<g class="sequence">
<path d=" M 10 1367 a 5 5 0 0 1 5 -5 a 5 5 0 0 1 5 5 a 5 5 0 0 1 -5 5 a 5 5 0 0 1 -5 -5 m 10 0 h 5"/>
<text class="comment" id="ClassField" x="75" y="1372">
ClassField</text>
<a class="link" xlink:href="#Identifier">
<g class="symbol">
<rect height="22" width="100" x="125" y="1356"/>
<text x="175" y="1372">
Identifier</text>
</g>
</a>
<path d=" M 235 1367 h 5 a 5 5 0 0 1 5 -5 a 5 5 0 0 1 5 5 a 5 5 0 0 1 -5 5 a 5 5 0 0 1 -5 -5"/>
<path d=" M 25 1367 h 10"/>
<path d=" M 115 1367 h 10"/>
<path d=" M 225 1367 h 10"/>
</g>
<g class="sequence">
<path d=" M 10 1401 a 5 5 0 0 1 5 -5 a 5 5 0 0 1 5 5 a 5 5 0 0 1 -5 5 a 5 5 0 0 1 -5 -5 m 10 0 h 5"/>
<text class="comment" id="ClassMethod" x="78" y="1406">
ClassMethod</text>
<g class="sequence">
<a class="link" xlink:href="#Identifier">
<g class="symbol">
<rect height="22" width="100" x="132" y="1390"/>
<text x="182" y="1406">
Identifier</text>
</g>
</a>
<g class="character">
<rect height="22" rx="10" ry="10" width="76" x="242" y="1390"/>
<text x="280" y="1406">
IGNORED</text>
</g>
<g class="string">
<rect height="22" rx="10" ry="10" width="28" x="328" y="1390"/>
<text x="342" y="1406">
(</text>
</g>
<g class="character">
<rect height="22" rx="10" ry="10" width="76" x="366" y="1390"/>
<text x="404" y="1406">
IGNORED</text>
</g>
<g class="string">
<rect height="22" rx="10" ry="10" width="28" x="452" y="1390"/>
<text x="466" y="1406">
)</text>
</g>
<path d=" M 232 1401 h 10"/>
<path d=" M 318 1401 h 10"/>
<path d=" M 356 1401 h 10"/>
<path d=" M 442 1401 h 10"/>
</g>
<path d=" M 490 1401 h 5 a 5 5 0 0 1 5 -5 a 5 5 0 0 1 5 5 a 5 5 0 0 1 -5 5 a 5 5 0 0 1 -5 -5"/>
<path d=" M 25 1401 h 10"/>
<path d=" M 122 1401 h 10"/>
<path d=" M 480 1401 h 10"/>
</g>
<g class="sequence">
<path d=" M 10 1435 a 5 5 0 0 1 5 -5 a 5 5 0 0 1 5 5 a 5 5 0 0 1 -5 5 a 5 5 0 0 1 -5 -5 m 10 0 h 5"/>
<text class="comment" id="ClassDomain" x="78" y="1440">
ClassDomain</text>
<g class="sequence">
<a class="link" xlink:href="#Identifier">
<g class="symbol">
<rect height="22" width="100" x="132" y="1424"/>
<text x="182" y="1440">
Identifier</text>
</g>
</a>
<g class="character">
<rect height="22" rx="10" ry="10" width="76" x="242" y="1424"/>
<text x="280" y="1440">
IGNORED</text>
</g>
<a class="link" xlink:href="#ClassBlock">
<g class="symbol">
<rect height="22" width="100" x="328" y="1424"/>
<text x="378" y="1440">
ClassBlock</text>
</g>
</a>
<path d=" M 232 1435 h 10"/>
<path d=" M 318 1435 h 10"/>
</g>
<path d=" M 438 1435 h 5 a 5 5 0 0 1 5 -5 a 5 5 0 0 1 5 5 a 5 5 0 0 1 -5 5 a 5 5 0 0 1 -5 -5"/>
<path d=" M 25 1435 h 10"/>
<path d=" M 122 1435 h 10"/>
<path d=" M 428 1435 h 10"/>
</g>
<g class="sequence">
<path d=" M 10 1482 a 5 5 0 0 1 5 -5 a 5 5 0 0 1 5 5 a 5 5 0 0 1 -5 5 a 5 5 0 0 1 -5 -5 m 10 0 h 5"/>
<text class="comment" id="DefineTemplate" x="89" y="1487">
DefineTemplate</text>
<g class="sequence">
<a class="link" xlink:href="#KW_TEMPLATE">
<g class="symbol">
<rect height="22" width="108" x="153" y="1471"/>
<text x="207" y="1487">
KW_TEMPLATE</text>
</g>
</a>
<g class="character">
<rect height="22" rx="10" ry="10" width="76" x="271" y="1471"/>
<text x="309" y="1487">
IGNORED</text>
</g>
<g class="optional">
<path d=" M 357 1482 h 24 m -24 0 a 12 12 0 0 0 12 -12 v 0 a 12 12 0 0 1 12 -12 h 164 m -79 0 l -5 -5 m 0 10 l 5 -5 m 79 0 a 12 12 0 0 1 12 12 v 0 a 12 12 0 0 0 12 12 h -24"/>
<a class="link" xlink:href="#TemplateParameters">
<g class="symbol">
<rect height="22" width="164" x="381" y="1471"/>
<text x="463" y="1487">
TemplateParameters</text>
</g>
</a>
</g>
<g class="character">
<rect height="22" rx="10" ry="10" width="76" x="579" y="1471"/>
<text x="617" y="1487">
IGNORED</text>
</g>
<a class="link" xlink:href="#TemplateBlock">
<g class="symbol">
<rect height="22" width="124" x="665" y="1471"/>
<text x="727" y="1487">
TemplateBlock</text>
</g>
</a>
<path d=" M 261 1482 h 10"/>
<path d=" M 347 1482 h 10"/>
<path d=" M 569 1482 h 10"/>
<path d=" M 655 1482 h 10"/>
</g>
<path d=" M 799 1482 h 5 a 5 5 0 0 1 5 -5 a 5 5 0 0 1 5 5 a 5 5 0 0 1 -5 5 a 5 5 0 0 1 -5 -5"/>
<path d=" M 25 1482 h 10"/>
<path d=" M 143 1482 h 10"/>
<path d=" M 789 1482 h 10"/>
</g>
<g class="sequence">
<path d=" M 10 1529 a 5 5 0 0 1 5 -5 a 5 5 0 0 1 5 5 a 5 5 0 0 1 -5 5 a 5 5 0 0 1 -5 -5 m 10 0 h 5"/>
<text class="comment" id="TemplateParameters" x="103" y="1534">
TemplateParameters</text>
<g class="choice">
<path d=" M 181 1529 h 24 m 766 0 h 272 m -133 0 l -5 -5 m 0 10 l 5 -5 m 133 0"/>
<g class="sequence">
<a class="link" xlink:href="#Identifier">
<g class="symbol">
<rect height="22" width="100" x="205" y="1518"/>
<text x="255" y="1534">
Identifier</text>
</g>
</a>
<g class="character">
<rect height="22" rx="10" ry="10" width="76" x="315" y="1518"/>
<text x="353" y="1534">
IGNORED</text>
</g>
<g class="repeat">
<path d=" M 401 1529 h 12 m 342 0 h 12 m -12 0 a 12 12 0 0 1 12 12 v 7 a 12 12 0 0 1 -12 12 m -52 0 h -290 m 148 0 l 5 -5 m 0 10 l -5 -5 m -148 0 a 12 12 0 0 1 -12 -12 v -7 a 12 12 0 0 1 12 -12"/>
<text class="comment" x="729" y="1565">
[0, ∞]</text>
<g class="sequence">
<g class="character">
<rect height="22" rx="10" ry="10" width="76" x="413" y="1518"/>
<text x="451" y="1534">
IGNORED</text>
</g>
<g class="sequence">
<a class="link" xlink:href="#COMMA">
<g class="symbol">
<rect height="22" width="60" x="499" y="1518"/>
<text x="529" y="1534">
COMMA</text>
</g>
</a>
<g class="character">
<rect height="22" rx="10" ry="10" width="76" x="569" y="1518"/>
<text x="607" y="1534">
IGNORED</text>
</g>
<a class="link" xlink:href="#Identifier">
<g class="symbol">
<rect height="22" width="100" x="655" y="1518"/>
<text x="705" y="1534">
Identifier</text>
</g>
</a>
<path d=" M 559 1529 h 10"/>
<path d=" M 645 1529 h 10"/>
</g>
<path d=" M 489 1529 h 10"/>
</g>
</g>
<g class="character">
<rect height="22" rx="10" ry="10" width="76" x="777" y="1518"/>
<text x="815" y="1534">
IGNORED</text>
</g>
<g class="optional">
<path d=" M 863 1529 h 24 m -24 0 a 12 12 0 0 0 12 -12 v 0 a 12 12 0 0 1 12 -12 h 60 m -27 0 l -5 -5 m 0 10 l 5 -5 m 27 0 a 12 12 0 0 1 12 12 v 0 a 12 12 0 0 0 12 12 h -24"/>
<a class="link" xlink:href="#COMMA">
<g class="symbol">
<rect height="22" width="60" x="887" y="1518"/>
<text x="917" y="1534">
COMMA</text>
</g>
</a>
</g>
<path d=" M 305 1529 h 10"/>
<path d=" M 391 1529 h 10"/>
<path d=" M 767 1529 h 10"/>
<path d=" M 853 1529 h 10"/>
</g>
<path d=" M 181 1529 a 12 12 0 0 1 12 12 v 39 m 1038 0 v -39 a 12 12 0 0 1 12 -12"/>
<path d=" M 193 1592 v 63 m 0 -28 l -5 -5 m 10 0 l -5 5 m 0 28 m 1038 0 v -63 m 0 34 l -5 5 m 10 0 l -5 -5 m 0 -34"/>
<path d=" M 193 1655 v 33 m 1038 0 v -33"/>
<path d=" M 193 1688 v 33 m 1038 0 v -33"/>
<path d=" M 193 1721 v 63 m 0 -28 l -5 -5 m 10 0 l -5 5 m 0 28 m 1038 0 v -63 m 0 34 l -5 5 m 10 0 l -5 -5 m 0 -34"/>
<path d=" M 193 1796 v 33 m 1038 0 v -33"/>
<path d=" M 193 1580 v 12 a 12 12 0 0 0 12 12 m 1014 0 h 0 a 12 12 0 0 0 12 -12 v -12"/>
<g class="sequence">
<g class="string">
<rect height="22" rx="10" ry="10" width="28" x="205" y="1593"/>
<text x="219" y="1609">
&lt;</text>
</g>
<g class="character">
<rect height="22" rx="10" ry="10" width="76" x="243" y="1593"/>
<text x="281" y="1609">
IGNORED</text>
</g>
<a class="link" xlink:href="#Identifier">
<g class="symbol">
<rect height="22" width="100" x="329" y="1593"/>
<text x="379" y="1609">
Identifier</text>
</g>
</a>
<g class="character">
<rect height="22" rx="10" ry="10" width="76" x="439" y="1593"/>
<text x="477" y="1609">
IGNORED</text>
</g>
<g class="repeat">
<path d=" M 525 1604 h 12 m 342 0 h 12 m -12 0 a 12 12 0 0 1 12 12 v 7 a 12 12 0 0 1 -12 12 m -52 0 h -290 m 148 0 l 5 -5 m 0 10 l -5 -5 m -148 0 a 12 12 0 0 1 -12 -12 v -7 a 12 12 0 0 1 12 -12"/>
<text class="comment" x="853" y="1640">
[0, ∞]</text>
<g class="sequence">
<g class="character">
<rect height="22" rx="10" ry="10" width="76" x="537" y="1593"/>
<text x="575" y="1609">
IGNORED</text>
</g>
<g class="sequence">
<a class="link" xlink:href="#COMMA">
<g class="symbol">
<rect height="22" width="60" x="623" y="1593"/>
<text x="653" y="1609">
COMMA</text>
</g>
</a>
<g class="character">
<rect height="22" rx="10" ry="10" width="76" x="693" y="1593"/>
<text x="731" y="1609">
IGNORED</text>
</g>
<a class="link" xlink:href="#Identifier">
<g class="symbol">
<rect height="22" width="100" x="779" y="1593"/>
<text x="829" y="1609">
Identifier</text>
</g>
</a>
<path d=" M 683 1604 h 10"/>
<path d=" M 769 1604 h 10"/>
</g>
<path d=" M 613 1604 h 10"/>
</g>
</g>
<g class="character">
<rect height="22" rx="10" ry="10" width="76" x="901" y="1593"/>
<text x="939" y="1609">
IGNORED</text>
</g>
<g class="optional">
<path d=" M 987 1604 h 24 m -24 0 a 12 12 0 0 0 12 -12 v 0 a 12 12 0 0 1 12 -12 h 60 m -27 0 l -5 -5 m 0 10 l 5 -5 m 27 0 a 12 12 0 0 1 12 12 v 0 a 12 12 0 0 0 12 12 h -24"/>
<a class="link" xlink:href="#COMMA">
<g class="symbol">
<rect height="22" width="60" x="1011" y="1593"/>
<text x="1041" y="1609">
COMMA</text>
</g>
</a>
</g>
<g class="character">
<rect height="22" rx="10" ry="10" width="76" x="1105" y="1593"/>
<text x="1143" y="1609">
IGNORED</text>
</g>
<g class="string">
<rect height="22" rx="10" ry="10" width="28" x="1191" y="1593"/>
<text x="1205" y="1609">
&gt;</text>
</g>
<path d=" M 233 1604 h 10"/>
<path d=" M 319 1604 h 10"/>
<path d=" M 429 1604 h 10"/>
<path d=" M 515 1604 h 10"/>
<path d=" M 891 1604 h 10"/>
<path d=" M 977 1604 h 10"/>
<path d=" M 1095 1604 h 10"/>
<path d=" M 1181 1604 h 10"/>
</g>
<path d=" M 193 1655 v 0 a 12 12 0 0 0 12 12 m 28 0 h 986 m -490 0 l -5 -5 m 0 10 l 5 -5 m 490 0 a 12 12 0 0 0 12 -12 v 0"/>
<g class="string">
<rect height="22" rx="10" ry="10" width="28" x="205" y="1656"/>
<text x="219" y="1672">
⟨</text>
</g>
<path d=" M 193 1688 v 0 a 12 12 0 0 0 12 12 m 100 0 h 914 m -454 0 l -5 -5 m 0 10 l 5 -5 m 454 0 a 12 12 0 0 0 12 -12 v 0"/>
<a class="link" xlink:href="#Identifier">
<g class="symbol">
<rect height="22" width="100" x="205" y="1689"/>
<text x="255" y="1705">
Identifier</text>
</g>
</a>
<path d=" M 193 1721 v 0 a 12 12 0 0 0 12 12 m 366 0 h 648 m -321 0 l -5 -5 m 0 10 l 5 -5 m 321 0 a 12 12 0 0 0 12 -12 v 0"/>
<g class="repeat">
<path d=" M 205 1733 h 12 m 342 0 h 12 m -12 0 a 12 12 0 0 1 12 12 v 7 a 12 12 0 0 1 -12 12 m -52 0 h -290 m 148 0 l 5 -5 m 0 10 l -5 -5 m -148 0 a 12 12 0 0 1 -12 -12 v -7 a 12 12 0 0 1 12 -12"/>
<text class="comment" x="533" y="1769">
[0, ∞]</text>
<g class="sequence">
<g class="character">
<rect height="22" rx="10" ry="10" width="76" x="217" y="1722"/>
<text x="255" y="1738">
IGNORED</text>
</g>
<g class="sequence">
<a class="link" xlink:href="#COMMA">
<g class="symbol">
<rect height="22" width="60" x="303" y="1722"/>
<text x="333" y="1738">
COMMA</text>
</g>
</a>
<g class="character">
<rect height="22" rx="10" ry="10" width="76" x="373" y="1722"/>
<text x="411" y="1738">
IGNORED</text>
</g>
<a class="link" xlink:href="#Identifier">
<g class="symbol">
<rect height="22" width="100" x="459" y="1722"/>
<text x="509" y="1738">
Identifier</text>
</g>
</a>
<path d=" M 363 1733 h 10"/>
<path d=" M 449 1733 h 10"/>
</g>
<path d=" M 293 1733 h 10"/>
</g>
</g>
<path d=" M 193 1784 v 12 a 12 12 0 0 0 12 12 m 108 0 h 906 m -450 0 l -5 -5 m 0 10 l 5 -5 m 450 0 a 12 12 0 0 0 12 -12 v -12"/>
<g class="optional">
<path d=" M 205 1808 h 24 m -24 0 a 12 12 0 0 0 12 -12 v 0 a 12 12 0 0 1 12 -12 h 60 m -27 0 l -5 -5 m 0 10 l 5 -5 m 27 0 a 12 12 0 0 1 12 12 v 0 a 12 12 0 0 0 12 12 h -24"/>
<a class="link" xlink:href="#COMMA">
<g class="symbol">
<rect height="22" width="60" x="229" y="1797"/>
<text x="259" y="1813">
COMMA</text>
</g>
</a>
</g>
<path d=" M 193 1829 v 0 a 12 12 0 0 0 12 12 m 28 0 h 986 m -490 0 l -5 -5 m 0 10 l 5 -5 m 490 0 a 12 12 0 0 0 12 -12 v 0"/>
<g class="string">
<rect height="22" rx="10" ry="10" width="28" x="205" y="1830"/>
<text x="219" y="1846">
⟩</text>
</g>
</g>
<path d=" M 1253 1529 h 5 a 5 5 0 0 1 5 -5 a 5 5 0 0 1 5 5 a 5 5 0 0 1 -5 5 a 5 5 0 0 1 -5 -5"/>
<path d=" M 25 1529 h 10"/>
<path d=" M 171 1529 h 10"/>
<path d=" M 1243 1529 h 10"/>
</g>
<g class="sequence">
<path d=" M 10 1875 a 5 5 0 0 1 5 -5 a 5 5 0 0 1 5 5 a 5 5 0 0 1 -5 5 a 5 5 0 0 1 -5 -5 m 10 0 h 5"/>
<text class="comment" id="TemplateBlock" x="85" y="1880">
TemplateBlock</text>
<g class="sequence">
<g class="string">
<rect height="22" rx="10" ry="10" width="28" x="146" y="1864"/>
<text x="160" y="1880">
{</text>
</g>
<g class="character">
<rect height="22" rx="10" ry="10" width="76" x="184" y="1864"/>
<text x="222" y="1880">
IGNORED</text>
</g>
<g class="repeat">
<path d=" M 270 1875 h 12 m 298 0 h 12 m -12 0 a 12 12 0 0 1 12 12 v 73 m 0 -33 l -5 -5 m 10 0 l -5 5 m 0 33 a 12 12 0 0 1 -12 12 m -52 0 h -246 m 126 0 l 5 -5 m 0 10 l -5 -5 m -126 0 a 12 12 0 0 1 -12 -12 v -73 m 0 39 l -5 5 m 10 0 l -5 -5 m 0 -39 a 12 12 0 0 1 12 -12"/>
<text class="comment" x="554" y="1977">
[0, ∞]</text>
<g class="sequence">
<g class="character">
<rect height="22" rx="10" ry="10" width="76" x="282" y="1864"/>
<text x="320" y="1880">
IGNORED</text>
</g>
<g class="choice">
<path d=" M 368 1875 h 24 m 156 0 h 32"/>
<a class="link" xlink:href="#TemplateStatement">
<g class="symbol">
<rect height="22" width="156" x="392" y="1864"/>
<text x="470" y="1880">
TemplateStatement</text>
</g>
</a>
<path d=" M 368 1875 a 12 12 0 0 1 12 12 v 9 m 188 0 v -9 a 12 12 0 0 1 12 -12"/>
<path d=" M 380 1896 v 33 m 188 0 v -33"/>
<path d=" M 380 1896 v 0 a 12 12 0 0 0 12 12 m 164 0 h 0 a 12 12 0 0 0 12 -12 v 0"/>
<a class="link" xlink:href="#TemplateImplements">
<g class="symbol">
<rect height="22" width="164" x="392" y="1897"/>
<text x="474" y="1913">
TemplateImplements</text>
</g>
</a>
<path d=" M 380 1929 v 0 a 12 12 0 0 0 12 12 m 84 0 h 80 m -37 0 l -5 -5 m 0 10 l 5 -5 m 37 0 a 12 12 0 0 0 12 -12 v 0"/>
<a class="link" xlink:href="#EOS_FREE">
<g class="symbol">
<rect height="22" width="84" x="392" y="1930"/>
<text x="434" y="1946">
EOS_FREE</text>
</g>
</a>
</g>
<path d=" M 358 1875 h 10"/>
</g>
</g>
<g class="character">
<rect height="22" rx="10" ry="10" width="76" x="602" y="1864"/>
<text x="640" y="1880">
IGNORED</text>
</g>
<g class="string">
<rect height="22" rx="10" ry="10" width="28" x="688" y="1864"/>
<text x="702" y="1880">
}</text>
</g>
<path d=" M 174 1875 h 10"/>
<path d=" M 260 1875 h 10"/>
<path d=" M 592 1875 h 10"/>
<path d=" M 678 1875 h 10"/>
</g>
<path d=" M 726 1875 h 5 a 5 5 0 0 1 5 -5 a 5 5 0 0 1 5 5 a 5 5 0 0 1 -5 5 a 5 5 0 0 1 -5 -5"/>
<path d=" M 25 1875 h 10"/>
<path d=" M 136 1875 h 10"/>
<path d=" M 716 1875 h 10"/>
</g>
<g class="sequence">
<path d=" M 10 2005 a 5 5 0 0 1 5 -5 a 5 5 0 0 1 5 5 a 5 5 0 0 1 -5 5 a 5 5 0 0 1 -5 -5 m 10 0 h 5"/>
<text class="comment" id="TemplateStatement" x="99" y="2010">
TemplateStatement</text>
<a class="link" xlink:href="#WhereBlock">
<g class="symbol">
<rect height="22" width="100" x="174" y="1994"/>
<text x="224" y="2010">
WhereBlock</text>
</g>
</a>
<path d=" M 284 2005 h 5 a 5 5 0 0 1 5 -5 a 5 5 0 0 1 5 5 a 5 5 0 0 1 -5 5 a 5 5 0 0 1 -5 -5"/>
<path d=" M 25 2005 h 10"/>
<path d=" M 164 2005 h 10"/>
<path d=" M 274 2005 h 10"/>
</g>
<g class="sequence">
<path d=" M 10 2039 a 5 5 0 0 1 5 -5 a 5 5 0 0 1 5 5 a 5 5 0 0 1 -5 5 a 5 5 0 0 1 -5 -5 m 10 0 h 5"/>
<text class="comment" id="TemplateImplements" x="103" y="2044">
TemplateImplements</text>
<a class="link" xlink:href="#KW_IMPLEMENTS">
<g class="symbol">
<rect height="22" width="124" x="181" y="2028"/>
<text x="243" y="2044">
KW_IMPLEMENTS</text>
</g>
</a>
<path d=" M 315 2039 h 5 a 5 5 0 0 1 5 -5 a 5 5 0 0 1 5 5 a 5 5 0 0 1 -5 5 a 5 5 0 0 1 -5 -5"/>
<path d=" M 25 2039 h 10"/>
<path d=" M 171 2039 h 10"/>
<path d=" M 305 2039 h 10"/>
</g>
<g class="sequence">
<path d=" M 10 2073 a 5 5 0 0 1 5 -5 a 5 5 0 0 1 5 5 a 5 5 0 0 1 -5 5 a 5 5 0 0 1 -5 -5 m 10 0 h 5"/>
<text class="comment" id="WhereBlock" x="75" y="2078">
WhereBlock</text>
<g class="sequence">
<a class="link" xlink:href="#KW_WHERE">
<g class="symbol">
<rect height="22" width="84" x="125" y="2062"/>
<text x="167" y="2078">
KW_WHERE</text>
</g>
</a>
<g class="character">
<rect height="22" rx="10" ry="10" width="76" x="219" y="2062"/>
<text x="257" y="2078">
IGNORED</text>
</g>
<g class="string">
<rect height="22" rx="10" ry="10" width="28" x="305" y="2062"/>
<text x="319" y="2078">
{</text>
</g>
<g class="character">
<rect height="22" rx="10" ry="10" width="76" x="343" y="2062"/>
<text x="381" y="2078">
IGNORED</text>
</g>
<g class="repeat">
<path d=" M 429 2073 h 12 m 186 0 h 12 m -12 0 a 12 12 0 0 1 12 12 v 7 a 12 12 0 0 1 -12 12 m -52 0 h -134 m 70 0 l 5 -5 m 0 10 l -5 -5 m -70 0 a 12 12 0 0 1 -12 -12 v -7 a 12 12 0 0 1 12 -12"/>
<text class="comment" x="601" y="2109">
[0, ∞]</text>
<g class="sequence">
<g class="character">
<rect height="22" rx="10" ry="10" width="76" x="441" y="2062"/>
<text x="479" y="2078">
IGNORED</text>
</g>
<a class="link" xlink:href="#WhereBound">
<g class="symbol">
<rect height="22" width="100" x="527" y="2062"/>
<text x="577" y="2078">
WhereBound</text>
</g>
</a>
<path d=" M 517 2073 h 10"/>
</g>
</g>
<g class="character">
<rect height="22" rx="10" ry="10" width="76" x="649" y="2062"/>
<text x="687" y="2078">
IGNORED</text>
</g>
<g class="string">
<rect height="22" rx="10" ry="10" width="28" x="735" y="2062"/>
<text x="749" y="2078">
}</text>
</g>
<path d=" M 209 2073 h 10"/>
<path d=" M 295 2073 h 10"/>
<path d=" M 333 2073 h 10"/>
<path d=" M 419 2073 h 10"/>
<path d=" M 639 2073 h 10"/>
<path d=" M 725 2073 h 10"/>
</g>
<path d=" M 773 2073 h 5 a 5 5 0 0 1 5 -5 a 5 5 0 0 1 5 5 a 5 5 0 0 1 -5 5 a 5 5 0 0 1 -5 -5"/>
<path d=" M 25 2073 h 10"/>
<path d=" M 115 2073 h 10"/>
<path d=" M 763 2073 h 10"/>
</g>
<g class="sequence">
<path d=" M 10 2137 a 5 5 0 0 1 5 -5 a 5 5 0 0 1 5 5 a 5 5 0 0 1 -5 5 a 5 5 0 0 1 -5 -5 m 10 0 h 5"/>
<text class="comment" id="WhereBound" x="75" y="2142">
WhereBound</text>
<a class="link" xlink:href="#EOS_FREE">
<g class="symbol">
<rect height="22" width="84" x="125" y="2126"/>
<text x="167" y="2142">
EOS_FREE</text>
</g>
</a>
<path d=" M 219 2137 h 5 a 5 5 0 0 1 5 -5 a 5 5 0 0 1 5 5 a 5 5 0 0 1 -5 5 a 5 5 0 0 1 -5 -5"/>
<path d=" M 25 2137 h 10"/>
<path d=" M 115 2137 h 10"/>
<path d=" M 209 2137 h 10"/>
</g>
<g class="sequence">
<path d=" M 10 2171 a 5 5 0 0 1 5 -5 a 5 5 0 0 1 5 5 a 5 5 0 0 1 -5 5 a 5 5 0 0 1 -5 -5 m 10 0 h 5"/>
<text class="comment" id="KW_CLASS" x="68" y="2176">
KW_CLASS</text>
<g class="choice">
<path d=" M 111 2171 h 24 m 60 0 h 56 m -25 0 l -5 -5 m 0 10 l 5 -5 m 25 0"/>
<g class="string">
<rect height="22" rx="10" ry="10" width="60" x="135" y="2160"/>
<text x="165" y="2176">
class</text>
</g>
<path d=" M 111 2171 a 12 12 0 0 1 12 12 v 9 m 116 0 v -9 a 12 12 0 0 1 12 -12"/>
<path d=" M 123 2192 v 0 a 12 12 0 0 0 12 12 m 92 0 h 0 a 12 12 0 0 0 12 -12 v 0"/>
<g class="string">
<rect height="22" rx="10" ry="10" width="92" x="135" y="2193"/>
<text x="181" y="2209">
structure</text>
</g>
</g>
<path d=" M 261 2171 h 5 a 5 5 0 0 1 5 -5 a 5 5 0 0 1 5 5 a 5 5 0 0 1 -5 5 a 5 5 0 0 1 -5 -5"/>
<path d=" M 25 2171 h 10"/>
<path d=" M 101 2171 h 10"/>
<path d=" M 251 2171 h 10"/>
</g>
<g class="sequence">
<path d=" M 10 2238 a 5 5 0 0 1 5 -5 a 5 5 0 0 1 5 5 a 5 5 0 0 1 -5 5 a 5 5 0 0 1 -5 -5 m 10 0 h 5"/>
<text class="comment" id="KW_UNION" x="68" y="2243">
KW_UNION</text>
<g class="string">
<rect height="22" rx="10" ry="10" width="60" x="111" y="2227"/>
<text x="141" y="2243">
union</text>
</g>
<path d=" M 181 2238 h 5 a 5 5 0 0 1 5 -5 a 5 5 0 0 1 5 5 a 5 5 0 0 1 -5 5 a 5 5 0 0 1 -5 -5"/>
<path d=" M 25 2238 h 10"/>
<path d=" M 101 2238 h 10"/>
<path d=" M 171 2238 h 10"/>
</g>
<g class="sequence">
<path d=" M 10 2272 a 5 5 0 0 1 5 -5 a 5 5 0 0 1 5 5 a 5 5 0 0 1 -5 5 a 5 5 0 0 1 -5 -5 m 10 0 h 5"/>
<text class="comment" id="KW_TRAIT" x="68" y="2277">
KW_TRAIT</text>
<g class="string">
<rect height="22" rx="10" ry="10" width="140" x="111" y="2261"/>
<text x="181" y="2277">
trait|interface</text>
</g>
<path d=" M 261 2272 h 5 a 5 5 0 0 1 5 -5 a 5 5 0 0 1 5 5 a 5 5 0 0 1 -5 5 a 5 5 0 0 1 -5 -5"/>
<path d=" M 25 2272 h 10"/>
<path d=" M 101 2272 h 10"/>
<path d=" M 251 2272 h 10"/>
</g>
<g class="sequence">
<path d=" M 10 2306 a 5 5 0 0 1 5 -5 a 5 5 0 0 1 5 5 a 5 5 0 0 1 -5 5 a 5 5 0 0 1 -5 -5 m 10 0 h 5"/>
<text class="comment" id="MainExpression" x="89" y="2311">
MainExpression</text>
<g class="sequence">
<a class="link" xlink:href="#MainTerm">
<g class="symbol">
<rect height="22" width="84" x="153" y="2295"/>
<text x="195" y="2311">
MainTerm</text>
</g>
</a>
<g class="repeat">
<path d=" M 247 2306 h 12 m 358 0 h 12 m -12 0 a 12 12 0 0 1 12 12 v 7 a 12 12 0 0 1 -12 12 m -52 0 h -306 m 156 0 l 5 -5 m 0 10 l -5 -5 m -156 0 a 12 12 0 0 1 -12 -12 v -7 a 12 12 0 0 1 12 -12"/>
<text class="comment" x="591" y="2342">
[0, ∞]</text>
<g class="sequence">
<g class="character">
<rect height="22" rx="10" ry="10" width="76" x="259" y="2295"/>
<text x="297" y="2311">
IGNORED</text>
</g>
<a class="link" xlink:href="#MainInfix">
<g class="symbol">
<rect height="22" width="92" x="345" y="2295"/>
<text x="391" y="2311">
MainInfix</text>
</g>
</a>
<g class="character">
<rect height="22" rx="10" ry="10" width="76" x="447" y="2295"/>
<text x="485" y="2311">
IGNORED</text>
</g>
<a class="link" xlink:href="#MainTerm">
<g class="symbol">
<rect height="22" width="84" x="533" y="2295"/>
<text x="575" y="2311">
MainTerm</text>
</g>
</a>
<path d=" M 335 2306 h 10"/>
<path d=" M 437 2306 h 10"/>
<path d=" M 523 2306 h 10"/>
</g>
</g>
<path d=" M 237 2306 h 10"/>
</g>
<path d=" M 639 2306 h 5 a 5 5 0 0 1 5 -5 a 5 5 0 0 1 5 5 a 5 5 0 0 1 -5 5 a 5 5 0 0 1 -5 -5"/>
<path d=" M 25 2306 h 10"/>
<path d=" M 143 2306 h 10"/>
<path d=" M 629 2306 h 10"/>
</g>
<g class="sequence">
<path d=" M 10 2370 a 5 5 0 0 1 5 -5 a 5 5 0 0 1 5 5 a 5 5 0 0 1 -5 5 a 5 5 0 0 1 -5 -5 m 10 0 h 5"/>
<text class="comment" id="MainTerm" x="68" y="2375">
MainTerm</text>
<g class="sequence">
<g class="repeat">
<path d=" M 111 2370 h 12 m 186 0 h 12 m -12 0 a 12 12 0 0 1 12 12 v 7 a 12 12 0 0 1 -12 12 m -52 0 h -134 m 70 0 l 5 -5 m 0 10 l -5 -5 m -70 0 a 12 12 0 0 1 -12 -12 v -7 a 12 12 0 0 1 12 -12"/>
<text class="comment" x="283" y="2406">
[0, ∞]</text>
<g class="sequence">
<a class="link" xlink:href="#MainPrefix">
<g class="symbol">
<rect height="22" width="100" x="123" y="2359"/>
<text x="173" y="2375">
MainPrefix</text>
</g>
</a>
<g class="character">
<rect height="22" rx="10" ry="10" width="76" x="233" y="2359"/>
<text x="271" y="2375">
IGNORED</text>
</g>
<path d=" M 223 2370 h 10"/>
</g>
</g>
<a class="link" xlink:href="#MainFactor">
<g class="symbol">
<rect height="22" width="100" x="331" y="2359"/>
<text x="381" y="2375">
MainFactor</text>
</g>
</a>
<g class="repeat">
<path d=" M 441 2370 h 12 m 186 0 h 12 m -12 0 a 12 12 0 0 1 12 12 v 7 a 12 12 0 0 1 -12 12 m -52 0 h -134 m 70 0 l 5 -5 m 0 10 l -5 -5 m -70 0 a 12 12 0 0 1 -12 -12 v -7 a 12 12 0 0 1 12 -12"/>
<text class="comment" x="613" y="2406">
[0, ∞]</text>
<g class="sequence">
<g class="character">
<rect height="22" rx="10" ry="10" width="76" x="453" y="2359"/>
<text x="491" y="2375">
IGNORED</text>
</g>
<a class="link" xlink:href="#MainSuffix">
<g class="symbol">
<rect height="22" width="100" x="539" y="2359"/>
<text x="589" y="2375">
MainSuffix</text>
</g>
</a>
<path d=" M 529 2370 h 10"/>
</g>
</g>
<path d=" M 321 2370 h 10"/>
<path d=" M 431 2370 h 10"/>
</g>
<path d=" M 661 2370 h 5 a 5 5 0 0 1 5 -5 a 5 5 0 0 1 5 5 a 5 5 0 0 1 -5 5 a 5 5 0 0 1 -5 -5"/>
<path d=" M 25 2370 h 10"/>
<path d=" M 101 2370 h 10"/>
<path d=" M 651 2370 h 10"/>
</g>
<g class="sequence">
<path d=" M 10 2434 a 5 5 0 0 1 5 -5 a 5 5 0 0 1 5 5 a 5 5 0 0 1 -5 5 a 5 5 0 0 1 -5 -5 m 10 0 h 5"/>
<text class="comment" id="MainFactor" x="75" y="2439">
MainFactor</text>
<g class="choice">
<path d=" M 125 2434 h 24 m 208 0 h 24"/>
<g class="sequence">
<g class="string">
<rect height="22" rx="10" ry="10" width="28" x="149" y="2423"/>
<text x="163" y="2439">
(</text>
</g>
<a class="link" xlink:href="#MainExpression">
<g class="symbol">
<rect height="22" width="132" x="187" y="2423"/>
<text x="253" y="2439">
MainExpression</text>
</g>
</a>
<g class="string">
<rect height="22" rx="10" ry="10" width="28" x="329" y="2423"/>
<text x="343" y="2439">
)</text>
</g>
<path d=" M 177 2434 h 10"/>
<path d=" M 319 2434 h 10"/>
</g>
<path d=" M 125 2434 a 12 12 0 0 1 12 12 v 9 m 232 0 v -9 a 12 12 0 0 1 12 -12"/>
<path d=" M 137 2455 v 33 m 232 0 v -33"/>
<path d=" M 137 2488 v 33 m 232 0 v -33"/>
<path d=" M 137 2455 v 0 a 12 12 0 0 0 12 12 m 84 0 h 124 m -59 0 l -5 -5 m 0 10 l 5 -5 m 59 0 a 12 12 0 0 0 12 -12 v 0"/>
<a class="link" xlink:href="#Namepath">
<g class="symbol">
<rect height="22" width="84" x="149" y="2456"/>
<text x="191" y="2472">
Namepath</text>
</g>
</a>
<path d=" M 137 2488 v 0 a 12 12 0 0 0 12 12 m 76 0 h 132 m -63 0 l -5 -5 m 0 10 l 5 -5 m 63 0 a 12 12 0 0 0 12 -12 v 0"/>
<a class="link" xlink:href="#Integer">
<g class="symbol">
<rect height="22" width="76" x="149" y="2489"/>
<text x="187" y="2505">
Integer</text>
</g>
</a>
<path d=" M 137 2521 v 0 a 12 12 0 0 0 12 12 m 76 0 h 132 m -63 0 l -5 -5 m 0 10 l 5 -5 m 63 0 a 12 12 0 0 0 12 -12 v 0"/>
<a class="link" xlink:href="#Boolean">
<g class="symbol">
<rect height="22" width="76" x="149" y="2522"/>
<text x="187" y="2538">
Boolean</text>
</g>
</a>
</g>
<path d=" M 391 2434 h 5 a 5 5 0 0 1 5 -5 a 5 5 0 0 1 5 5 a 5 5 0 0 1 -5 5 a 5 5 0 0 1 -5 -5"/>
<path d=" M 25 2434 h 10"/>
<path d=" M 115 2434 h 10"/>
<path d=" M 381 2434 h 10"/>
</g>
<g class="sequence">
<path d=" M 10 2567 a 5 5 0 0 1 5 -5 a 5 5 0 0 1 5 5 a 5 5 0 0 1 -5 5 a 5 5 0 0 1 -5 -5 m 10 0 h 5"/>
<text class="comment" id="MainInfix" x="71" y="2572">
MainInfix</text>
<g class="choice">
<path d=" M 118 2567 h 24 m 28 0 h 268 m -131 0 l -5 -5 m 0 10 l 5 -5 m 131 0"/>
<g class="string">
<rect height="22" rx="10" ry="10" width="28" x="142" y="2556"/>
<text x="156" y="2572">
+</text>
</g>
<path d=" M 118 2567 a 12 12 0 0 1 12 12 v 9 m 296 0 v -9 a 12 12 0 0 1 12 -12"/>
<path d=" M 130 2588 v 33 m 296 0 v -33"/>
<path d=" M 130 2621 v 33 m 296 0 v -33"/>
<path d=" M 130 2654 v 33 m 296 0 v -33"/>
<path d=" M 130 2687 v 33 m 296 0 v -33"/>
<path d=" M 130 2720 v 33 m 296 0 v -33"/>
<path d=" M 130 2753 v 33 m 296 0 v -33"/>
<path d=" M 130 2786 v 33 m 296 0 v -33"/>
<path d=" M 130 2819 v 33 m 296 0 v -33"/>
<path d=" M 130 2852 v 33 m 296 0 v -33"/>
<path d=" M 130 2885 v 33 m 296 0 v -33"/>
<path d=" M 130 2918 v 33 m 296 0 v -33"/>
<path d=" M 130 2951 v 33 m 296 0 v -33"/>
<path d=" M 130 2984 v 33 m 296 0 v -33"/>
<path d=" M 130 3017 v 33 m 296 0 v -33"/>
<path d=" M 130 3050 v 33 m 296 0 v -33"/>
<path d=" M 130 3083 v 33 m 296 0 v -33"/>
<path d=" M 130 3116 v 33 m 296 0 v -33"/>
<path d=" M 130 3149 v 33 m 296 0 v -33"/>
<path d=" M 130 3182 v 33 m 296 0 v -33"/>
<path d=" M 130 3215 v 33 m 296 0 v -33"/>
<path d=" M 130 3248 v 33 m 296 0 v -33"/>
<path d=" M 130 3281 v 33 m 296 0 v -33"/>
<path d=" M 130 3314 v 33 m 296 0 v -33"/>
<path d=" M 130 3347 v 33 m 296 0 v -33"/>
<path d=" M 130 3380 v 33 m 296 0 v -33"/>
<path d=" M 130 3413 v 33 m 296 0 v -33"/>
<path d=" M 130 3446 v 33 m 296 0 v -33"/>
<path d=" M 130 3479 v 66 m 0 -30 l -5 -5 m 10 0 l -5 5 m 0 30 m 296 0 v -66 m 0 36 l -5 5 m 10 0 l -5 -5 m 0 -36"/>
<path d=" M 130 3545 v 66 m 0 -30 l -5 -5 m 10 0 l -5 5 m 0 30 m 296 0 v -66 m 0 36 l -5 5 m 10 0 l -5 -5 m 0 -36"/>
<path d=" M 130 3611 v 33 m 296 0 v -33"/>
<path d=" M 130 3644 v 33 m 296 0 v -33"/>
<path d=" M 130 3677 v 66 m 0 -30 l -5 -5 m 10 0 l -5 5 m 0 30 m 296 0 v -66 m 0 36 l -5 5 m 10 0 l -5 -5 m 0 -36"/>
<path d=" M 130 3743 v 33 m 296 0 v -33"/>
<path d=" M 130 2588 v 0 a 12 12 0 0 0 12 12 m 36 0 h 236 m -115 0 l -5 -5 m 0 10 l 5 -5 m 115 0 a 12 12 0 0 0 12 -12 v 0"/>
<g class="string">
<rect height="22" rx="10" ry="10" width="36" x="142" y="2589"/>
<text x="160" y="2605">
+=</text>
</g>
<path d=" M 130 2621 v 0 a 12 12 0 0 0 12 12 m 28 0 h 244 m -119 0 l -5 -5 m 0 10 l 5 -5 m 119 0 a 12 12 0 0 0 12 -12 v 0"/>
<g class="string">
<rect height="22" rx="10" ry="10" width="28" x="142" y="2622"/>
<text x="156" y="2638">
-</text>
</g>
<path d=" M 130 2654 v 0 a 12 12 0 0 0 12 12 m 36 0 h 236 m -115 0 l -5 -5 m 0 10 l 5 -5 m 115 0 a 12 12 0 0 0 12 -12 v 0"/>
<g class="string">
<rect height="22" rx="10" ry="10" width="36" x="142" y="2655"/>
<text x="160" y="2671">
-=</text>
</g>
<path d=" M 130 2687 v 0 a 12 12 0 0 0 12 12 m 28 0 h 244 m -119 0 l -5 -5 m 0 10 l 5 -5 m 119 0 a 12 12 0 0 0 12 -12 v 0"/>
<g class="string">
<rect height="22" rx="10" ry="10" width="28" x="142" y="2688"/>
<text x="156" y="2704">
*</text>
</g>
<path d=" M 130 2720 v 0 a 12 12 0 0 0 12 12 m 36 0 h 236 m -115 0 l -5 -5 m 0 10 l 5 -5 m 115 0 a 12 12 0 0 0 12 -12 v 0"/>
<g class="string">
<rect height="22" rx="10" ry="10" width="36" x="142" y="2721"/>
<text x="160" y="2737">
*=</text>
</g>
<path d=" M 130 2753 v 0 a 12 12 0 0 0 12 12 m 28 0 h 244 m -119 0 l -5 -5 m 0 10 l 5 -5 m 119 0 a 12 12 0 0 0 12 -12 v 0"/>
<g class="string">
<rect height="22" rx="10" ry="10" width="28" x="142" y="2754"/>
<text x="156" y="2770">
/</text>
</g>
<path d=" M 130 2786 v 0 a 12 12 0 0 0 12 12 m 36 0 h 236 m -115 0 l -5 -5 m 0 10 l 5 -5 m 115 0 a 12 12 0 0 0 12 -12 v 0"/>
<g class="string">
<rect height="22" rx="10" ry="10" width="36" x="142" y="2787"/>
<text x="160" y="2803">
/=</text>
</g>
<path d=" M 130 2819 v 0 a 12 12 0 0 0 12 12 m 28 0 h 244 m -119 0 l -5 -5 m 0 10 l 5 -5 m 119 0 a 12 12 0 0 0 12 -12 v 0"/>
<g class="string">
<rect height="22" rx="10" ry="10" width="28" x="142" y="2820"/>
<text x="156" y="2836">
%</text>
</g>
<path d=" M 130 2852 v 0 a 12 12 0 0 0 12 12 m 36 0 h 236 m -115 0 l -5 -5 m 0 10 l 5 -5 m 115 0 a 12 12 0 0 0 12 -12 v 0"/>
<g class="string">
<rect height="22" rx="10" ry="10" width="36" x="142" y="2853"/>
<text x="160" y="2869">
%=</text>
</g>
<path d=" M 130 2885 v 0 a 12 12 0 0 0 12 12 m 28 0 h 244 m -119 0 l -5 -5 m 0 10 l 5 -5 m 119 0 a 12 12 0 0 0 12 -12 v 0"/>
<g class="string">
<rect height="22" rx="10" ry="10" width="28" x="142" y="2886"/>
<text x="156" y="2902">
^</text>
</g>
<path d=" M 130 2918 v 0 a 12 12 0 0 0 12 12 m 28 0 h 244 m -119 0 l -5 -5 m 0 10 l 5 -5 m 119 0 a 12 12 0 0 0 12 -12 v 0"/>
<g class="string">
<rect height="22" rx="10" ry="10" width="28" x="142" y="2919"/>
<text x="156" y="2935">
√</text>
</g>
<path d=" M 130 2951 v 0 a 12 12 0 0 0 12 12 m 60 0 h 212 m -103 0 l -5 -5 m 0 10 l 5 -5 m 103 0 a 12 12 0 0 0 12 -12 v 0"/>
<g class="string">
<rect height="22" rx="10" ry="10" width="60" x="142" y="2952"/>
<text x="172" y="2968">
⋘|&lt;&lt;&lt;</text>
</g>
<path d=" M 130 2984 v 0 a 12 12 0 0 0 12 12 m 44 0 h 228 m -111 0 l -5 -5 m 0 10 l 5 -5 m 111 0 a 12 12 0 0 0 12 -12 v 0"/>
<g class="string">
<rect height="22" rx="10" ry="10" width="44" x="142" y="2985"/>
<text x="164" y="3001">
&lt;&lt;=</text>
</g>
<path d=" M 130 3017 v 0 a 12 12 0 0 0 12 12 m 52 0 h 220 m -107 0 l -5 -5 m 0 10 l 5 -5 m 107 0 a 12 12 0 0 0 12 -12 v 0"/>
<g class="string">
<rect height="22" rx="10" ry="10" width="52" x="142" y="3018"/>
<text x="168" y="3034">
≪|&lt;&lt;</text>
</g>
<path d=" M 130 3050 v 0 a 12 12 0 0 0 12 12 m 76 0 h 196 m -95 0 l -5 -5 m 0 10 l 5 -5 m 95 0 a 12 12 0 0 0 12 -12 v 0"/>
<g class="string">
<rect height="22" rx="10" ry="10" width="76" x="142" y="3051"/>
<text x="180" y="3067">
[⩽≤]|&lt;=</text>
</g>
<path d=" M 130 3083 v 0 a 12 12 0 0 0 12 12 m 28 0 h 244 m -119 0 l -5 -5 m 0 10 l 5 -5 m 119 0 a 12 12 0 0 0 12 -12 v 0"/>
<g class="string">
<rect height="22" rx="10" ry="10" width="28" x="142" y="3084"/>
<text x="156" y="3100">
&lt;</text>
</g>
<path d=" M 130 3116 v 0 a 12 12 0 0 0 12 12 m 60 0 h 212 m -103 0 l -5 -5 m 0 10 l 5 -5 m 103 0 a 12 12 0 0 0 12 -12 v 0"/>
<g class="string">
<rect height="22" rx="10" ry="10" width="60" x="142" y="3117"/>
<text x="172" y="3133">
⋙|&gt;&gt;&gt;</text>
</g>
<path d=" M 130 3149 v 0 a 12 12 0 0 0 12 12 m 44 0 h 228 m -111 0 l -5 -5 m 0 10 l 5 -5 m 111 0 a 12 12 0 0 0 12 -12 v 0"/>
<g class="string">
<rect height="22" rx="10" ry="10" width="44" x="142" y="3150"/>
<text x="164" y="3166">
&gt;&gt;=</text>
</g>
<path d=" M 130 3182 v 0 a 12 12 0 0 0 12 12 m 52 0 h 220 m -107 0 l -5 -5 m 0 10 l 5 -5 m 107 0 a 12 12 0 0 0 12 -12 v 0"/>
<g class="string">
<rect height="22" rx="10" ry="10" width="52" x="142" y="3183"/>
<text x="168" y="3199">
≫|&gt;&gt;</text>
</g>
<path d=" M 130 3215 v 0 a 12 12 0 0 0 12 12 m 76 0 h 196 m -95 0 l -5 -5 m 0 10 l 5 -5 m 95 0 a 12 12 0 0 0 12 -12 v 0"/>
<g class="string">
<rect height="22" rx="10" ry="10" width="76" x="142" y="3216"/>
<text x="180" y="3232">
[⩾≥]|&gt;=</text>
</g>
<path d=" M 130 3248 v 0 a 12 12 0 0 0 12 12 m 28 0 h 244 m -119 0 l -5 -5 m 0 10 l 5 -5 m 119 0 a 12 12 0 0 0 12 -12 v 0"/>
<g class="string">
<rect height="22" rx="10" ry="10" width="28" x="142" y="3249"/>
<text x="156" y="3265">
&gt;</text>
</g>
<path d=" M 130 3281 v 0 a 12 12 0 0 0 12 12 m 60 0 h 212 m -103 0 l -5 -5 m 0 10 l 5 -5 m 103 0 a 12 12 0 0 0 12 -12 v 0"/>
<g class="string">
<rect height="22" rx="10" ry="10" width="60" x="142" y="3282"/>
<text x="172" y="3298">
≡|===</text>
</g>
<path d=" M 130 3314 v 0 a 12 12 0 0 0 12 12 m 92 0 h 180 m -87 0 l -5 -5 m 0 10 l 5 -5 m 87 0 a 12 12 0 0 0 12 -12 v 0"/>
<g class="string">
<rect height="22" rx="10" ry="10" width="92" x="142" y="3315"/>
<text x="188" y="3331">
≢|!==|=!=</text>
</g>
<path d=" M 130 3347 v 0 a 12 12 0 0 0 12 12 m 52 0 h 220 m -107 0 l -5 -5 m 0 10 l 5 -5 m 107 0 a 12 12 0 0 0 12 -12 v 0"/>
<g class="string">
<rect height="22" rx="10" ry="10" width="52" x="142" y="3348"/>
<text x="168" y="3364">
≠|!=</text>
</g>
<path d=" M 130 3380 v 0 a 12 12 0 0 0 12 12 m 28 0 h 244 m -119 0 l -5 -5 m 0 10 l 5 -5 m 119 0 a 12 12 0 0 0 12 -12 v 0"/>
<g class="string">
<rect height="22" rx="10" ry="10" width="28" x="142" y="3381"/>
<text x="156" y="3397">
=</text>
</g>
<path d=" M 130 3413 v 0 a 12 12 0 0 0 12 12 m 44 0 h 228 m -111 0 l -5 -5 m 0 10 l 5 -5 m 111 0 a 12 12 0 0 0 12 -12 v 0"/>
<g class="string">
<rect height="22" rx="10" ry="10" width="44" x="142" y="3414"/>
<text x="164" y="3430">
..&lt;</text>
</g>
<path d=" M 130 3446 v 0 a 12 12 0 0 0 12 12 m 44 0 h 228 m -111 0 l -5 -5 m 0 10 l 5 -5 m 111 0 a 12 12 0 0 0 12 -12 v 0"/>
<g class="string">
<rect height="22" rx="10" ry="10" width="44" x="142" y="3447"/>
<text x="164" y="3463">
..=</text>
</g>
<path d=" M 130 3479 v 0 a 12 12 0 0 0 12 12 m 108 0 h 164 m -79 0 l -5 -5 m 0 10 l 5 -5 m 79 0 a 12 12 0 0 0 12 -12 v 0"/>
<g class="choice">
<path d=" M 142 3491 h 24 m 60 0 h 24"/>
<a class="link" xlink:href="#KW_IN">
<g class="symbol">
<rect height="22" width="60" x="166" y="3480"/>
<text x="196" y="3496">
KW_IN</text>
</g>
</a>
<path d=" M 142 3491 a 12 12 0 0 1 12 12 v 9 m 84 0 v -9 a 12 12 0 0 1 12 -12"/>
<path d=" M 154 3512 v 0 a 12 12 0 0 0 12 12 m 52 0 h 8 a 12 12 0 0 0 12 -12 v 0"/>
<g class="string">
<rect height="22" rx="10" ry="10" width="52" x="166" y="3513"/>
<text x="192" y="3529">
[∈∊]</text>
</g>
</g>
<path d=" M 130 3545 v 0 a 12 12 0 0 0 12 12 m 272 0 h 0 a 12 12 0 0 0 12 -12 v 0"/>
<g class="choice">
<path d=" M 142 3557 h 24 m 224 0 h 24"/>
<g class="sequence">
<a class="link" xlink:href="#KW_NOT">
<g class="symbol">
<rect height="22" width="68" x="166" y="3546"/>
<text x="200" y="3562">
KW_NOT</text>
</g>
</a>
<g class="character">
<rect height="22" rx="10" ry="10" width="76" x="244" y="3546"/>
<text x="282" y="3562">
IGNORED</text>
</g>
<a class="link" xlink:href="#KW_IN">
<g class="symbol">
<rect height="22" width="60" x="330" y="3546"/>
<text x="360" y="3562">
KW_IN</text>
</g>
</a>
<path d=" M 234 3557 h 10"/>
<path d=" M 320 3557 h 10"/>
</g>
<path d=" M 142 3557 a 12 12 0 0 1 12 12 v 9 m 248 0 v -9 a 12 12 0 0 1 12 -12"/>
<path d=" M 154 3578 v 0 a 12 12 0 0 0 12 12 m 28 0 h 196 m -95 0 l -5 -5 m 0 10 l 5 -5 m 95 0 a 12 12 0 0 0 12 -12 v 0"/>
<g class="string">
<rect height="22" rx="10" ry="10" width="28" x="166" y="3579"/>
<text x="180" y="3595">
∉</text>
</g>
</g>
<path d=" M 130 3611 v 0 a 12 12 0 0 0 12 12 m 52 0 h 220 m -107 0 l -5 -5 m 0 10 l 5 -5 m 107 0 a 12 12 0 0 0 12 -12 v 0"/>
<g class="string">
<rect height="22" rx="10" ry="10" width="52" x="142" y="3612"/>
<text x="168" y="3628">
[∋∍]</text>
</g>
<path d=" M 130 3644 v 0 a 12 12 0 0 0 12 12 m 28 0 h 244 m -119 0 l -5 -5 m 0 10 l 5 -5 m 119 0 a 12 12 0 0 0 12 -12 v 0"/>
<g class="string">
<rect height="22" rx="10" ry="10" width="28" x="142" y="3645"/>
<text x="156" y="3661">
∌</text>
</g>
<path d=" M 130 3677 v 0 a 12 12 0 0 0 12 12 m 100 0 h 172 m -83 0 l -5 -5 m 0 10 l 5 -5 m 83 0 a 12 12 0 0 0 12 -12 v 0"/>
<g class="choice">
<path d=" M 142 3689 h 24 m 36 0 h 40"/>
<g class="string">
<rect height="22" rx="10" ry="10" width="36" x="166" y="3678"/>
<text x="184" y="3694">
/@</text>
</g>
<path d=" M 142 3689 a 12 12 0 0 1 12 12 v 9 m 76 0 v -9 a 12 12 0 0 1 12 -12"/>
<path d=" M 154 3710 v 0 a 12 12 0 0 0 12 12 m 52 0 h 0 a 12 12 0 0 0 12 -12 v 0"/>
<g class="string">
<rect height="22" rx="10" ry="10" width="52" x="166" y="3711"/>
<text x="192" y="3727">
[⇴⨵]</text>
</g>
</g>
<path d=" M 130 3743 v 0 a 12 12 0 0 0 12 12 m 68 0 h 204 m -99 0 l -5 -5 m 0 10 l 5 -5 m 99 0 a 12 12 0 0 0 12 -12 v 0"/>
<g class="string">
<rect height="22" rx="10" ry="10" width="68" x="142" y="3744"/>
<text x="176" y="3760">
@{3}|⟴</text>
</g>
<path d=" M 130 3776 v 0 a 12 12 0 0 0 12 12 m 68 0 h 204 m -99 0 l -5 -5 m 0 10 l 5 -5 m 99 0 a 12 12 0 0 0 12 -12 v 0"/>
<g class="string">
<rect height="22" rx="10" ry="10" width="68" x="142" y="3777"/>
<text x="176" y="3793">
@{2}|⊕</text>
</g>
</g>
<path d=" M 448 2567 h 5 a 5 5 0 0 1 5 -5 a 5 5 0 0 1 5 5 a 5 5 0 0 1 -5 5 a 5 5 0 0 1 -5 -5"/>
<path d=" M 25 2567 h 10"/>
<path d=" M 108 2567 h 10"/>
<path d=" M 438 2567 h 10"/>
</g>
<g class="sequence">
<path d=" M 10 3822 a 5 5 0 0 1 5 -5 a 5 5 0 0 1 5 5 a 5 5 0 0 1 -5 5 a 5 5 0 0 1 -5 -5 m 10 0 h 5"/>
<text class="comment" id="MainPrefix" x="75" y="3827">
MainPrefix</text>
<g class="choice">
<path d=" M 125 3822 h 24 m 52 0 h 56 m -25 0 l -5 -5 m 0 10 l 5 -5 m 25 0"/>
<g class="string">
<rect height="22" rx="10" ry="10" width="52" x="149" y="3811"/>
<text x="175" y="3827">
[¬!]</text>
</g>
<path d=" M 125 3822 a 12 12 0 0 1 12 12 v 9 m 108 0 v -9 a 12 12 0 0 1 12 -12"/>
<path d=" M 137 3843 v 33 m 108 0 v -33"/>
<path d=" M 137 3876 v 33 m 108 0 v -33"/>
<path d=" M 137 3909 v 33 m 108 0 v -33"/>
<path d=" M 137 3942 v 33 m 108 0 v -33"/>
<path d=" M 137 3975 v 33 m 108 0 v -33"/>
<path d=" M 137 4008 v 33 m 108 0 v -33"/>
<path d=" M 137 4041 v 33 m 108 0 v -33"/>
<path d=" M 137 4074 v 33 m 108 0 v -33"/>
<path d=" M 137 4107 v 33 m 108 0 v -33"/>
<path d=" M 137 3843 v 0 a 12 12 0 0 0 12 12 m 44 0 h 40 a 12 12 0 0 0 12 -12 v 0"/>
<g class="string">
<rect height="22" rx="10" ry="10" width="44" x="149" y="3844"/>
<text x="171" y="3860">
[+]</text>
</g>
<path d=" M 137 3876 v 0 a 12 12 0 0 0 12 12 m 44 0 h 40 a 12 12 0 0 0 12 -12 v 0"/>
<g class="string">
<rect height="22" rx="10" ry="10" width="44" x="149" y="3877"/>
<text x="171" y="3893">
[-]</text>
</g>
<path d=" M 137 3909 v 0 a 12 12 0 0 0 12 12 m 44 0 h 40 a 12 12 0 0 0 12 -12 v 0"/>
<g class="string">
<rect height="22" rx="10" ry="10" width="44" x="149" y="3910"/>
<text x="171" y="3926">
[&amp;]</text>
</g>
<path d=" M 137 3942 v 0 a 12 12 0 0 0 12 12 m 84 0 h 0 a 12 12 0 0 0 12 -12 v 0"/>
<g class="string">
<rect height="22" rx="10" ry="10" width="84" x="149" y="3943"/>
<text x="191" y="3959">
…|[.]{3}</text>
</g>
<path d=" M 137 3975 v 0 a 12 12 0 0 0 12 12 m 84 0 h 0 a 12 12 0 0 0 12 -12 v 0"/>
<g class="string">
<rect height="22" rx="10" ry="10" width="84" x="149" y="3976"/>
<text x="191" y="3992">
‥|[.]{2}</text>
</g>
<path d=" M 137 4008 v 0 a 12 12 0 0 0 12 12 m 28 0 h 56 m -25 0 l -5 -5 m 0 10 l 5 -5 m 25 0 a 12 12 0 0 0 12 -12 v 0"/>
<g class="string">
<rect height="22" rx="10" ry="10" width="28" x="149" y="4009"/>
<text x="163" y="4025">
⅟</text>
</g>
<path d=" M 137 4041 v 0 a 12 12 0 0 0 12 12 m 28 0 h 56 m -25 0 l -5 -5 m 0 10 l 5 -5 m 25 0 a 12 12 0 0 0 12 -12 v 0"/>
<g class="string">
<rect height="22" rx="10" ry="10" width="28" x="149" y="4042"/>
<text x="163" y="4058">
√</text>
</g>
<path d=" M 137 4074 v 0 a 12 12 0 0 0 12 12 m 28 0 h 56 m -25 0 l -5 -5 m 0 10 l 5 -5 m 25 0 a 12 12 0 0 0 12 -12 v 0"/>
<g class="string">
<rect height="22" rx="10" ry="10" width="28" x="149" y="4075"/>
<text x="163" y="4091">
∛</text>
</g>
<path d=" M 137 4107 v 0 a 12 12 0 0 0 12 12 m 28 0 h 56 m -25 0 l -5 -5 m 0 10 l 5 -5 m 25 0 a 12 12 0 0 0 12 -12 v 0"/>
<g class="string">
<rect height="22" rx="10" ry="10" width="28" x="149" y="4108"/>
<text x="163" y="4124">
∜</text>
</g>
<path d=" M 137 4140 v 0 a 12 12 0 0 0 12 12 m 44 0 h 40 a 12 12 0 0 0 12 -12 v 0"/>
<g class="string">
<rect height="22" rx="10" ry="10" width="44" x="149" y="4141"/>
<text x="171" y="4157">
[*]</text>
</g>
</g>
<path d=" M 267 3822 h 5 a 5 5 0 0 1 5 -5 a 5 5 0 0 1 5 5 a 5 5 0 0 1 -5 5 a 5 5 0 0 1 -5 -5"/>
<path d=" M 25 3822 h 10"/>
<path d=" M 115 3822 h 10"/>
<path d=" M 257 3822 h 10"/>
</g>
<g class="sequence">
<path d=" M 10 4186 a 5 5 0 0 1 5 -5 a 5 5 0 0 1 5 5 a 5 5 0 0 1 -5 5 a 5 5 0 0 1 -5 -5 m 10 0 h 5"/>
<text class="comment" id="MainSuffix" x="75" y="4191">
MainSuffix</text>
<g class="choice">
<path d=" M 125 4186 h 24 m 28 0 h 24"/>
<g class="string">
<rect height="22" rx="10" ry="10" width="28" x="149" y="4175"/>
<text x="163" y="4191">
!</text>
</g>
<path d=" M 125 4186 a 12 12 0 0 1 12 12 v 9 m 52 0 v -9 a 12 12 0 0 1 12 -12"/>
<path d=" M 137 4207 v 33 m 52 0 v -33"/>
<path d=" M 137 4240 v 33 m 52 0 v -33"/>
<path d=" M 137 4273 v 33 m 52 0 v -33"/>
<path d=" M 137 4306 v 33 m 52 0 v -33"/>
<path d=" M 137 4339 v 33 m 52 0 v -33"/>
<path d=" M 137 4372 v 33 m 52 0 v -33"/>
<path d=" M 137 4405 v 33 m 52 0 v -33"/>
<path d=" M 137 4438 v 33 m 52 0 v -33"/>
<path d=" M 137 4207 v 0 a 12 12 0 0 0 12 12 m 28 0 h 0 a 12 12 0 0 0 12 -12 v 0"/>
<g class="string">
<rect height="22" rx="10" ry="10" width="28" x="149" y="4208"/>
<text x="163" y="4224">
%</text>
</g>
<path d=" M 137 4240 v 0 a 12 12 0 0 0 12 12 m 28 0 h 0 a 12 12 0 0 0 12 -12 v 0"/>
<g class="string">
<rect height="22" rx="10" ry="10" width="28" x="149" y="4241"/>
<text x="163" y="4257">
‰</text>
</g>
<path d=" M 137 4273 v 0 a 12 12 0 0 0 12 12 m 28 0 h 0 a 12 12 0 0 0 12 -12 v 0"/>
<g class="string">
<rect height="22" rx="10" ry="10" width="28" x="149" y="4274"/>
<text x="163" y="4290">
‱</text>
</g>
<path d=" M 137 4306 v 0 a 12 12 0 0 0 12 12 m 28 0 h 0 a 12 12 0 0 0 12 -12 v 0"/>
<g class="string">
<rect height="22" rx="10" ry="10" width="28" x="149" y="4307"/>
<text x="163" y="4323">
′</text>
</g>
<path d=" M 137 4339 v 0 a 12 12 0 0 0 12 12 m 28 0 h 0 a 12 12 0 0 0 12 -12 v 0"/>
<g class="string">
<rect height="22" rx="10" ry="10" width="28" x="149" y="4340"/>
<text x="163" y="4356">
″</text>
</g>
<path d=" M 137 4372 v 0 a 12 12 0 0 0 12 12 m 28 0 h 0 a 12 12 0 0 0 12 -12 v 0"/>
<g class="string">
<rect height="22" rx="10" ry="10" width="28" x="149" y="4373"/>
<text x="163" y="4389">
‴</text>
</g>
<path d=" M 137 4405 v 0 a 12 12 0 0 0 12 12 m 28 0 h 0 a 12 12 0 0 0 12 -12 v 0"/>
<g class="string">
<rect height="22" rx="10" ry="10" width="28" x="149" y="4406"/>
<text x="163" y="4422">
⁗</text>
</g>
<path d=" M 137 4438 v 0 a 12 12 0 0 0 12 12 m 28 0 h 0 a 12 12 0 0 0 12 -12 v 0"/>
<g class="string">
<rect height="22" rx="10" ry="10" width="28" x="149" y="4439"/>
<text x="163" y="4455">
℃</text>
</g>
<path d=" M 137 4471 v 0 a 12 12 0 0 0 12 12 m 28 0 h 0 a 12 12 0 0 0 12 -12 v 0"/>
<g class="string">
<rect height="22" rx="10" ry="10" width="28" x="149" y="4472"/>
<text x="163" y="4488">
℉</text>
</g>
</g>
<path d=" M 211 4186 h 5 a 5 5 0 0 1 5 -5 a 5 5 0 0 1 5 5 a 5 5 0 0 1 -5 5 a 5 5 0 0 1 -5 -5"/>
<path d=" M 25 4186 h 10"/>
<path d=" M 115 4186 h 10"/>
<path d=" M 201 4186 h 10"/>
</g>
<g class="sequence">
<path d=" M 10 4517 a 5 5 0 0 1 5 -5 a 5 5 0 0 1 5 5 a 5 5 0 0 1 -5 5 a 5 5 0 0 1 -5 -5 m 10 0 h 5"/>
<text class="comment" id="NamepathFree" x="82" y="4522">
NamepathFree</text>
<g class="sequence">
<a class="link" xlink:href="#Identifier">
<g class="symbol">
<rect height="22" width="100" x="139" y="4506"/>
<text x="189" y="4522">
Identifier</text>
</g>
</a>
<g class="repeat">
<path d=" M 249 4517 h 12 m 358 0 h 12 m -12 0 a 12 12 0 0 1 12 12 v 7 a 12 12 0 0 1 -12 12 m -52 0 h -306 m 156 0 l 5 -5 m 0 10 l -5 -5 m -156 0 a 12 12 0 0 1 -12 -12 v -7 a 12 12 0 0 1 12 -12"/>
<text class="comment" x="593" y="4553">
[0, ∞]</text>
<g class="sequence">
<g class="character">
<rect height="22" rx="10" ry="10" width="76" x="261" y="4506"/>
<text x="299" y="4522">
IGNORED</text>
</g>
<g class="string">
<rect height="22" rx="10" ry="10" width="76" x="347" y="4506"/>
<text x="385" y="4522">
[.∷]|::</text>
</g>
<g class="character">
<rect height="22" rx="10" ry="10" width="76" x="433" y="4506"/>
<text x="471" y="4522">
IGNORED</text>
</g>
<a class="link" xlink:href="#Identifier">
<g class="symbol">
<rect height="22" width="100" x="519" y="4506"/>
<text x="569" y="4522">
Identifier</text>
</g>
</a>
<path d=" M 337 4517 h 10"/>
<path d=" M 423 4517 h 10"/>
<path d=" M 509 4517 h 10"/>
</g>
</g>
<path d=" M 239 4517 h 10"/>
</g>
<path d=" M 641 4517 h 5 a 5 5 0 0 1 5 -5 a 5 5 0 0 1 5 5 a 5 5 0 0 1 -5 5 a 5 5 0 0 1 -5 -5"/>
<path d=" M 25 4517 h 10"/>
<path d=" M 129 4517 h 10"/>
<path d=" M 631 4517 h 10"/>
</g>
<g class="sequence">
<path d=" M 10 4581 a 5 5 0 0 1 5 -5 a 5 5 0 0 1 5 5 a 5 5 0 0 1 -5 5 a 5 5 0 0 1 -5 -5 m 10 0 h 5"/>
<text class="comment" id="Namepath" x="68" y="4586">
Namepath</text>
<g class="sequence">
<a class="link" xlink:href="#Identifier">
<g class="symbol">
<rect height="22" width="100" x="111" y="4570"/>
<text x="161" y="4586">
Identifier</text>
</g>
</a>
<g class="repeat">
<path d=" M 221 4581 h 12 m 334 0 h 12 m -12 0 a 12 12 0 0 1 12 12 v 7 a 12 12 0 0 1 -12 12 m -52 0 h -282 m 144 0 l 5 -5 m 0 10 l -5 -5 m -144 0 a 12 12 0 0 1 -12 -12 v -7 a 12 12 0 0 1 12 -12"/>
<text class="comment" x="541" y="4617">
[0, ∞]</text>
<g class="sequence">
<g class="character">
<rect height="22" rx="10" ry="10" width="76" x="233" y="4570"/>
<text x="271" y="4586">
IGNORED</text>
</g>
<g class="string">
<rect height="22" rx="10" ry="10" width="52" x="319" y="4570"/>
<text x="345" y="4586">
∷|::</text>
</g>
<g class="character">
<rect height="22" rx="10" ry="10" width="76" x="381" y="4570"/>
<text x="419" y="4586">
IGNORED</text>
</g>
<a class="link" xlink:href="#Identifier">
<g class="symbol">
<rect height="22" width="100" x="467" y="4570"/>
<text x="517" y="4586">
Identifier</text>
</g>
</a>
<path d=" M 309 4581 h 10"/>
<path d=" M 371 4581 h 10"/>
<path d=" M 457 4581 h 10"/>
</g>
</g>
<path d=" M 211 4581 h 10"/>
</g>
<path d=" M 589 4581 h 5 a 5 5 0 0 1 5 -5 a 5 5 0 0 1 5 5 a 5 5 0 0 1 -5 5 a 5 5 0 0 1 -5 -5"/>
<path d=" M 25 4581 h 10"/>
<path d=" M 101 4581 h 10"/>
<path d=" M 579 4581 h 10"/>
</g>
<g class="sequence">
<path d=" M 10 4645 a 5 5 0 0 1 5 -5 a 5 5 0 0 1 5 5 a 5 5 0 0 1 -5 5 a 5 5 0 0 1 -5 -5 m 10 0 h 5"/>
<text class="comment" id="Identifier" x="75" y="4650">
Identifier</text>
<g class="choice">
<path d=" M 125 4645 h 24 m 132 0 h 24"/>
<a class="link" xlink:href="#IdentifierBare">
<g class="symbol">
<rect height="22" width="132" x="149" y="4634"/>
<text x="215" y="4650">
IdentifierBare</text>
</g>
</a>
<path d=" M 125 4645 a 12 12 0 0 1 12 12 v 9 m 156 0 v -9 a 12 12 0 0 1 12 -12"/>
<path d=" M 137 4666 v 0 a 12 12 0 0 0 12 12 m 124 0 h 8 a 12 12 0 0 0 12 -12 v 0"/>
<a class="link" xlink:href="#IdentifierRaw">
<g class="symbol">
<rect height="22" width="124" x="149" y="4667"/>
<text x="211" y="4683">
IdentifierRaw</text>
</g>
</a>
</g>
<path d=" M 315 4645 h 5 a 5 5 0 0 1 5 -5 a 5 5 0 0 1 5 5 a 5 5 0 0 1 -5 5 a 5 5 0 0 1 -5 -5"/>
<path d=" M 25 4645 h 10"/>
<path d=" M 115 4645 h 10"/>
<path d=" M 305 4645 h 10"/>
</g>
<g class="sequence">
<path d=" M 10 4712 a 5 5 0 0 1 5 -5 a 5 5 0 0 1 5 5 a 5 5 0 0 1 -5 5 a 5 5 0 0 1 -5 -5 m 10 0 h 5"/>
<text class="comment" id="IdentifierBare" x="89" y="4717">
IdentifierBare</text>
<g class="string">
<rect height="22" rx="10" ry="10" width="292" x="153" y="4701"/>
<text x="299" y="4717">
[_\p{XID_start}]\p{XID_continue}*</text>
</g>
<path d=" M 455 4712 h 5 a 5 5 0 0 1 5 -5 a 5 5 0 0 1 5 5 a 5 5 0 0 1 -5 5 a 5 5 0 0 1 -5 -5"/>
<path d=" M 25 4712 h 10"/>
<path d=" M 143 4712 h 10"/>
<path d=" M 445 4712 h 10"/>
</g>
<g class="sequence">
<path d=" M 10 4746 a 5 5 0 0 1 5 -5 a 5 5 0 0 1 5 5 a 5 5 0 0 1 -5 5 a 5 5 0 0 1 -5 -5 m 10 0 h 5"/>
<text class="comment" id="IdentifierRaw" x="85" y="4751">
IdentifierRaw</text>
<g class="sequence">
<g class="string">
<rect height="22" rx="10" ry="10" width="28" x="146" y="4735"/>
<text x="160" y="4751">
`</text>
</g>
<a class="link" xlink:href="#IdentifierRawText">
<g class="symbol">
<rect height="22" width="156" x="184" y="4735"/>
<text x="262" y="4751">
IdentifierRawText</text>
</g>
</a>
<g class="string">
<rect height="22" rx="10" ry="10" width="28" x="350" y="4735"/>
<text x="364" y="4751">
`</text>
</g>
<path d=" M 174 4746 h 10"/>
<path d=" M 340 4746 h 10"/>
</g>
<path d=" M 388 4746 h 5 a 5 5 0 0 1 5 -5 a 5 5 0 0 1 5 5 a 5 5 0 0 1 -5 5 a 5 5 0 0 1 -5 -5"/>
<path d=" M 25 4746 h 10"/>
<path d=" M 136 4746 h 10"/>
<path d=" M 378 4746 h 10"/>
</g>
<g class="sequence">
<path d=" M 10 4780 a 5 5 0 0 1 5 -5 a 5 5 0 0 1 5 5 a 5 5 0 0 1 -5 5 a 5 5 0 0 1 -5 -5 m 10 0 h 5"/>
<text class="comment" id="IdentifierRawText" x="99" y="4785">
IdentifierRawText</text>
<g class="repeat">
<path d=" M 174 4780 h 12 m 138 0 h 12 m -12 0 a 12 12 0 0 1 12 12 v 7 a 12 12 0 0 1 -12 12 m -52 0 h -86 m 46 0 l 5 -5 m 0 10 l -5 -5 m -46 0 a 12 12 0 0 1 -12 -12 v -7 a 12 12 0 0 1 12 -12"/>
<text class="comment" x="298" y="4816">
[1, ∞]</text>
<g class="sequence">
<g class="character">
<rect height="22" rx="10" ry="10" width="76" x="186" y="4769"/>
<text x="224" y="4785">
IGNORED</text>
</g>
<g class="string">
<rect height="22" rx="10" ry="10" width="52" x="272" y="4769"/>
<text x="298" y="4785">
[^`]</text>
</g>
<path d=" M 262 4780 h 10"/>
</g>
</g>
<path d=" M 346 4780 h 5 a 5 5 0 0 1 5 -5 a 5 5 0 0 1 5 5 a 5 5 0 0 1 -5 5 a 5 5 0 0 1 -5 -5"/>
<path d=" M 25 4780 h 10"/>
<path d=" M 164 4780 h 10"/>
<path d=" M 336 4780 h 10"/>
</g>
<g class="sequence">
<path d=" M 10 4844 a 5 5 0 0 1 5 -5 a 5 5 0 0 1 5 5 a 5 5 0 0 1 -5 5 a 5 5 0 0 1 -5 -5 m 10 0 h 5"/>
<text class="comment" id="Boolean" x="64" y="4849">
Boolean</text>
<g class="choice">
<path d=" M 104 4844 h 24 m 52 0 h 32"/>
<g class="string">
<rect height="22" rx="10" ry="10" width="52" x="128" y="4833"/>
<text x="154" y="4849">
true</text>
</g>
<path d=" M 104 4844 a 12 12 0 0 1 12 12 v 9 m 84 0 v -9 a 12 12 0 0 1 12 -12"/>
<path d=" M 116 4865 v 0 a 12 12 0 0 0 12 12 m 60 0 h 0 a 12 12 0 0 0 12 -12 v 0"/>
<g class="string">
<rect height="22" rx="10" ry="10" width="60" x="128" y="4866"/>
<text x="158" y="4882">
false</text>
</g>
</g>
<path d=" M 222 4844 h 5 a 5 5 0 0 1 5 -5 a 5 5 0 0 1 5 5 a 5 5 0 0 1 -5 5 a 5 5 0 0 1 -5 -5"/>
<path d=" M 25 4844 h 10"/>
<path d=" M 94 4844 h 10"/>
<path d=" M 212 4844 h 10"/>
</g>
<g class="sequence">
<path d=" M 10 4911 a 5 5 0 0 1 5 -5 a 5 5 0 0 1 5 5 a 5 5 0 0 1 -5 5 a 5 5 0 0 1 -5 -5 m 10 0 h 5"/>
<text class="comment" id="Integer" x="64" y="4916">
Integer</text>
<g class="string">
<rect height="22" rx="10" ry="10" width="124" x="104" y="4900"/>
<text x="166" y="4916">
0|[1-9][0-9]*</text>
</g>
<path d=" M 238 4911 h 5 a 5 5 0 0 1 5 -5 a 5 5 0 0 1 5 5 a 5 5 0 0 1 -5 5 a 5 5 0 0 1 -5 -5"/>
<path d=" M 25 4911 h 10"/>
<path d=" M 94 4911 h 10"/>
<path d=" M 228 4911 h 10"/>
</g>
<g class="sequence">
<path d=" M 10 4945 a 5 5 0 0 1 5 -5 a 5 5 0 0 1 5 5 a 5 5 0 0 1 -5 5 a 5 5 0 0 1 -5 -5 m 10 0 h 5"/>
<text class="comment" id="RangeExact" x="75" y="4950">
RangeExact</text>
<g class="sequence">
<g class="string">
<rect height="22" rx="10" ry="10" width="28" x="125" y="4934"/>
<text x="139" y="4950">
{</text>
</g>
<g class="character">
<rect height="22" rx="10" ry="10" width="76" x="163" y="4934"/>
<text x="201" y="4950">
IGNORED</text>
</g>
<a class="link" xlink:href="#Integer">
<g class="symbol">
<rect height="22" width="76" x="249" y="4934"/>
<text x="287" y="4950">
Integer</text>
</g>
</a>
<g class="character">
<rect height="22" rx="10" ry="10" width="76" x="335" y="4934"/>
<text x="373" y="4950">
IGNORED</text>
</g>
<g class="string">
<rect height="22" rx="10" ry="10" width="28" x="421" y="4934"/>
<text x="435" y="4950">
}</text>
</g>
<path d=" M 153 4945 h 10"/>
<path d=" M 239 4945 h 10"/>
<path d=" M 325 4945 h 10"/>
<path d=" M 411 4945 h 10"/>
</g>
<path d=" M 459 4945 h 5 a 5 5 0 0 1 5 -5 a 5 5 0 0 1 5 5 a 5 5 0 0 1 -5 5 a 5 5 0 0 1 -5 -5"/>
<path d=" M 25 4945 h 10"/>
<path d=" M 115 4945 h 10"/>
<path d=" M 449 4945 h 10"/>
</g>
<g class="sequence">
<path d=" M 10 4992 a 5 5 0 0 1 5 -5 a 5 5 0 0 1 5 5 a 5 5 0 0 1 -5 5 a 5 5 0 0 1 -5 -5 m 10 0 h 5"/>
<text class="comment" id="Range" x="57" y="4997">
Range</text>
<g class="sequence">
<g class="string">
<rect height="22" rx="10" ry="10" width="28" x="90" y="4981"/>
<text x="104" y="4997">
{</text>
</g>
<g class="character">
<rect height="22" rx="10" ry="10" width="76" x="128" y="4981"/>
<text x="166" y="4997">
IGNORED</text>
</g>
<g class="optional">
<path d=" M 214 4992 h 24 m -24 0 a 12 12 0 0 0 12 -12 v 0 a 12 12 0 0 1 12 -12 h 76 m -35 0 l -5 -5 m 0 10 l 5 -5 m 35 0 a 12 12 0 0 1 12 12 v 0 a 12 12 0 0 0 12 12 h -24"/>
<a class="link" xlink:href="#Integer">
<g class="symbol">
<rect height="22" width="76" x="238" y="4981"/>
<text x="276" y="4997">
Integer</text>
</g>
</a>
</g>
<g class="character">
<rect height="22" rx="10" ry="10" width="76" x="348" y="4981"/>
<text x="386" y="4997">
IGNORED</text>
</g>
<g class="string">
<rect height="22" rx="10" ry="10" width="28" x="434" y="4981"/>
<text x="448" y="4997">
,</text>
</g>
<g class="character">
<rect height="22" rx="10" ry="10" width="76" x="472" y="4981"/>
<text x="510" y="4997">
IGNORED</text>
</g>
<g class="optional">
<path d=" M 558 4992 h 24 m -24 0 a 12 12 0 0 0 12 -12 v 0 a 12 12 0 0 1 12 -12 h 76 m -35 0 l -5 -5 m 0 10 l 5 -5 m 35 0 a 12 12 0 0 1 12 12 v 0 a 12 12 0 0 0 12 12 h -24"/>
<a class="link" xlink:href="#Integer">
<g class="symbol">
<rect height="22" width="76" x="582" y="4981"/>
<text x="620" y="4997">
Integer</text>
</g>
</a>
</g>
<g class="character">
<rect height="22" rx="10" ry="10" width="76" x="692" y="4981"/>
<text x="730" y="4997">
IGNORED</text>
</g>
<g class="string">
<rect height="22" rx="10" ry="10" width="28" x="778" y="4981"/>
<text x="792" y="4997">
}</text>
</g>
<path d=" M 118 4992 h 10"/>
<path d=" M 204 4992 h 10"/>
<path d=" M 338 4992 h 10"/>
<path d=" M 424 4992 h 10"/>
<path d=" M 462 4992 h 10"/>
<path d=" M 548 4992 h 10"/>
<path d=" M 682 4992 h 10"/>
<path d=" M 768 4992 h 10"/>
</g>
<path d=" M 816 4992 h 5 a 5 5 0 0 1 5 -5 a 5 5 0 0 1 5 5 a 5 5 0 0 1 -5 5 a 5 5 0 0 1 -5 -5"/>
<path d=" M 25 4992 h 10"/>
<path d=" M 80 4992 h 10"/>
<path d=" M 806 4992 h 10"/>
</g>
<g class="sequence">
<path d=" M 10 5026 a 5 5 0 0 1 5 -5 a 5 5 0 0 1 5 5 a 5 5 0 0 1 -5 5 a 5 5 0 0 1 -5 -5 m 10 0 h 5"/>
<text class="comment" id="ModifierCall" x="82" y="5031">
ModifierCall</text>
<g class="sequence">
<g class="choice">
<path d=" M 139 5026 h 24 m 84 0 h 24"/>
<a class="link" xlink:href="#KW_CLASS">
<g class="symbol">
<rect height="22" width="84" x="163" y="5015"/>
<text x="205" y="5031">
KW_CLASS</text>
</g>
</a>
<path d=" M 139 5026 a 12 12 0 0 1 12 12 v 9 m 108 0 v -9 a 12 12 0 0 1 12 -12"/>
<path d=" M 151 5047 v 33 m 108 0 v -33"/>
<path d=" M 151 5047 v 0 a 12 12 0 0 0 12 12 m 84 0 h 0 a 12 12 0 0 0 12 -12 v 0"/>
<a class="link" xlink:href="#KW_UNION">
<g class="symbol">
<rect height="22" width="84" x="163" y="5048"/>
<text x="205" y="5064">
KW_UNION</text>
</g>
</a>
<path d=" M 151 5080 v 0 a 12 12 0 0 0 12 12 m 84 0 h 0 a 12 12 0 0 0 12 -12 v 0"/>
<a class="link" xlink:href="#KW_TRAIT">
<g class="symbol">
<rect height="22" width="84" x="163" y="5081"/>
<text x="205" y="5097">
KW_TRAIT</text>
</g>
</a>
</g>
<a class="link" xlink:href="#Identifier">
<g class="symbol">
<rect height="22" width="100" x="281" y="5015"/>
<text x="331" y="5031">
Identifier</text>
</g>
</a>
<path d=" M 271 5026 h 10"/>
</g>
<path d=" M 391 5026 h 5 a 5 5 0 0 1 5 -5 a 5 5 0 0 1 5 5 a 5 5 0 0 1 -5 5 a 5 5 0 0 1 -5 -5"/>
<path d=" M 25 5026 h 10"/>
<path d=" M 129 5026 h 10"/>
<path d=" M 381 5026 h 10"/>
</g>
<g class="sequence">
<path d=" M 10 5126 a 5 5 0 0 1 5 -5 a 5 5 0 0 1 5 5 a 5 5 0 0 1 -5 5 a 5 5 0 0 1 -5 -5 m 10 0 h 5"/>
<text class="comment" id="COMMA" x="57" y="5131">
COMMA</text>
<g class="string">
<rect height="22" rx="10" ry="10" width="60" x="90" y="5115"/>
<text x="120" y="5131">
[,，]</text>
</g>
<path d=" M 160 5126 h 5 a 5 5 0 0 1 5 -5 a 5 5 0 0 1 5 5 a 5 5 0 0 1 -5 5 a 5 5 0 0 1 -5 -5"/>
<path d=" M 25 5126 h 10"/>
<path d=" M 80 5126 h 10"/>
<path d=" M 150 5126 h 10"/>
</g>
<g class="sequence">
<path d=" M 10 5160 a 5 5 0 0 1 5 -5 a 5 5 0 0 1 5 5 a 5 5 0 0 1 -5 5 a 5 5 0 0 1 -5 -5 m 10 0 h 5"/>
<text class="comment" id="OP_IMPORT_ALL" x="85" y="5165">
OP_IMPORT_ALL</text>
<g class="string">
<rect height="22" rx="10" ry="10" width="28" x="146" y="5149"/>
<text x="160" y="5165">
*</text>
</g>
<path d=" M 184 5160 h 5 a 5 5 0 0 1 5 -5 a 5 5 0 0 1 5 5 a 5 5 0 0 1 -5 5 a 5 5 0 0 1 -5 -5"/>
<path d=" M 25 5160 h 10"/>
<path d=" M 136 5160 h 10"/>
<path d=" M 174 5160 h 10"/>
</g>
<g class="sequence">
<path d=" M 10 5194 a 5 5 0 0 1 5 -5 a 5 5 0 0 1 5 5 a 5 5 0 0 1 -5 5 a 5 5 0 0 1 -5 -5 m 10 0 h 5"/>
<text class="comment" id="OP_BIND" x="64" y="5199">
OP_BIND</text>
<g class="string">
<rect height="22" rx="10" ry="10" width="52" x="104" y="5183"/>
<text x="130" y="5199">
≔|:=</text>
</g>
<path d=" M 166 5194 h 5 a 5 5 0 0 1 5 -5 a 5 5 0 0 1 5 5 a 5 5 0 0 1 -5 5 a 5 5 0 0 1 -5 -5"/>
<path d=" M 25 5194 h 10"/>
<path d=" M 94 5194 h 10"/>
<path d=" M 156 5194 h 10"/>
</g>
<g class="sequence">
<path d=" M 10 5228 a 5 5 0 0 1 5 -5 a 5 5 0 0 1 5 5 a 5 5 0 0 1 -5 5 a 5 5 0 0 1 -5 -5 m 10 0 h 5"/>
<text class="comment" id="KW_NAMESPACE" x="82" y="5233">
KW_NAMESPACE</text>
<g class="string">
<rect height="22" rx="10" ry="10" width="92" x="139" y="5217"/>
<text x="185" y="5233">
namespace</text>
</g>
<path d=" M 241 5228 h 5 a 5 5 0 0 1 5 -5 a 5 5 0 0 1 5 5 a 5 5 0 0 1 -5 5 a 5 5 0 0 1 -5 -5"/>
<path d=" M 25 5228 h 10"/>
<path d=" M 129 5228 h 10"/>
<path d=" M 231 5228 h 10"/>
</g>
<g class="sequence">
<path d=" M 10 5262 a 5 5 0 0 1 5 -5 a 5 5 0 0 1 5 5 a 5 5 0 0 1 -5 5 a 5 5 0 0 1 -5 -5 m 10 0 h 5"/>
<text class="comment" id="KW_IMPORT" x="71" y="5267">
KW_IMPORT</text>
<g class="string">
<rect height="22" rx="10" ry="10" width="60" x="118" y="5251"/>
<text x="148" y="5267">
using</text>
</g>
<path d=" M 188 5262 h 5 a 5 5 0 0 1 5 -5 a 5 5 0 0 1 5 5 a 5 5 0 0 1 -5 5 a 5 5 0 0 1 -5 -5"/>
<path d=" M 25 5262 h 10"/>
<path d=" M 108 5262 h 10"/>
<path d=" M 178 5262 h 10"/>
</g>
<g class="sequence">
<path d=" M 10 5296 a 5 5 0 0 1 5 -5 a 5 5 0 0 1 5 5 a 5 5 0 0 1 -5 5 a 5 5 0 0 1 -5 -5 m 10 0 h 5"/>
<text class="comment" id="KW_TEMPLATE" x="78" y="5301">
KW_TEMPLATE</text>
<g class="string">
<rect height="22" rx="10" ry="10" width="148" x="132" y="5285"/>
<text x="206" y="5301">
template|generic</text>
</g>
<path d=" M 290 5296 h 5 a 5 5 0 0 1 5 -5 a 5 5 0 0 1 5 5 a 5 5 0 0 1 -5 5 a 5 5 0 0 1 -5 -5"/>
<path d=" M 25 5296 h 10"/>
<path d=" M 122 5296 h 10"/>
<path d=" M 280 5296 h 10"/>
</g>
<g class="sequence">
<path d=" M 10 5330 a 5 5 0 0 1 5 -5 a 5 5 0 0 1 5 5 a 5 5 0 0 1 -5 5 a 5 5 0 0 1 -5 -5 m 10 0 h 5"/>
<text class="comment" id="KW_WHERE" x="68" y="5335">
KW_WHERE</text>
<g class="string">
<rect height="22" rx="10" ry="10" width="60" x="111" y="5319"/>
<text x="141" y="5335">
where</text>
</g>
<path d=" M 181 5330 h 5 a 5 5 0 0 1 5 -5 a 5 5 0 0 1 5 5 a 5 5 0 0 1 -5 5 a 5 5 0 0 1 -5 -5"/>
<path d=" M 25 5330 h 10"/>
<path d=" M 101 5330 h 10"/>
<path d=" M 171 5330 h 10"/>
</g>
<g class="sequence">
<path d=" M 10 5364 a 5 5 0 0 1 5 -5 a 5 5 0 0 1 5 5 a 5 5 0 0 1 -5 5 a 5 5 0 0 1 -5 -5 m 10 0 h 5"/>
<text class="comment" id="KW_IMPLEMENTS" x="85" y="5369">
KW_IMPLEMENTS</text>
<g class="string">
<rect height="22" rx="10" ry="10" width="108" x="146" y="5353"/>
<text x="200" y="5369">
implements?</text>
</g>
<path d=" M 264 5364 h 5 a 5 5 0 0 1 5 -5 a 5 5 0 0 1 5 5 a 5 5 0 0 1 -5 5 a 5 5 0 0 1 -5 -5"/>
<path d=" M 25 5364 h 10"/>
<path d=" M 136 5364 h 10"/>
<path d=" M 254 5364 h 10"/>
</g>
<g class="sequence">
<path d=" M 10 5398 a 5 5 0 0 1 5 -5 a 5 5 0 0 1 5 5 a 5 5 0 0 1 -5 5 a 5 5 0 0 1 -5 -5 m 10 0 h 5"/>
<text class="comment" id="KW_EXTENDS" x="75" y="5403">
KW_EXTENDS</text>
<g class="string">
<rect height="22" rx="10" ry="10" width="84" x="125" y="5387"/>
<text x="167" y="5403">
extends?</text>
</g>
<path d=" M 219 5398 h 5 a 5 5 0 0 1 5 -5 a 5 5 0 0 1 5 5 a 5 5 0 0 1 -5 5 a 5 5 0 0 1 -5 -5"/>
<path d=" M 25 5398 h 10"/>
<path d=" M 115 5398 h 10"/>
<path d=" M 209 5398 h 10"/>
</g>
<g class="sequence">
<path d=" M 10 5432 a 5 5 0 0 1 5 -5 a 5 5 0 0 1 5 5 a 5 5 0 0 1 -5 5 a 5 5 0 0 1 -5 -5 m 10 0 h 5"/>
<text class="comment" id="KW_INHERITS" x="78" y="5437">
KW_INHERITS</text>
<g class="string">
<rect height="22" rx="10" ry="10" width="92" x="132" y="5421"/>
<text x="178" y="5437">
inherits?</text>
</g>
<path d=" M 234 5432 h 5 a 5 5 0 0 1 5 -5 a 5 5 0 0 1 5 5 a 5 5 0 0 1 -5 5 a 5 5 0 0 1 -5 -5"/>
<path d=" M 25 5432 h 10"/>
<path d=" M 122 5432 h 10"/>
<path d=" M 224 5432 h 10"/>
</g>
<g class="sequence">
<path d=" M 10 5466 a 5 5 0 0 1 5 -5 a 5 5 0 0 1 5 5 a 5 5 0 0 1 -5 5 a 5 5 0 0 1 -5 -5 m 10 0 h 5"/>
<text class="comment" id="KW_IF" x="57" y="5471">
KW_IF</text>
<g class="string">
<rect height="22" rx="10" ry="10" width="36" x="90" y="5455"/>
<text x="108" y="5471">
if</text>
</g>
<path d=" M 136 5466 h 5 a 5 5 0 0 1 5 -5 a 5 5 0 0 1 5 5 a 5 5 0 0 1 -5 5 a 5 5 0 0 1 -5 -5"/>
<path d=" M 25 5466 h 10"/>
<path d=" M 80 5466 h 10"/>
<path d=" M 126 5466 h 10"/>
</g>
<g class="sequence">
<path d=" M 10 5500 a 5 5 0 0 1 5 -5 a 5 5 0 0 1 5 5 a 5 5 0 0 1 -5 5 a 5 5 0 0 1 -5 -5 m 10 0 h 5"/>
<text class="comment" id="KW_ELSE" x="64" y="5505">
KW_ELSE</text>
<g class="string">
<rect height="22" rx="10" ry="10" width="52" x="104" y="5489"/>
<text x="130" y="5505">
else</text>
</g>
<path d=" M 166 5500 h 5 a 5 5 0 0 1 5 -5 a 5 5 0 0 1 5 5 a 5 5 0 0 1 -5 5 a 5 5 0 0 1 -5 -5"/>
<path d=" M 25 5500 h 10"/>
<path d=" M 94 5500 h 10"/>
<path d=" M 156 5500 h 10"/>
</g>
<g class="sequence">
<path d=" M 10 5534 a 5 5 0 0 1 5 -5 a 5 5 0 0 1 5 5 a 5 5 0 0 1 -5 5 a 5 5 0 0 1 -5 -5 m 10 0 h 5"/>
<text class="comment" id="KW_WHILE" x="68" y="5539">
KW_WHILE</text>
<g class="string">
<rect height="22" rx="10" ry="10" width="60" x="111" y="5523"/>
<text x="141" y="5539">
while</text>
</g>
<path d=" M 181 5534 h 5 a 5 5 0 0 1 5 -5 a 5 5 0 0 1 5 5 a 5 5 0 0 1 -5 5 a 5 5 0 0 1 -5 -5"/>
<path d=" M 25 5534 h 10"/>
<path d=" M 101 5534 h 10"/>
<path d=" M 171 5534 h 10"/>
</g>
<g class="sequence">
<path d=" M 10 5568 a 5 5 0 0 1 5 -5 a 5 5 0 0 1 5 5 a 5 5 0 0 1 -5 5 a 5 5 0 0 1 -5 -5 m 10 0 h 5"/>
<text class="comment" id="KW_FOR" x="61" y="5573">
KW_FOR</text>
<g class="string">
<rect height="22" rx="10" ry="10" width="44" x="97" y="5557"/>
<text x="119" y="5573">
for</text>
</g>
<path d=" M 151 5568 h 5 a 5 5 0 0 1 5 -5 a 5 5 0 0 1 5 5 a 5 5 0 0 1 -5 5 a 5 5 0 0 1 -5 -5"/>
<path d=" M 25 5568 h 10"/>
<path d=" M 87 5568 h 10"/>
<path d=" M 141 5568 h 10"/>
</g>
<g class="sequence">
<path d=" M 10 5602 a 5 5 0 0 1 5 -5 a 5 5 0 0 1 5 5 a 5 5 0 0 1 -5 5 a 5 5 0 0 1 -5 -5 m 10 0 h 5"/>
<text class="comment" id="KW_RETURN" x="71" y="5607">
KW_RETURN</text>
<g class="string">
<rect height="22" rx="10" ry="10" width="68" x="118" y="5591"/>
<text x="152" y="5607">
return</text>
</g>
<path d=" M 196 5602 h 5 a 5 5 0 0 1 5 -5 a 5 5 0 0 1 5 5 a 5 5 0 0 1 -5 5 a 5 5 0 0 1 -5 -5"/>
<path d=" M 25 5602 h 10"/>
<path d=" M 108 5602 h 10"/>
<path d=" M 186 5602 h 10"/>
</g>
<g class="sequence">
<path d=" M 10 5636 a 5 5 0 0 1 5 -5 a 5 5 0 0 1 5 5 a 5 5 0 0 1 -5 5 a 5 5 0 0 1 -5 -5 m 10 0 h 5"/>
<text class="comment" id="KW_BREAK" x="68" y="5641">
KW_BREAK</text>
<g class="string">
<rect height="22" rx="10" ry="10" width="60" x="111" y="5625"/>
<text x="141" y="5641">
break</text>
</g>
<path d=" M 181 5636 h 5 a 5 5 0 0 1 5 -5 a 5 5 0 0 1 5 5 a 5 5 0 0 1 -5 5 a 5 5 0 0 1 -5 -5"/>
<path d=" M 25 5636 h 10"/>
<path d=" M 101 5636 h 10"/>
<path d=" M 171 5636 h 10"/>
</g>
<g class="sequence">
<path d=" M 10 5670 a 5 5 0 0 1 5 -5 a 5 5 0 0 1 5 5 a 5 5 0 0 1 -5 5 a 5 5 0 0 1 -5 -5 m 10 0 h 5"/>
<text class="comment" id="KW_CONTINUE" x="78" y="5675">
KW_CONTINUE</text>
<g class="string">
<rect height="22" rx="10" ry="10" width="84" x="132" y="5659"/>
<text x="174" y="5675">
continue</text>
</g>
<path d=" M 226 5670 h 5 a 5 5 0 0 1 5 -5 a 5 5 0 0 1 5 5 a 5 5 0 0 1 -5 5 a 5 5 0 0 1 -5 -5"/>
<path d=" M 25 5670 h 10"/>
<path d=" M 122 5670 h 10"/>
<path d=" M 216 5670 h 10"/>
</g>
<g class="sequence">
<path d=" M 10 5704 a 5 5 0 0 1 5 -5 a 5 5 0 0 1 5 5 a 5 5 0 0 1 -5 5 a 5 5 0 0 1 -5 -5 m 10 0 h 5"/>
<text class="comment" id="KW_AS" x="57" y="5709">
KW_AS</text>
<g class="string">
<rect height="22" rx="10" ry="10" width="36" x="90" y="5693"/>
<text x="108" y="5709">
as</text>
</g>
<path d=" M 136 5704 h 5 a 5 5 0 0 1 5 -5 a 5 5 0 0 1 5 5 a 5 5 0 0 1 -5 5 a 5 5 0 0 1 -5 -5"/>
<path d=" M 25 5704 h 10"/>
<path d=" M 80 5704 h 10"/>
<path d=" M 126 5704 h 10"/>
</g>
<g class="sequence">
<path d=" M 10 5738 a 5 5 0 0 1 5 -5 a 5 5 0 0 1 5 5 a 5 5 0 0 1 -5 5 a 5 5 0 0 1 -5 -5 m 10 0 h 5"/>
<text class="comment" id="KW_IN" x="57" y="5743">
KW_IN</text>
<g class="string">
<rect height="22" rx="10" ry="10" width="36" x="90" y="5727"/>
<text x="108" y="5743">
in</text>
</g>
<path d=" M 136 5738 h 5 a 5 5 0 0 1 5 -5 a 5 5 0 0 1 5 5 a 5 5 0 0 1 -5 5 a 5 5 0 0 1 -5 -5"/>
<path d=" M 25 5738 h 10"/>
<path d=" M 80 5738 h 10"/>
<path d=" M 126 5738 h 10"/>
</g>
<g class="sequence">
<path d=" M 10 5772 a 5 5 0 0 1 5 -5 a 5 5 0 0 1 5 5 a 5 5 0 0 1 -5 5 a 5 5 0 0 1 -5 -5 m 10 0 h 5"/>
<text class="comment" id="KW_NOT" x="61" y="5777">
KW_NOT</text>
<g class="string">
<rect height="22" rx="10" ry="10" width="44" x="97" y="5761"/>
<text x="119" y="5777">
not</text>
</g>
<path d=" M 151 5772 h 5 a 5 5 0 0 1 5 -5 a 5 5 0 0 1 5 5 a 5 5 0 0 1 -5 5 a 5 5 0 0 1 -5 -5"/>
<path d=" M 25 5772 h 10"/>
<path d=" M 87 5772 h 10"/>
<path d=" M 141 5772 h 10"/>
</g>
<g class="sequence">
<path d=" M 10 5806 a 5 5 0 0 1 5 -5 a 5 5 0 0 1 5 5 a 5 5 0 0 1 -5 5 a 5 5 0 0 1 -5 -5 m 10 0 h 5"/>
<text class="comment" id="WhiteSpace" x="75" y="5811">
WhiteSpace</text>
<g class="string">
<rect height="22" rx="10" ry="10" width="148" x="125" y="5795"/>
<text x="199" y="5811">
\p{White_Space}+</text>
</g>
<path d=" M 283 5806 h 5 a 5 5 0 0 1 5 -5 a 5 5 0 0 1 5 5 a 5 5 0 0 1 -5 5 a 5 5 0 0 1 -5 -5"/>
<path d=" M 25 5806 h 10"/>
<path d=" M 115 5806 h 10"/>
<path d=" M 273 5806 h 10"/>
</g>
<g class="sequence">
<path d=" M 10 5840 a 5 5 0 0 1 5 -5 a 5 5 0 0 1 5 5 a 5 5 0 0 1 -5 5 a 5 5 0 0 1 -5 -5 m 10 0 h 5"/>
<text class="comment" id="Comment" x="64" y="5845">
Comment</text>
<g class="choice">
<path d=" M 104 5840 h 24 m 130 0 h 24"/>
<g class="sequence">
<g class="string">
<rect height="22" rx="10" ry="10" width="36" x="128" y="5829"/>
<text x="146" y="5845">
//</text>
</g>
<g class="string">
<rect height="22" rx="10" ry="10" width="84" x="174" y="5829"/>
<text x="216" y="5845">
[^\n\r]*</text>
</g>
<path d=" M 164 5840 h 10"/>
</g>
<path d=" M 104 5840 a 12 12 0 0 1 12 12 v 9 m 154 0 v -9 a 12 12 0 0 1 12 -12"/>
<path d=" M 116 5861 v 0 a 12 12 0 0 0 12 12 m 82 0 h 48 a 12 12 0 0 0 12 -12 v 0"/>
<g class="sequence">
<g class="string">
<rect height="22" rx="10" ry="10" width="36" x="128" y="5862"/>
<text x="146" y="5878">
/*</text>
</g>
<g class="string">
<rect height="22" rx="10" ry="10" width="36" x="174" y="5862"/>
<text x="192" y="5878">
*/</text>
</g>
<path d=" M 164 5873 h 10"/>
</g>
</g>
<path d=" M 292 5840 h 5 a 5 5 0 0 1 5 -5 a 5 5 0 0 1 5 5 a 5 5 0 0 1 -5 5 a 5 5 0 0 1 -5 -5"/>
<path d=" M 25 5840 h 10"/>
<path d=" M 94 5840 h 10"/>
<path d=" M 282 5840 h 10"/>
</g>
</g>
</svg>