<svg class="railroad" viewBox="0 0 571 388" xmlns="http://www.w3.org/2000/svg" xmlns:xlink="http://www.w3.org/1999/xlink">
<style type="text/css">
svg.railroad {
    background-color: hsl(30, 20%, 95%);
    background-size: 15px 15px;
    background-image: linear-gradient(to right, rgba(30, 30, 30, .05) 1px, transparent 1px),
    linear-gradient(to bottom, rgba(30, 30, 30, .05) 1px, transparent 1px);
}

svg.railroad path {
    stroke-width: 3px;
    stroke: black;
    fill: transparent;
}

svg.railroad .debug {
    stroke-width: 1px;
    stroke: red;
}

svg.railroad text {
    font-size: 14px;
    font-family: monospace;
    text-anchor: middle;
}

svg.railroad .nonterminal text {
    font-weight: bold;
}

svg.railroad text.comment {
    font-family: serif;
    font-style: italic;
    font-size: 12px;
}

svg.railroad rect {
    stroke-width: 3px;
    stroke: black;
}

svg.railroad g.labeledbox > rect {
    stroke-width: 1px;
    stroke: grey;
    stroke-dasharray: 5px;
    fill: rgba(90, 90, 150, .1);
}

svg.railroad .symbol > rect {
    fill: rgba(90, 90, 150, .1);
}

svg.railroad .regex > rect {
    fill: honeydew;
}

svg.railroad .string > rect {
    fill: cornsilk;
}

svg.railroad .character > rect {
    fill: lightcoral;
}
</style>
<g class="verticalgrid">
<g class="sequence">
<path d=" M 10 21 a 5 5 0 0 1 5 -5 a 5 5 0 0 1 5 5 a 5 5 0 0 1 -5 5 a 5 5 0 0 1 -5 -5 m 10 0 h 5"/>
<text class="comment" id="Program" x="64" y="26">
Program</text>
<g class="repeat">
<path d=" M 104 21 h 12 m 178 0 h 12 m -12 0 a 12 12 0 0 1 12 12 v 7 a 12 12 0 0 1 -12 12 m -52 0 h -126 m 66 0 l 5 -5 m 0 10 l -5 -5 m -66 0 a 12 12 0 0 1 -12 -12 v -7 a 12 12 0 0 1 12 -12"/>
<text class="comment" x="268" y="57">
[0, ∞]</text>
<g class="sequence">
<g class="character">
<rect height="22" rx="10" ry="10" width="76" x="116" y="10"/>
<text x="154" y="26">
IGNORED</text>
</g>
<a class="link" xlink:href="#Statement">
<g class="symbol">
<rect height="22" width="92" x="202" y="10"/>
<text x="248" y="26">
Statement</text>
</g>
</a>
<path d=" M 192 21 h 10"/>
</g>
</g>
<path d=" M 316 21 h 5 a 5 5 0 0 1 5 -5 a 5 5 0 0 1 5 5 a 5 5 0 0 1 -5 5 a 5 5 0 0 1 -5 -5"/>
<path d=" M 25 21 h 10"/>
<path d=" M 94 21 h 10"/>
<path d=" M 306 21 h 10"/>
</g>
<g class="sequence">
<path d=" M 10 85 a 5 5 0 0 1 5 -5 a 5 5 0 0 1 5 5 a 5 5 0 0 1 -5 5 a 5 5 0 0 1 -5 -5 m 10 0 h 5"/>
<text class="comment" id="Statement" x="71" y="90">
Statement</text>
<g class="choice">
<path d=" M 118 85 h 0 m 140 0 h 0"/>
<a class="link" xlink:href="#DefineNamespace">
<g class="symbol">
<rect height="22" width="140" x="118" y="74"/>
<text x="188" y="90">
DefineNamespace</text>
</g>
</a>
</g>
<path d=" M 268 85 h 5 a 5 5 0 0 1 5 -5 a 5 5 0 0 1 5 5 a 5 5 0 0 1 -5 5 a 5 5 0 0 1 -5 -5"/>
<path d=" M 25 85 h 10"/>
<path d=" M 108 85 h 10"/>
<path d=" M 258 85 h 10"/>
</g>
<g class="sequence">
<path d=" M 10 119 a 5 5 0 0 1 5 -5 a 5 5 0 0 1 5 5 a 5 5 0 0 1 -5 5 a 5 5 0 0 1 -5 -5 m 10 0 h 5"/>
<text class="comment" id="EOS" x="50" y="124">
EOS</text>
<g class="choice">
<path d=" M 76 119 h 24 m 60 0 h 24"/>
<g class="string">
<rect height="22" rx="10" ry="10" width="60" x="100" y="108"/>
<text x="130" y="124">
[;；]</text>
</g>
<path d=" M 76 119 a 12 12 0 0 1 12 12 v 9 m 84 0 v -9 a 12 12 0 0 1 12 -12"/>
<path d=" M 88 140 v 0 a 12 12 0 0 0 12 12 m 52 0 h 8 a 12 12 0 0 0 12 -12 v 0"/>
<g class="string">
<rect height="22" rx="10" ry="10" width="52" x="100" y="141"/>
<text x="126" y="157">
⁏|;;</text>
</g>
</g>
<path d=" M 194 119 h 5 a 5 5 0 0 1 5 -5 a 5 5 0 0 1 5 5 a 5 5 0 0 1 -5 5 a 5 5 0 0 1 -5 -5"/>
<path d=" M 25 119 h 10"/>
<path d=" M 66 119 h 10"/>
<path d=" M 184 119 h 10"/>
</g>
<g class="sequence">
<path d=" M 10 186 a 5 5 0 0 1 5 -5 a 5 5 0 0 1 5 5 a 5 5 0 0 1 -5 5 a 5 5 0 0 1 -5 -5 m 10 0 h 5"/>
<text class="comment" id="EOS_FREE" x="68" y="191">
EOS_FREE</text>
<g class="string">
<rect height="22" rx="10" ry="10" width="92" x="111" y="175"/>
<text x="157" y="191">
[,，;；⁏]</text>
</g>
<path d=" M 213 186 h 5 a 5 5 0 0 1 5 -5 a 5 5 0 0 1 5 5 a 5 5 0 0 1 -5 5 a 5 5 0 0 1 -5 -5"/>
<path d=" M 25 186 h 10"/>
<path d=" M 101 186 h 10"/>
<path d=" M 203 186 h 10"/>
</g>
<g class="sequence">
<path d=" M 10 233 a 5 5 0 0 1 5 -5 a 5 5 0 0 1 5 5 a 5 5 0 0 1 -5 5 a 5 5 0 0 1 -5 -5 m 10 0 h 5"/>
<text class="comment" id="DefineNamespace" x="92" y="238">
DefineNamespace</text>
<g class="sequence">
<a class="link" xlink:href="#KW_NAMESPACE">
<g class="symbol">
<rect height="22" width="116" x="160" y="222"/>
<text x="218" y="238">
KW_NAMESPACE</text>
</g>
</a>
<g class="character">
<rect height="22" rx="10" ry="10" width="76" x="286" y="222"/>
<text x="324" y="238">
IGNORED</text>
</g>
<g class="optional">
<path d=" M 372 233 h 24 m -24 0 a 12 12 0 0 0 12 -12 v 0 a 12 12 0 0 1 12 -12 h 116 m -55 0 l -5 -5 m 0 10 l 5 -5 m 55 0 a 12 12 0 0 1 12 12 v 0 a 12 12 0 0 0 12 12 h -24"/>
<a class="link" xlink:href="#OP_NAMESPACE">
<g class="symbol">
<rect height="22" width="116" x="396" y="222"/>
<text x="454" y="238">
OP_NAMESPACE</text>
</g>
</a>
</g>
<path d=" M 276 233 h 10"/>
<path d=" M 362 233 h 10"/>
</g>
<path d=" M 546 233 h 5 a 5 5 0 0 1 5 -5 a 5 5 0 0 1 5 5 a 5 5 0 0 1 -5 5 a 5 5 0 0 1 -5 -5"/>
<path d=" M 25 233 h 10"/>
<path d=" M 150 233 h 10"/>
<path d=" M 536 233 h 10"/>
</g>
<g class="sequence">
<path d=" M 10 267 a 5 5 0 0 1 5 -5 a 5 5 0 0 1 5 5 a 5 5 0 0 1 -5 5 a 5 5 0 0 1 -5 -5 m 10 0 h 5"/>
<text class="comment" id="OP_NAMESPACE" x="82" y="272">
OP_NAMESPACE</text>
<g class="choice">
<path d=" M 139 267 h 24 m 28 0 h 24"/>
<g class="string">
<rect height="22" rx="10" ry="10" width="28" x="163" y="256"/>
<text x="177" y="272">
!</text>
</g>
<path d=" M 139 267 a 12 12 0 0 1 12 12 v 9 m 52 0 v -9 a 12 12 0 0 1 12 -12"/>
<path d=" M 151 288 v 33 m 52 0 v -33"/>
<path d=" M 151 288 v 0 a 12 12 0 0 0 12 12 m 28 0 h 0 a 12 12 0 0 0 12 -12 v 0"/>
<g class="string">
<rect height="22" rx="10" ry="10" width="28" x="163" y="289"/>
<text x="177" y="305">
?</text>
</g>
<path d=" M 151 321 v 0 a 12 12 0 0 0 12 12 m 28 0 h 0 a 12 12 0 0 0 12 -12 v 0"/>
<g class="string">
<rect height="22" rx="10" ry="10" width="28" x="163" y="322"/>
<text x="177" y="338">
*</text>
</g>
</g>
<path d=" M 225 267 h 5 a 5 5 0 0 1 5 -5 a 5 5 0 0 1 5 5 a 5 5 0 0 1 -5 5 a 5 5 0 0 1 -5 -5"/>
<path d=" M 25 267 h 10"/>
<path d=" M 129 267 h 10"/>
<path d=" M 215 267 h 10"/>
</g>
<g class="sequence">
<path d=" M 10 367 a 5 5 0 0 1 5 -5 a 5 5 0 0 1 5 5 a 5 5 0 0 1 -5 5 a 5 5 0 0 1 -5 -5 m 10 0 h 5"/>
<text class="comment" id="KW_NAMESPACE" x="82" y="372">
KW_NAMESPACE</text>
<g class="string">
<rect height="22" rx="10" ry="10" width="92" x="139" y="356"/>
<text x="185" y="372">
namespace</text>
</g>
<path d=" M 241 367 h 5 a 5 5 0 0 1 5 -5 a 5 5 0 0 1 5 5 a 5 5 0 0 1 -5 5 a 5 5 0 0 1 -5 -5"/>
<path d=" M 25 367 h 10"/>
<path d=" M 129 367 h 10"/>
<path d=" M 231 367 h 10"/>
</g>
</g>
</svg>
