<svg class="railroad" viewBox="0 0 1083 1935" xmlns="http://www.w3.org/2000/svg" xmlns:xlink="http://www.w3.org/1999/xlink">
<style type="text/css">svg.railroad{background-color:hsl(30,20%,95%);background-size:15px 15px;background-image:linear-gradient(to right,rgba(30,30,30,.05) 1px,transparent 1px),linear-gradient(to bottom,rgba(30,30,30,.05) 1px,transparent 1px);}svg.railroad path{stroke-width:3px;stroke:black;fill:transparent;}svg.railroad .debug{stroke-width:1px;stroke:red;}svg.railroad text{font-size:14px;font-family:monospace;text-anchor:middle;}svg.railroad .nonterminal text{font-weight:bold;}svg.railroad text.comment{font-family:serif;font-style:italic;font-size:12px;}svg.railroad rect{stroke-width:3px;stroke:black;}svg.railroad g.labeledbox>rect{stroke-width:1px;stroke:grey;stroke-dasharray:5px;fill:rgba(90,90,150,.1);}svg.railroad .symbol>rect{fill:rgba(90,90,150,.1);}svg.railroad .regex>rect{fill:honeydew;}svg.railroad .string>rect{fill:cornsilk;}svg.railroad .character>rect{fill:lightcoral;}</style>
<g class="verticalgrid">
<g class="sequence">
<path d=" M 10 21 a 5 5 0 0 1 5 -5 a 5 5 0 0 1 5 5 a 5 5 0 0 1 -5 5 a 5 5 0 0 1 -5 -5 m 10 0 h 5"/>
<text class="comment" id="Program" x="64" y="26">
Program</text>
<g class="repeat">
<path d=" M 104 21 h 12 m 178 0 h 12 m -12 0 a 12 12 0 0 1 12 12 v 7 a 12 12 0 0 1 -12 12 m -52 0 h -126 m 66 0 l 5 -5 m 0 10 l -5 -5 m -66 0 a 12 12 0 0 1 -12 -12 v -7 a 12 12 0 0 1 12 -12"/>
<text class="comment" x="268" y="57">
[0, ∞]</text>
<g class="sequence">
<g class="character">
<rect height="22" rx="10" ry="10" width="76" x="116" y="10"/>
<text x="154" y="26">
IGNORED</text>
</g>
<a class="link" xlink:href="#Statement">
<g class="symbol">
<rect height="22" width="92" x="202" y="10"/>
<text x="248" y="26">
Statement</text>
</g>
</a>
<path d=" M 192 21 h 10"/>
</g>
</g>
<path d=" M 316 21 h 5 a 5 5 0 0 1 5 -5 a 5 5 0 0 1 5 5 a 5 5 0 0 1 -5 5 a 5 5 0 0 1 -5 -5"/>
<path d=" M 25 21 h 10"/>
<path d=" M 94 21 h 10"/>
<path d=" M 306 21 h 10"/>
</g>
<g class="sequence">
<path d=" M 10 85 a 5 5 0 0 1 5 -5 a 5 5 0 0 1 5 5 a 5 5 0 0 1 -5 5 a 5 5 0 0 1 -5 -5 m 10 0 h 5"/>
<text class="comment" id="Statement" x="71" y="90">
Statement</text>
<g class="choice">
<path d=" M 118 85 h 24 m 140 0 h 24"/>
<a class="link" xlink:href="#DefineNamespace">
<g class="symbol">
<rect height="22" width="140" x="142" y="74"/>
<text x="212" y="90">
DefineNamespace</text>
</g>
</a>
<path d=" M 118 85 a 12 12 0 0 1 12 12 v 9 m 164 0 v -9 a 12 12 0 0 1 12 -12"/>
<path d=" M 130 106 v 0 a 12 12 0 0 0 12 12 m 116 0 h 24 a 12 12 0 0 0 12 -12 v 0"/>
<a class="link" xlink:href="#DefineImport">
<g class="symbol">
<rect height="22" width="116" x="142" y="107"/>
<text x="200" y="123">
DefineImport</text>
</g>
</a>
</g>
<path d=" M 316 85 h 5 a 5 5 0 0 1 5 -5 a 5 5 0 0 1 5 5 a 5 5 0 0 1 -5 5 a 5 5 0 0 1 -5 -5"/>
<path d=" M 25 85 h 10"/>
<path d=" M 108 85 h 10"/>
<path d=" M 306 85 h 10"/>
</g>
<g class="sequence">
<path d=" M 10 152 a 5 5 0 0 1 5 -5 a 5 5 0 0 1 5 5 a 5 5 0 0 1 -5 5 a 5 5 0 0 1 -5 -5 m 10 0 h 5"/>
<text class="comment" id="EOS" x="50" y="157">
EOS</text>
<g class="choice">
<path d=" M 76 152 h 24 m 60 0 h 24"/>
<g class="string">
<rect height="22" rx="10" ry="10" width="60" x="100" y="141"/>
<text x="130" y="157">
[;；]</text>
</g>
<path d=" M 76 152 a 12 12 0 0 1 12 12 v 9 m 84 0 v -9 a 12 12 0 0 1 12 -12"/>
<path d=" M 88 173 v 0 a 12 12 0 0 0 12 12 m 52 0 h 8 a 12 12 0 0 0 12 -12 v 0"/>
<g class="string">
<rect height="22" rx="10" ry="10" width="52" x="100" y="174"/>
<text x="126" y="190">
⁏|;;</text>
</g>
</g>
<path d=" M 194 152 h 5 a 5 5 0 0 1 5 -5 a 5 5 0 0 1 5 5 a 5 5 0 0 1 -5 5 a 5 5 0 0 1 -5 -5"/>
<path d=" M 25 152 h 10"/>
<path d=" M 66 152 h 10"/>
<path d=" M 184 152 h 10"/>
</g>
<g class="sequence">
<path d=" M 10 219 a 5 5 0 0 1 5 -5 a 5 5 0 0 1 5 5 a 5 5 0 0 1 -5 5 a 5 5 0 0 1 -5 -5 m 10 0 h 5"/>
<text class="comment" id="EOS_FREE" x="68" y="224">
EOS_FREE</text>
<g class="string">
<rect height="22" rx="10" ry="10" width="92" x="111" y="208"/>
<text x="157" y="224">
[,，;；⁏]</text>
</g>
<path d=" M 213 219 h 5 a 5 5 0 0 1 5 -5 a 5 5 0 0 1 5 5 a 5 5 0 0 1 -5 5 a 5 5 0 0 1 -5 -5"/>
<path d=" M 25 219 h 10"/>
<path d=" M 101 219 h 10"/>
<path d=" M 203 219 h 10"/>
</g>
<g class="sequence">
<path d=" M 10 266 a 5 5 0 0 1 5 -5 a 5 5 0 0 1 5 5 a 5 5 0 0 1 -5 5 a 5 5 0 0 1 -5 -5 m 10 0 h 5"/>
<text class="comment" id="DefineNamespace" x="92" y="271">
DefineNamespace</text>
<g class="sequence">
<a class="link" xlink:href="#KW_NAMESPACE">
<g class="symbol">
<rect height="22" width="116" x="160" y="255"/>
<text x="218" y="271">
KW_NAMESPACE</text>
</g>
</a>
<g class="character">
<rect height="22" rx="10" ry="10" width="76" x="286" y="255"/>
<text x="324" y="271">
IGNORED</text>
</g>
<g class="optional">
<path d=" M 372 266 h 24 m -24 0 a 12 12 0 0 0 12 -12 v 0 a 12 12 0 0 1 12 -12 h 116 m -55 0 l -5 -5 m 0 10 l 5 -5 m 55 0 a 12 12 0 0 1 12 12 v 0 a 12 12 0 0 0 12 12 h -24"/>
<a class="link" xlink:href="#OP_NAMESPACE">
<g class="symbol">
<rect height="22" width="116" x="396" y="255"/>
<text x="454" y="271">
OP_NAMESPACE</text>
</g>
</a>
</g>
<g class="character">
<rect height="22" rx="10" ry="10" width="76" x="546" y="255"/>
<text x="584" y="271">
IGNORED</text>
</g>
<a class="link" xlink:href="#NamepathFree">
<g class="symbol">
<rect height="22" width="116" x="632" y="255"/>
<text x="690" y="271">
NamepathFree</text>
</g>
</a>
<g class="character">
<rect height="22" rx="10" ry="10" width="76" x="758" y="255"/>
<text x="796" y="271">
IGNORED</text>
</g>
<g class="optional">
<path d=" M 844 266 h 24 m -24 0 a 12 12 0 0 0 12 -12 v 0 a 12 12 0 0 1 12 -12 h 44 a 12 12 0 0 1 12 12 v 0 a 12 12 0 0 0 12 12 h -24"/>
<a class="link" xlink:href="#EOS">
<g class="symbol">
<rect height="22" width="44" x="868" y="255"/>
<text x="890" y="271">
EOS</text>
</g>
</a>
</g>
<path d=" M 276 266 h 10"/>
<path d=" M 362 266 h 10"/>
<path d=" M 536 266 h 10"/>
<path d=" M 622 266 h 10"/>
<path d=" M 748 266 h 10"/>
<path d=" M 834 266 h 10"/>
</g>
<path d=" M 946 266 h 5 a 5 5 0 0 1 5 -5 a 5 5 0 0 1 5 5 a 5 5 0 0 1 -5 5 a 5 5 0 0 1 -5 -5"/>
<path d=" M 25 266 h 10"/>
<path d=" M 150 266 h 10"/>
<path d=" M 936 266 h 10"/>
</g>
<g class="sequence">
<path d=" M 10 300 a 5 5 0 0 1 5 -5 a 5 5 0 0 1 5 5 a 5 5 0 0 1 -5 5 a 5 5 0 0 1 -5 -5 m 10 0 h 5"/>
<text class="comment" id="KW_NAMESPACE" x="82" y="305">
KW_NAMESPACE</text>
<g class="string">
<rect height="22" rx="10" ry="10" width="92" x="139" y="289"/>
<text x="185" y="305">
namespace</text>
</g>
<path d=" M 241 300 h 5 a 5 5 0 0 1 5 -5 a 5 5 0 0 1 5 5 a 5 5 0 0 1 -5 5 a 5 5 0 0 1 -5 -5"/>
<path d=" M 25 300 h 10"/>
<path d=" M 129 300 h 10"/>
<path d=" M 231 300 h 10"/>
</g>
<g class="sequence">
<path d=" M 10 334 a 5 5 0 0 1 5 -5 a 5 5 0 0 1 5 5 a 5 5 0 0 1 -5 5 a 5 5 0 0 1 -5 -5 m 10 0 h 5"/>
<text class="comment" id="OP_NAMESPACE" x="82" y="339">
OP_NAMESPACE</text>
<g class="choice">
<path d=" M 139 334 h 24 m 28 0 h 24"/>
<g class="string">
<rect height="22" rx="10" ry="10" width="28" x="163" y="323"/>
<text x="177" y="339">
!</text>
</g>
<path d=" M 139 334 a 12 12 0 0 1 12 12 v 9 m 52 0 v -9 a 12 12 0 0 1 12 -12"/>
<path d=" M 151 355 v 33 m 52 0 v -33"/>
<path d=" M 151 355 v 0 a 12 12 0 0 0 12 12 m 28 0 h 0 a 12 12 0 0 0 12 -12 v 0"/>
<g class="string">
<rect height="22" rx="10" ry="10" width="28" x="163" y="356"/>
<text x="177" y="372">
?</text>
</g>
<path d=" M 151 388 v 0 a 12 12 0 0 0 12 12 m 28 0 h 0 a 12 12 0 0 0 12 -12 v 0"/>
<g class="string">
<rect height="22" rx="10" ry="10" width="28" x="163" y="389"/>
<text x="177" y="405">
*</text>
</g>
</g>
<path d=" M 225 334 h 5 a 5 5 0 0 1 5 -5 a 5 5 0 0 1 5 5 a 5 5 0 0 1 -5 5 a 5 5 0 0 1 -5 -5"/>
<path d=" M 25 334 h 10"/>
<path d=" M 129 334 h 10"/>
<path d=" M 215 334 h 10"/>
</g>
<g class="sequence">
<path d=" M 10 447 a 5 5 0 0 1 5 -5 a 5 5 0 0 1 5 5 a 5 5 0 0 1 -5 5 a 5 5 0 0 1 -5 -5 m 10 0 h 5"/>
<text class="comment" id="DefineImport" x="82" y="452">
DefineImport</text>
<g class="choice">
<path d=" M 139 447 h 24 m 524 0 h 296 m -145 0 l -5 -5 m 0 10 l 5 -5 m 145 0"/>
<g class="sequence">
<a class="link" xlink:href="#KW_IMPORT">
<g class="symbol">
<rect height="22" width="92" x="163" y="436"/>
<text x="209" y="452">
KW_IMPORT</text>
</g>
</a>
<g class="character">
<rect height="22" rx="10" ry="10" width="76" x="265" y="436"/>
<text x="303" y="452">
IGNORED</text>
</g>
<g class="optional">
<path d=" M 351 447 h 24 m -24 0 a 12 12 0 0 0 12 -12 v 0 a 12 12 0 0 1 12 -12 h 100 m -47 0 l -5 -5 m 0 10 l 5 -5 m 47 0 a 12 12 0 0 1 12 12 v 0 a 12 12 0 0 0 12 12 h -24"/>
<a class="link" xlink:href="#ImportTerm">
<g class="symbol">
<rect height="22" width="100" x="375" y="436"/>
<text x="425" y="452">
ImportTerm</text>
</g>
</a>
</g>
<g class="character">
<rect height="22" rx="10" ry="10" width="76" x="509" y="436"/>
<text x="547" y="452">
IGNORED</text>
</g>
<g class="optional">
<path d=" M 595 447 h 24 m -24 0 a 12 12 0 0 0 12 -12 v 0 a 12 12 0 0 1 12 -12 h 44 a 12 12 0 0 1 12 12 v 0 a 12 12 0 0 0 12 12 h -24"/>
<a class="link" xlink:href="#EOS">
<g class="symbol">
<rect height="22" width="44" x="619" y="436"/>
<text x="641" y="452">
EOS</text>
</g>
</a>
</g>
<path d=" M 255 447 h 10"/>
<path d=" M 341 447 h 10"/>
<path d=" M 499 447 h 10"/>
<path d=" M 585 447 h 10"/>
</g>
<path d=" M 139 447 a 12 12 0 0 1 12 12 v 9 m 820 0 v -9 a 12 12 0 0 1 12 -12"/>
<path d=" M 151 468 v 12 a 12 12 0 0 0 12 12 m 796 0 h 0 a 12 12 0 0 0 12 -12 v -12"/>
<g class="sequence">
<a class="link" xlink:href="#KW_IMPORT">
<g class="symbol">
<rect height="22" width="92" x="163" y="481"/>
<text x="209" y="497">
KW_IMPORT</text>
</g>
</a>
<g class="character">
<rect height="22" rx="10" ry="10" width="76" x="265" y="481"/>
<text x="303" y="497">
IGNORED</text>
</g>
<g class="sequence">
<g class="string">
<rect height="22" rx="10" ry="10" width="28" x="351" y="481"/>
<text x="365" y="497">
{</text>
</g>
<g class="repeat">
<path d=" M 389 492 h 12 m 234 0 h 12 m -12 0 a 12 12 0 0 1 12 12 v 40 a 12 12 0 0 1 -12 12 m -52 0 h -182 m 94 0 l 5 -5 m 0 10 l -5 -5 m -94 0 a 12 12 0 0 1 -12 -12 v -40 a 12 12 0 0 1 12 -12"/>
<text class="comment" x="609" y="561">
[0, ∞]</text>
<g class="sequence">
<g class="character">
<rect height="22" rx="10" ry="10" width="76" x="401" y="481"/>
<text x="439" y="497">
IGNORED</text>
</g>
<g class="choice">
<path d=" M 487 492 h 24 m 100 0 h 24"/>
<a class="link" xlink:href="#ImportTerm">
<g class="symbol">
<rect height="22" width="100" x="511" y="481"/>
<text x="561" y="497">
ImportTerm</text>
</g>
</a>
<path d=" M 487 492 a 12 12 0 0 1 12 12 v 9 m 124 0 v -9 a 12 12 0 0 1 12 -12"/>
<path d=" M 499 513 v 0 a 12 12 0 0 0 12 12 m 84 0 h 16 a 12 12 0 0 0 12 -12 v 0"/>
<a class="link" xlink:href="#EOS_FREE">
<g class="symbol">
<rect height="22" width="84" x="511" y="514"/>
<text x="553" y="530">
EOS_FREE</text>
</g>
</a>
</g>
<path d=" M 477 492 h 10"/>
</g>
</g>
<path d=" M 379 492 h 10"/>
</g>
<g class="character">
<rect height="22" rx="10" ry="10" width="76" x="657" y="481"/>
<text x="695" y="497">
IGNORED</text>
</g>
<g class="string">
<rect height="22" rx="10" ry="10" width="28" x="743" y="481"/>
<text x="757" y="497">
}</text>
</g>
<g class="character">
<rect height="22" rx="10" ry="10" width="76" x="781" y="481"/>
<text x="819" y="497">
IGNORED</text>
</g>
<g class="optional">
<path d=" M 867 492 h 24 m -24 0 a 12 12 0 0 0 12 -12 v 0 a 12 12 0 0 1 12 -12 h 44 a 12 12 0 0 1 12 12 v 0 a 12 12 0 0 0 12 12 h -24"/>
<a class="link" xlink:href="#EOS">
<g class="symbol">
<rect height="22" width="44" x="891" y="481"/>
<text x="913" y="497">
EOS</text>
</g>
</a>
</g>
<path d=" M 255 492 h 10"/>
<path d=" M 341 492 h 10"/>
<path d=" M 647 492 h 10"/>
<path d=" M 733 492 h 10"/>
<path d=" M 771 492 h 10"/>
<path d=" M 857 492 h 10"/>
</g>
</g>
<path d=" M 993 447 h 5 a 5 5 0 0 1 5 -5 a 5 5 0 0 1 5 5 a 5 5 0 0 1 -5 5 a 5 5 0 0 1 -5 -5"/>
<path d=" M 25 447 h 10"/>
<path d=" M 129 447 h 10"/>
<path d=" M 983 447 h 10"/>
</g>
<g class="sequence">
<path d=" M 10 589 a 5 5 0 0 1 5 -5 a 5 5 0 0 1 5 5 a 5 5 0 0 1 -5 5 a 5 5 0 0 1 -5 -5 m 10 0 h 5"/>
<text class="comment" id="ImportTerm" x="75" y="594">
ImportTerm</text>
<g class="choice">
<path d=" M 125 589 h 24 m 84 0 h 56 m -25 0 l -5 -5 m 0 10 l 5 -5 m 25 0"/>
<a class="link" xlink:href="#ImportAs">
<g class="symbol">
<rect height="22" width="84" x="149" y="578"/>
<text x="191" y="594">
ImportAs</text>
</g>
</a>
<path d=" M 125 589 a 12 12 0 0 1 12 12 v 9 m 140 0 v -9 a 12 12 0 0 1 12 -12"/>
<path d=" M 137 610 v 33 m 140 0 v -33"/>
<path d=" M 137 643 v 33 m 140 0 v -33"/>
<path d=" M 137 676 v 33 m 140 0 v -33"/>
<path d=" M 137 610 v 0 a 12 12 0 0 0 12 12 m 92 0 h 24 a 12 12 0 0 0 12 -12 v 0"/>
<a class="link" xlink:href="#ImportAll">
<g class="symbol">
<rect height="22" width="92" x="149" y="611"/>
<text x="195" y="627">
ImportAll</text>
</g>
</a>
<path d=" M 137 643 v 0 a 12 12 0 0 0 12 12 m 108 0 h 8 a 12 12 0 0 0 12 -12 v 0"/>
<a class="link" xlink:href="#ImportMacro">
<g class="symbol">
<rect height="22" width="108" x="149" y="644"/>
<text x="203" y="660">
ImportMacro</text>
</g>
</a>
<path d=" M 137 676 v 0 a 12 12 0 0 0 12 12 m 108 0 h 8 a 12 12 0 0 0 12 -12 v 0"/>
<a class="link" xlink:href="#ImportBlock">
<g class="symbol">
<rect height="22" width="108" x="149" y="677"/>
<text x="203" y="693">
ImportBlock</text>
</g>
</a>
<path d=" M 137 709 v 0 a 12 12 0 0 0 12 12 m 116 0 h 0 a 12 12 0 0 0 12 -12 v 0"/>
<a class="link" xlink:href="#NamepathFree">
<g class="symbol">
<rect height="22" width="116" x="149" y="710"/>
<text x="207" y="726">
NamepathFree</text>
</g>
</a>
</g>
<path d=" M 299 589 h 5 a 5 5 0 0 1 5 -5 a 5 5 0 0 1 5 5 a 5 5 0 0 1 -5 5 a 5 5 0 0 1 -5 -5"/>
<path d=" M 25 589 h 10"/>
<path d=" M 115 589 h 10"/>
<path d=" M 289 589 h 10"/>
</g>
<g class="sequence">
<path d=" M 10 755 a 5 5 0 0 1 5 -5 a 5 5 0 0 1 5 5 a 5 5 0 0 1 -5 5 a 5 5 0 0 1 -5 -5 m 10 0 h 5"/>
<text class="comment" id="ImportAs" x="68" y="760">
ImportAs</text>
<g class="sequence">
<g class="sequence">
<a class="link" xlink:href="#NamepathFree">
<g class="symbol">
<rect height="22" width="116" x="111" y="744"/>
<text x="169" y="760">
NamepathFree</text>
</g>
</a>
<g class="character">
<rect height="22" rx="10" ry="10" width="76" x="237" y="744"/>
<text x="275" y="760">
IGNORED</text>
</g>
<a class="link" xlink:href="#KW_AS">
<g class="symbol">
<rect height="22" width="60" x="323" y="744"/>
<text x="353" y="760">
KW_AS</text>
</g>
</a>
<path d=" M 227 755 h 10"/>
<path d=" M 313 755 h 10"/>
</g>
<g class="character">
<rect height="22" rx="10" ry="10" width="76" x="393" y="744"/>
<text x="431" y="760">
IGNORED</text>
</g>
<a class="link" xlink:href="#Identifier">
<g class="symbol">
<rect height="22" width="100" x="479" y="744"/>
<text x="529" y="760">
Identifier</text>
</g>
</a>
<path d=" M 383 755 h 10"/>
<path d=" M 469 755 h 10"/>
</g>
<path d=" M 589 755 h 5 a 5 5 0 0 1 5 -5 a 5 5 0 0 1 5 5 a 5 5 0 0 1 -5 5 a 5 5 0 0 1 -5 -5"/>
<path d=" M 25 755 h 10"/>
<path d=" M 101 755 h 10"/>
<path d=" M 579 755 h 10"/>
</g>
<g class="sequence">
<path d=" M 10 789 a 5 5 0 0 1 5 -5 a 5 5 0 0 1 5 5 a 5 5 0 0 1 -5 5 a 5 5 0 0 1 -5 -5 m 10 0 h 5"/>
<text class="comment" id="ImportAll" x="71" y="794">
ImportAll</text>
<g class="sequence">
<a class="link" xlink:href="#NamepathFree">
<g class="symbol">
<rect height="22" width="116" x="118" y="778"/>
<text x="176" y="794">
NamepathFree</text>
</g>
</a>
<g class="character">
<rect height="22" rx="10" ry="10" width="76" x="244" y="778"/>
<text x="282" y="794">
IGNORED</text>
</g>
<g class="string">
<rect height="22" rx="10" ry="10" width="76" x="330" y="778"/>
<text x="368" y="794">
[.∷]|::</text>
</g>
<g class="character">
<rect height="22" rx="10" ry="10" width="76" x="416" y="778"/>
<text x="454" y="794">
IGNORED</text>
</g>
<a class="link" xlink:href="#OP_IMPORT_ALL">
<g class="symbol">
<rect height="22" width="124" x="502" y="778"/>
<text x="564" y="794">
OP_IMPORT_ALL</text>
</g>
</a>
<path d=" M 234 789 h 10"/>
<path d=" M 320 789 h 10"/>
<path d=" M 406 789 h 10"/>
<path d=" M 492 789 h 10"/>
</g>
<path d=" M 636 789 h 5 a 5 5 0 0 1 5 -5 a 5 5 0 0 1 5 5 a 5 5 0 0 1 -5 5 a 5 5 0 0 1 -5 -5"/>
<path d=" M 25 789 h 10"/>
<path d=" M 108 789 h 10"/>
<path d=" M 626 789 h 10"/>
</g>
<g class="sequence">
<path d=" M 10 836 a 5 5 0 0 1 5 -5 a 5 5 0 0 1 5 5 a 5 5 0 0 1 -5 5 a 5 5 0 0 1 -5 -5 m 10 0 h 5"/>
<text class="comment" id="ImportBlock" x="78" y="841">
ImportBlock</text>
<g class="sequence">
<a class="link" xlink:href="#NamepathFree">
<g class="symbol">
<rect height="22" width="116" x="132" y="825"/>
<text x="190" y="841">
NamepathFree</text>
</g>
</a>
<g class="character">
<rect height="22" rx="10" ry="10" width="76" x="258" y="825"/>
<text x="296" y="841">
IGNORED</text>
</g>
<g class="optional">
<path d=" M 344 836 h 24 m -24 0 a 12 12 0 0 0 12 -12 v 0 a 12 12 0 0 1 12 -12 h 76 m -35 0 l -5 -5 m 0 10 l 5 -5 m 35 0 a 12 12 0 0 1 12 12 v 0 a 12 12 0 0 0 12 12 h -24"/>
<g class="string">
<rect height="22" rx="10" ry="10" width="76" x="368" y="825"/>
<text x="406" y="841">
[.∷]|::</text>
</g>
</g>
<g class="character">
<rect height="22" rx="10" ry="10" width="76" x="478" y="825"/>
<text x="516" y="841">
IGNORED</text>
</g>
<g class="string">
<rect height="22" rx="10" ry="10" width="28" x="564" y="825"/>
<text x="578" y="841">
{</text>
</g>
<g class="repeat">
<path d=" M 602 836 h 12 m 234 0 h 12 m -12 0 a 12 12 0 0 1 12 12 v 40 a 12 12 0 0 1 -12 12 m -52 0 h -182 m 94 0 l 5 -5 m 0 10 l -5 -5 m -94 0 a 12 12 0 0 1 -12 -12 v -40 a 12 12 0 0 1 12 -12"/>
<text class="comment" x="822" y="905">
[0, ∞]</text>
<g class="sequence">
<g class="character">
<rect height="22" rx="10" ry="10" width="76" x="614" y="825"/>
<text x="652" y="841">
IGNORED</text>
</g>
<g class="choice">
<path d=" M 700 836 h 24 m 100 0 h 24"/>
<a class="link" xlink:href="#ImportTerm">
<g class="symbol">
<rect height="22" width="100" x="724" y="825"/>
<text x="774" y="841">
ImportTerm</text>
</g>
</a>
<path d=" M 700 836 a 12 12 0 0 1 12 12 v 9 m 124 0 v -9 a 12 12 0 0 1 12 -12"/>
<path d=" M 712 857 v 0 a 12 12 0 0 0 12 12 m 84 0 h 16 a 12 12 0 0 0 12 -12 v 0"/>
<a class="link" xlink:href="#EOS_FREE">
<g class="symbol">
<rect height="22" width="84" x="724" y="858"/>
<text x="766" y="874">
EOS_FREE</text>
</g>
</a>
</g>
<path d=" M 690 836 h 10"/>
</g>
</g>
<g class="character">
<rect height="22" rx="10" ry="10" width="76" x="870" y="825"/>
<text x="908" y="841">
IGNORED</text>
</g>
<g class="string">
<rect height="22" rx="10" ry="10" width="28" x="956" y="825"/>
<text x="970" y="841">
}</text>
</g>
<path d=" M 248 836 h 10"/>
<path d=" M 334 836 h 10"/>
<path d=" M 468 836 h 10"/>
<path d=" M 554 836 h 10"/>
<path d=" M 592 836 h 10"/>
<path d=" M 860 836 h 10"/>
<path d=" M 946 836 h 10"/>
</g>
<path d=" M 994 836 h 5 a 5 5 0 0 1 5 -5 a 5 5 0 0 1 5 5 a 5 5 0 0 1 -5 5 a 5 5 0 0 1 -5 -5"/>
<path d=" M 25 836 h 10"/>
<path d=" M 122 836 h 10"/>
<path d=" M 984 836 h 10"/>
</g>
<g class="sequence">
<path d=" M 10 933 a 5 5 0 0 1 5 -5 a 5 5 0 0 1 5 5 a 5 5 0 0 1 -5 5 a 5 5 0 0 1 -5 -5 m 10 0 h 5"/>
<text class="comment" id="ImportMacro" x="78" y="938">
ImportMacro</text>
<g class="sequence">
<g class="sequence">
<a class="link" xlink:href="#NamepathFree">
<g class="symbol">
<rect height="22" width="116" x="132" y="922"/>
<text x="190" y="938">
NamepathFree</text>
</g>
</a>
<g class="character">
<rect height="22" rx="10" ry="10" width="76" x="258" y="922"/>
<text x="296" y="938">
IGNORED</text>
</g>
<g class="string">
<rect height="22" rx="10" ry="10" width="76" x="344" y="922"/>
<text x="382" y="938">
[.∷]|::</text>
</g>
<g class="character">
<rect height="22" rx="10" ry="10" width="76" x="430" y="922"/>
<text x="468" y="938">
IGNORED</text>
</g>
<a class="link" xlink:href="#ImportMacroItem">
<g class="symbol">
<rect height="22" width="140" x="516" y="922"/>
<text x="586" y="938">
ImportMacroItem</text>
</g>
</a>
<g class="character">
<rect height="22" rx="10" ry="10" width="76" x="666" y="922"/>
<text x="704" y="938">
IGNORED</text>
</g>
<a class="link" xlink:href="#KW_AS">
<g class="symbol">
<rect height="22" width="60" x="752" y="922"/>
<text x="782" y="938">
KW_AS</text>
</g>
</a>
<path d=" M 248 933 h 10"/>
<path d=" M 334 933 h 10"/>
<path d=" M 420 933 h 10"/>
<path d=" M 506 933 h 10"/>
<path d=" M 656 933 h 10"/>
<path d=" M 742 933 h 10"/>
</g>
<g class="character">
<rect height="22" rx="10" ry="10" width="76" x="822" y="922"/>
<text x="860" y="938">
IGNORED</text>
</g>
<a class="link" xlink:href="#ImportMacroItem">
<g class="symbol">
<rect height="22" width="140" x="908" y="922"/>
<text x="978" y="938">
ImportMacroItem</text>
</g>
</a>
<path d=" M 812 933 h 10"/>
<path d=" M 898 933 h 10"/>
</g>
<path d=" M 1058 933 h 5 a 5 5 0 0 1 5 -5 a 5 5 0 0 1 5 5 a 5 5 0 0 1 -5 5 a 5 5 0 0 1 -5 -5"/>
<path d=" M 25 933 h 10"/>
<path d=" M 122 933 h 10"/>
<path d=" M 1048 933 h 10"/>
</g>
<g class="sequence">
<path d=" M 10 967 a 5 5 0 0 1 5 -5 a 5 5 0 0 1 5 5 a 5 5 0 0 1 -5 5 a 5 5 0 0 1 -5 -5 m 10 0 h 5"/>
<text class="comment" id="ImportMacroItem" x="92" y="972">
ImportMacroItem</text>
<g class="choice">
<path d=" M 160 967 h 24 m 138 0 h 24"/>
<g class="sequence">
<g class="string">
<rect height="22" rx="10" ry="10" width="28" x="184" y="956"/>
<text x="198" y="972">
#</text>
</g>
<a class="link" xlink:href="#Identifier">
<g class="symbol">
<rect height="22" width="100" x="222" y="956"/>
<text x="272" y="972">
Identifier</text>
</g>
</a>
<path d=" M 212 967 h 10"/>
</g>
<path d=" M 160 967 a 12 12 0 0 1 12 12 v 9 m 162 0 v -9 a 12 12 0 0 1 12 -12"/>
<path d=" M 172 988 v 0 a 12 12 0 0 0 12 12 m 138 0 h 0 a 12 12 0 0 0 12 -12 v 0"/>
<g class="sequence">
<g class="string">
<rect height="22" rx="10" ry="10" width="28" x="184" y="989"/>
<text x="198" y="1005">
@</text>
</g>
<a class="link" xlink:href="#Identifier">
<g class="symbol">
<rect height="22" width="100" x="222" y="989"/>
<text x="272" y="1005">
Identifier</text>
</g>
</a>
<path d=" M 212 1000 h 10"/>
</g>
</g>
<path d=" M 356 967 h 5 a 5 5 0 0 1 5 -5 a 5 5 0 0 1 5 5 a 5 5 0 0 1 -5 5 a 5 5 0 0 1 -5 -5"/>
<path d=" M 25 967 h 10"/>
<path d=" M 150 967 h 10"/>
<path d=" M 346 967 h 10"/>
</g>
<g class="sequence">
<path d=" M 10 1034 a 5 5 0 0 1 5 -5 a 5 5 0 0 1 5 5 a 5 5 0 0 1 -5 5 a 5 5 0 0 1 -5 -5 m 10 0 h 5"/>
<text class="comment" id="KW_IMPORT" x="71" y="1039">
KW_IMPORT</text>
<g class="string">
<rect height="22" rx="10" ry="10" width="60" x="118" y="1023"/>
<text x="148" y="1039">
using</text>
</g>
<path d=" M 188 1034 h 5 a 5 5 0 0 1 5 -5 a 5 5 0 0 1 5 5 a 5 5 0 0 1 -5 5 a 5 5 0 0 1 -5 -5"/>
<path d=" M 25 1034 h 10"/>
<path d=" M 108 1034 h 10"/>
<path d=" M 178 1034 h 10"/>
</g>
<g class="sequence">
<path d=" M 10 1068 a 5 5 0 0 1 5 -5 a 5 5 0 0 1 5 5 a 5 5 0 0 1 -5 5 a 5 5 0 0 1 -5 -5 m 10 0 h 5"/>
<text class="comment" id="OP_IMPORT_ALL" x="85" y="1073">
OP_IMPORT_ALL</text>
<g class="string">
<rect height="22" rx="10" ry="10" width="28" x="146" y="1057"/>
<text x="160" y="1073">
*</text>
</g>
<path d=" M 184 1068 h 5 a 5 5 0 0 1 5 -5 a 5 5 0 0 1 5 5 a 5 5 0 0 1 -5 5 a 5 5 0 0 1 -5 -5"/>
<path d=" M 25 1068 h 10"/>
<path d=" M 136 1068 h 10"/>
<path d=" M 174 1068 h 10"/>
</g>
<g class="sequence">
<path d=" M 10 1102 a 5 5 0 0 1 5 -5 a 5 5 0 0 1 5 5 a 5 5 0 0 1 -5 5 a 5 5 0 0 1 -5 -5 m 10 0 h 5"/>
<text class="comment" id="KW_CLASS" x="68" y="1107">
KW_CLASS</text>
<g class="string">
<rect height="22" rx="10" ry="10" width="60" x="111" y="1091"/>
<text x="141" y="1107">
class</text>
</g>
<path d=" M 181 1102 h 5 a 5 5 0 0 1 5 -5 a 5 5 0 0 1 5 5 a 5 5 0 0 1 -5 5 a 5 5 0 0 1 -5 -5"/>
<path d=" M 25 1102 h 10"/>
<path d=" M 101 1102 h 10"/>
<path d=" M 171 1102 h 10"/>
</g>
<g class="sequence">
<path d=" M 10 1136 a 5 5 0 0 1 5 -5 a 5 5 0 0 1 5 5 a 5 5 0 0 1 -5 5 a 5 5 0 0 1 -5 -5 m 10 0 h 5"/>
<text class="comment" id="KW_UNION" x="68" y="1141">
KW_UNION</text>
<g class="string">
<rect height="22" rx="10" ry="10" width="60" x="111" y="1125"/>
<text x="141" y="1141">
union</text>
</g>
<path d=" M 181 1136 h 5 a 5 5 0 0 1 5 -5 a 5 5 0 0 1 5 5 a 5 5 0 0 1 -5 5 a 5 5 0 0 1 -5 -5"/>
<path d=" M 25 1136 h 10"/>
<path d=" M 101 1136 h 10"/>
<path d=" M 171 1136 h 10"/>
</g>
<g class="sequence">
<path d=" M 10 1170 a 5 5 0 0 1 5 -5 a 5 5 0 0 1 5 5 a 5 5 0 0 1 -5 5 a 5 5 0 0 1 -5 -5 m 10 0 h 5"/>
<text class="comment" id="KW_TRAIT" x="68" y="1175">
KW_TRAIT</text>
<g class="string">
<rect height="22" rx="10" ry="10" width="60" x="111" y="1159"/>
<text x="141" y="1175">
trait</text>
</g>
<path d=" M 181 1170 h 5 a 5 5 0 0 1 5 -5 a 5 5 0 0 1 5 5 a 5 5 0 0 1 -5 5 a 5 5 0 0 1 -5 -5"/>
<path d=" M 25 1170 h 10"/>
<path d=" M 101 1170 h 10"/>
<path d=" M 171 1170 h 10"/>
</g>
<g class="sequence">
<path d=" M 10 1204 a 5 5 0 0 1 5 -5 a 5 5 0 0 1 5 5 a 5 5 0 0 1 -5 5 a 5 5 0 0 1 -5 -5 m 10 0 h 5"/>
<text class="comment" id="NamepathFree" x="82" y="1209">
NamepathFree</text>
<g class="sequence">
<a class="link" xlink:href="#Identifier">
<g class="symbol">
<rect height="22" width="100" x="139" y="1193"/>
<text x="189" y="1209">
Identifier</text>
</g>
</a>
<g class="repeat">
<path d=" M 249 1204 h 12 m 358 0 h 12 m -12 0 a 12 12 0 0 1 12 12 v 7 a 12 12 0 0 1 -12 12 m -52 0 h -306 m 156 0 l 5 -5 m 0 10 l -5 -5 m -156 0 a 12 12 0 0 1 -12 -12 v -7 a 12 12 0 0 1 12 -12"/>
<text class="comment" x="593" y="1240">
[0, ∞]</text>
<g class="sequence">
<g class="character">
<rect height="22" rx="10" ry="10" width="76" x="261" y="1193"/>
<text x="299" y="1209">
IGNORED</text>
</g>
<g class="string">
<rect height="22" rx="10" ry="10" width="76" x="347" y="1193"/>
<text x="385" y="1209">
[.∷]|::</text>
</g>
<g class="character">
<rect height="22" rx="10" ry="10" width="76" x="433" y="1193"/>
<text x="471" y="1209">
IGNORED</text>
</g>
<a class="link" xlink:href="#Identifier">
<g class="symbol">
<rect height="22" width="100" x="519" y="1193"/>
<text x="569" y="1209">
Identifier</text>
</g>
</a>
<path d=" M 337 1204 h 10"/>
<path d=" M 423 1204 h 10"/>
<path d=" M 509 1204 h 10"/>
</g>
</g>
<path d=" M 239 1204 h 10"/>
</g>
<path d=" M 641 1204 h 5 a 5 5 0 0 1 5 -5 a 5 5 0 0 1 5 5 a 5 5 0 0 1 -5 5 a 5 5 0 0 1 -5 -5"/>
<path d=" M 25 1204 h 10"/>
<path d=" M 129 1204 h 10"/>
<path d=" M 631 1204 h 10"/>
</g>
<g class="sequence">
<path d=" M 10 1268 a 5 5 0 0 1 5 -5 a 5 5 0 0 1 5 5 a 5 5 0 0 1 -5 5 a 5 5 0 0 1 -5 -5 m 10 0 h 5"/>
<text class="comment" id="Namepath" x="68" y="1273">
Namepath</text>
<g class="sequence">
<a class="link" xlink:href="#Identifier">
<g class="symbol">
<rect height="22" width="100" x="111" y="1257"/>
<text x="161" y="1273">
Identifier</text>
</g>
</a>
<g class="repeat">
<path d=" M 221 1268 h 12 m 334 0 h 12 m -12 0 a 12 12 0 0 1 12 12 v 7 a 12 12 0 0 1 -12 12 m -52 0 h -282 m 144 0 l 5 -5 m 0 10 l -5 -5 m -144 0 a 12 12 0 0 1 -12 -12 v -7 a 12 12 0 0 1 12 -12"/>
<text class="comment" x="541" y="1304">
[0, ∞]</text>
<g class="sequence">
<g class="character">
<rect height="22" rx="10" ry="10" width="76" x="233" y="1257"/>
<text x="271" y="1273">
IGNORED</text>
</g>
<g class="string">
<rect height="22" rx="10" ry="10" width="52" x="319" y="1257"/>
<text x="345" y="1273">
∷|::</text>
</g>
<g class="character">
<rect height="22" rx="10" ry="10" width="76" x="381" y="1257"/>
<text x="419" y="1273">
IGNORED</text>
</g>
<a class="link" xlink:href="#Identifier">
<g class="symbol">
<rect height="22" width="100" x="467" y="1257"/>
<text x="517" y="1273">
Identifier</text>
</g>
</a>
<path d=" M 309 1268 h 10"/>
<path d=" M 371 1268 h 10"/>
<path d=" M 457 1268 h 10"/>
</g>
</g>
<path d=" M 211 1268 h 10"/>
</g>
<path d=" M 589 1268 h 5 a 5 5 0 0 1 5 -5 a 5 5 0 0 1 5 5 a 5 5 0 0 1 -5 5 a 5 5 0 0 1 -5 -5"/>
<path d=" M 25 1268 h 10"/>
<path d=" M 101 1268 h 10"/>
<path d=" M 579 1268 h 10"/>
</g>
<g class="sequence">
<path d=" M 10 1332 a 5 5 0 0 1 5 -5 a 5 5 0 0 1 5 5 a 5 5 0 0 1 -5 5 a 5 5 0 0 1 -5 -5 m 10 0 h 5"/>
<text class="comment" id="Identifier" x="75" y="1337">
Identifier</text>
<g class="choice">
<path d=" M 125 1332 h 24 m 132 0 h 24"/>
<a class="link" xlink:href="#IdentifierBare">
<g class="symbol">
<rect height="22" width="132" x="149" y="1321"/>
<text x="215" y="1337">
IdentifierBare</text>
</g>
</a>
<path d=" M 125 1332 a 12 12 0 0 1 12 12 v 9 m 156 0 v -9 a 12 12 0 0 1 12 -12"/>
<path d=" M 137 1353 v 0 a 12 12 0 0 0 12 12 m 124 0 h 8 a 12 12 0 0 0 12 -12 v 0"/>
<a class="link" xlink:href="#IdentifierRaw">
<g class="symbol">
<rect height="22" width="124" x="149" y="1354"/>
<text x="211" y="1370">
IdentifierRaw</text>
</g>
</a>
</g>
<path d=" M 315 1332 h 5 a 5 5 0 0 1 5 -5 a 5 5 0 0 1 5 5 a 5 5 0 0 1 -5 5 a 5 5 0 0 1 -5 -5"/>
<path d=" M 25 1332 h 10"/>
<path d=" M 115 1332 h 10"/>
<path d=" M 305 1332 h 10"/>
</g>
<g class="sequence">
<path d=" M 10 1399 a 5 5 0 0 1 5 -5 a 5 5 0 0 1 5 5 a 5 5 0 0 1 -5 5 a 5 5 0 0 1 -5 -5 m 10 0 h 5"/>
<text class="comment" id="IdentifierBare" x="89" y="1404">
IdentifierBare</text>
<g class="string">
<rect height="22" rx="10" ry="10" width="292" x="153" y="1388"/>
<text x="299" y="1404">
[_\p{XID_start}]\p{XID_continue}*</text>
</g>
<path d=" M 455 1399 h 5 a 5 5 0 0 1 5 -5 a 5 5 0 0 1 5 5 a 5 5 0 0 1 -5 5 a 5 5 0 0 1 -5 -5"/>
<path d=" M 25 1399 h 10"/>
<path d=" M 143 1399 h 10"/>
<path d=" M 445 1399 h 10"/>
</g>
<g class="sequence">
<path d=" M 10 1433 a 5 5 0 0 1 5 -5 a 5 5 0 0 1 5 5 a 5 5 0 0 1 -5 5 a 5 5 0 0 1 -5 -5 m 10 0 h 5"/>
<text class="comment" id="IdentifierRaw" x="85" y="1438">
IdentifierRaw</text>
<g class="sequence">
<g class="string">
<rect height="22" rx="10" ry="10" width="28" x="146" y="1422"/>
<text x="160" y="1438">
`</text>
</g>
<a class="link" xlink:href="#IdentifierRawText">
<g class="symbol">
<rect height="22" width="156" x="184" y="1422"/>
<text x="262" y="1438">
IdentifierRawText</text>
</g>
</a>
<g class="string">
<rect height="22" rx="10" ry="10" width="28" x="350" y="1422"/>
<text x="364" y="1438">
`</text>
</g>
<path d=" M 174 1433 h 10"/>
<path d=" M 340 1433 h 10"/>
</g>
<path d=" M 388 1433 h 5 a 5 5 0 0 1 5 -5 a 5 5 0 0 1 5 5 a 5 5 0 0 1 -5 5 a 5 5 0 0 1 -5 -5"/>
<path d=" M 25 1433 h 10"/>
<path d=" M 136 1433 h 10"/>
<path d=" M 378 1433 h 10"/>
</g>
<g class="sequence">
<path d=" M 10 1467 a 5 5 0 0 1 5 -5 a 5 5 0 0 1 5 5 a 5 5 0 0 1 -5 5 a 5 5 0 0 1 -5 -5 m 10 0 h 5"/>
<text class="comment" id="IdentifierRawText" x="99" y="1472">
IdentifierRawText</text>
<g class="repeat">
<path d=" M 174 1467 h 12 m 138 0 h 12 m -12 0 a 12 12 0 0 1 12 12 v 7 a 12 12 0 0 1 -12 12 m -52 0 h -86 m 46 0 l 5 -5 m 0 10 l -5 -5 m -46 0 a 12 12 0 0 1 -12 -12 v -7 a 12 12 0 0 1 12 -12"/>
<text class="comment" x="298" y="1503">
[1, ∞]</text>
<g class="sequence">
<g class="character">
<rect height="22" rx="10" ry="10" width="76" x="186" y="1456"/>
<text x="224" y="1472">
IGNORED</text>
</g>
<g class="string">
<rect height="22" rx="10" ry="10" width="52" x="272" y="1456"/>
<text x="298" y="1472">
[^`]</text>
</g>
<path d=" M 262 1467 h 10"/>
</g>
</g>
<path d=" M 346 1467 h 5 a 5 5 0 0 1 5 -5 a 5 5 0 0 1 5 5 a 5 5 0 0 1 -5 5 a 5 5 0 0 1 -5 -5"/>
<path d=" M 25 1467 h 10"/>
<path d=" M 164 1467 h 10"/>
<path d=" M 336 1467 h 10"/>
</g>
<g class="sequence">
<path d=" M 10 1531 a 5 5 0 0 1 5 -5 a 5 5 0 0 1 5 5 a 5 5 0 0 1 -5 5 a 5 5 0 0 1 -5 -5 m 10 0 h 5"/>
<text class="comment" id="Boolean" x="64" y="1536">
Boolean</text>
<g class="choice">
<path d=" M 104 1531 h 24 m 52 0 h 32"/>
<g class="string">
<rect height="22" rx="10" ry="10" width="52" x="128" y="1520"/>
<text x="154" y="1536">
true</text>
</g>
<path d=" M 104 1531 a 12 12 0 0 1 12 12 v 9 m 84 0 v -9 a 12 12 0 0 1 12 -12"/>
<path d=" M 116 1552 v 0 a 12 12 0 0 0 12 12 m 60 0 h 0 a 12 12 0 0 0 12 -12 v 0"/>
<g class="string">
<rect height="22" rx="10" ry="10" width="60" x="128" y="1553"/>
<text x="158" y="1569">
false</text>
</g>
</g>
<path d=" M 222 1531 h 5 a 5 5 0 0 1 5 -5 a 5 5 0 0 1 5 5 a 5 5 0 0 1 -5 5 a 5 5 0 0 1 -5 -5"/>
<path d=" M 25 1531 h 10"/>
<path d=" M 94 1531 h 10"/>
<path d=" M 212 1531 h 10"/>
</g>
<g class="sequence">
<path d=" M 10 1598 a 5 5 0 0 1 5 -5 a 5 5 0 0 1 5 5 a 5 5 0 0 1 -5 5 a 5 5 0 0 1 -5 -5 m 10 0 h 5"/>
<text class="comment" id="Integer" x="64" y="1603">
Integer</text>
<g class="string">
<rect height="22" rx="10" ry="10" width="124" x="104" y="1587"/>
<text x="166" y="1603">
0|[1-9][0-9]*</text>
</g>
<path d=" M 238 1598 h 5 a 5 5 0 0 1 5 -5 a 5 5 0 0 1 5 5 a 5 5 0 0 1 -5 5 a 5 5 0 0 1 -5 -5"/>
<path d=" M 25 1598 h 10"/>
<path d=" M 94 1598 h 10"/>
<path d=" M 228 1598 h 10"/>
</g>
<g class="sequence">
<path d=" M 10 1632 a 5 5 0 0 1 5 -5 a 5 5 0 0 1 5 5 a 5 5 0 0 1 -5 5 a 5 5 0 0 1 -5 -5 m 10 0 h 5"/>
<text class="comment" id="RangeExact" x="75" y="1637">
RangeExact</text>
<g class="sequence">
<g class="string">
<rect height="22" rx="10" ry="10" width="28" x="125" y="1621"/>
<text x="139" y="1637">
{</text>
</g>
<g class="character">
<rect height="22" rx="10" ry="10" width="76" x="163" y="1621"/>
<text x="201" y="1637">
IGNORED</text>
</g>
<a class="link" xlink:href="#Integer">
<g class="symbol">
<rect height="22" width="76" x="249" y="1621"/>
<text x="287" y="1637">
Integer</text>
</g>
</a>
<g class="character">
<rect height="22" rx="10" ry="10" width="76" x="335" y="1621"/>
<text x="373" y="1637">
IGNORED</text>
</g>
<g class="string">
<rect height="22" rx="10" ry="10" width="28" x="421" y="1621"/>
<text x="435" y="1637">
}</text>
</g>
<path d=" M 153 1632 h 10"/>
<path d=" M 239 1632 h 10"/>
<path d=" M 325 1632 h 10"/>
<path d=" M 411 1632 h 10"/>
</g>
<path d=" M 459 1632 h 5 a 5 5 0 0 1 5 -5 a 5 5 0 0 1 5 5 a 5 5 0 0 1 -5 5 a 5 5 0 0 1 -5 -5"/>
<path d=" M 25 1632 h 10"/>
<path d=" M 115 1632 h 10"/>
<path d=" M 449 1632 h 10"/>
</g>
<g class="sequence">
<path d=" M 10 1679 a 5 5 0 0 1 5 -5 a 5 5 0 0 1 5 5 a 5 5 0 0 1 -5 5 a 5 5 0 0 1 -5 -5 m 10 0 h 5"/>
<text class="comment" id="Range" x="57" y="1684">
Range</text>
<g class="sequence">
<g class="string">
<rect height="22" rx="10" ry="10" width="28" x="90" y="1668"/>
<text x="104" y="1684">
{</text>
</g>
<g class="character">
<rect height="22" rx="10" ry="10" width="76" x="128" y="1668"/>
<text x="166" y="1684">
IGNORED</text>
</g>
<g class="optional">
<path d=" M 214 1679 h 24 m -24 0 a 12 12 0 0 0 12 -12 v 0 a 12 12 0 0 1 12 -12 h 76 m -35 0 l -5 -5 m 0 10 l 5 -5 m 35 0 a 12 12 0 0 1 12 12 v 0 a 12 12 0 0 0 12 12 h -24"/>
<a class="link" xlink:href="#Integer">
<g class="symbol">
<rect height="22" width="76" x="238" y="1668"/>
<text x="276" y="1684">
Integer</text>
</g>
</a>
</g>
<g class="character">
<rect height="22" rx="10" ry="10" width="76" x="348" y="1668"/>
<text x="386" y="1684">
IGNORED</text>
</g>
<g class="string">
<rect height="22" rx="10" ry="10" width="28" x="434" y="1668"/>
<text x="448" y="1684">
,</text>
</g>
<g class="character">
<rect height="22" rx="10" ry="10" width="76" x="472" y="1668"/>
<text x="510" y="1684">
IGNORED</text>
</g>
<g class="optional">
<path d=" M 558 1679 h 24 m -24 0 a 12 12 0 0 0 12 -12 v 0 a 12 12 0 0 1 12 -12 h 76 m -35 0 l -5 -5 m 0 10 l 5 -5 m 35 0 a 12 12 0 0 1 12 12 v 0 a 12 12 0 0 0 12 12 h -24"/>
<a class="link" xlink:href="#Integer">
<g class="symbol">
<rect height="22" width="76" x="582" y="1668"/>
<text x="620" y="1684">
Integer</text>
</g>
</a>
</g>
<g class="character">
<rect height="22" rx="10" ry="10" width="76" x="692" y="1668"/>
<text x="730" y="1684">
IGNORED</text>
</g>
<g class="string">
<rect height="22" rx="10" ry="10" width="28" x="778" y="1668"/>
<text x="792" y="1684">
}</text>
</g>
<path d=" M 118 1679 h 10"/>
<path d=" M 204 1679 h 10"/>
<path d=" M 338 1679 h 10"/>
<path d=" M 424 1679 h 10"/>
<path d=" M 462 1679 h 10"/>
<path d=" M 548 1679 h 10"/>
<path d=" M 682 1679 h 10"/>
<path d=" M 768 1679 h 10"/>
</g>
<path d=" M 816 1679 h 5 a 5 5 0 0 1 5 -5 a 5 5 0 0 1 5 5 a 5 5 0 0 1 -5 5 a 5 5 0 0 1 -5 -5"/>
<path d=" M 25 1679 h 10"/>
<path d=" M 80 1679 h 10"/>
<path d=" M 806 1679 h 10"/>
</g>
<g class="sequence">
<path d=" M 10 1713 a 5 5 0 0 1 5 -5 a 5 5 0 0 1 5 5 a 5 5 0 0 1 -5 5 a 5 5 0 0 1 -5 -5 m 10 0 h 5"/>
<text class="comment" id="ModifierCall" x="82" y="1718">
ModifierCall</text>
<g class="sequence">
<g class="choice">
<path d=" M 139 1713 h 24 m 84 0 h 24"/>
<a class="link" xlink:href="#KW_CLASS">
<g class="symbol">
<rect height="22" width="84" x="163" y="1702"/>
<text x="205" y="1718">
KW_CLASS</text>
</g>
</a>
<path d=" M 139 1713 a 12 12 0 0 1 12 12 v 9 m 108 0 v -9 a 12 12 0 0 1 12 -12"/>
<path d=" M 151 1734 v 33 m 108 0 v -33"/>
<path d=" M 151 1734 v 0 a 12 12 0 0 0 12 12 m 84 0 h 0 a 12 12 0 0 0 12 -12 v 0"/>
<a class="link" xlink:href="#KW_UNION">
<g class="symbol">
<rect height="22" width="84" x="163" y="1735"/>
<text x="205" y="1751">
KW_UNION</text>
</g>
</a>
<path d=" M 151 1767 v 0 a 12 12 0 0 0 12 12 m 84 0 h 0 a 12 12 0 0 0 12 -12 v 0"/>
<a class="link" xlink:href="#KW_TRAIT">
<g class="symbol">
<rect height="22" width="84" x="163" y="1768"/>
<text x="205" y="1784">
KW_TRAIT</text>
</g>
</a>
</g>
<a class="link" xlink:href="#Identifier">
<g class="symbol">
<rect height="22" width="100" x="281" y="1702"/>
<text x="331" y="1718">
Identifier</text>
</g>
</a>
<path d=" M 271 1713 h 10"/>
</g>
<path d=" M 391 1713 h 5 a 5 5 0 0 1 5 -5 a 5 5 0 0 1 5 5 a 5 5 0 0 1 -5 5 a 5 5 0 0 1 -5 -5"/>
<path d=" M 25 1713 h 10"/>
<path d=" M 129 1713 h 10"/>
<path d=" M 381 1713 h 10"/>
</g>
<g class="sequence">
<path d=" M 10 1813 a 5 5 0 0 1 5 -5 a 5 5 0 0 1 5 5 a 5 5 0 0 1 -5 5 a 5 5 0 0 1 -5 -5 m 10 0 h 5"/>
<text class="comment" id="KW_AS" x="57" y="1818">
KW_AS</text>
<g class="string">
<rect height="22" rx="10" ry="10" width="36" x="90" y="1802"/>
<text x="108" y="1818">
as</text>
</g>
<path d=" M 136 1813 h 5 a 5 5 0 0 1 5 -5 a 5 5 0 0 1 5 5 a 5 5 0 0 1 -5 5 a 5 5 0 0 1 -5 -5"/>
<path d=" M 25 1813 h 10"/>
<path d=" M 80 1813 h 10"/>
<path d=" M 126 1813 h 10"/>
</g>
<g class="sequence">
<path d=" M 10 1847 a 5 5 0 0 1 5 -5 a 5 5 0 0 1 5 5 a 5 5 0 0 1 -5 5 a 5 5 0 0 1 -5 -5 m 10 0 h 5"/>
<text class="comment" id="WhiteSpace" x="75" y="1852">
WhiteSpace</text>
<g class="string">
<rect height="22" rx="10" ry="10" width="148" x="125" y="1836"/>
<text x="199" y="1852">
\p{White_Space}+</text>
</g>
<path d=" M 283 1847 h 5 a 5 5 0 0 1 5 -5 a 5 5 0 0 1 5 5 a 5 5 0 0 1 -5 5 a 5 5 0 0 1 -5 -5"/>
<path d=" M 25 1847 h 10"/>
<path d=" M 115 1847 h 10"/>
<path d=" M 273 1847 h 10"/>
</g>
<g class="sequence">
<path d=" M 10 1881 a 5 5 0 0 1 5 -5 a 5 5 0 0 1 5 5 a 5 5 0 0 1 -5 5 a 5 5 0 0 1 -5 -5 m 10 0 h 5"/>
<text class="comment" id="Comment" x="64" y="1886">
Comment</text>
<g class="choice">
<path d=" M 104 1881 h 24 m 130 0 h 24"/>
<g class="sequence">
<g class="string">
<rect height="22" rx="10" ry="10" width="36" x="128" y="1870"/>
<text x="146" y="1886">
//</text>
</g>
<g class="string">
<rect height="22" rx="10" ry="10" width="84" x="174" y="1870"/>
<text x="216" y="1886">
[^\n\r]*</text>
</g>
<path d=" M 164 1881 h 10"/>
</g>
<path d=" M 104 1881 a 12 12 0 0 1 12 12 v 9 m 154 0 v -9 a 12 12 0 0 1 12 -12"/>
<path d=" M 116 1902 v 0 a 12 12 0 0 0 12 12 m 82 0 h 48 a 12 12 0 0 0 12 -12 v 0"/>
<g class="sequence">
<g class="string">
<rect height="22" rx="10" ry="10" width="36" x="128" y="1903"/>
<text x="146" y="1919">
/*</text>
</g>
<g class="string">
<rect height="22" rx="10" ry="10" width="36" x="174" y="1903"/>
<text x="192" y="1919">
*/</text>
</g>
<path d=" M 164 1914 h 10"/>
</g>
</g>
<path d=" M 292 1881 h 5 a 5 5 0 0 1 5 -5 a 5 5 0 0 1 5 5 a 5 5 0 0 1 -5 5 a 5 5 0 0 1 -5 -5"/>
<path d=" M 25 1881 h 10"/>
<path d=" M 94 1881 h 10"/>
<path d=" M 282 1881 h 10"/>
</g>
</g>
</svg>