<svg class="railroad" viewBox="0 0 971 1404" xmlns="http://www.w3.org/2000/svg" xmlns:xlink="http://www.w3.org/1999/xlink">
<style type="text/css">
svg.railroad {
    background-color: hsl(30, 20%, 95%);
    background-size: 15px 15px;
    background-image: linear-gradient(to right, rgba(30, 30, 30, .05) 1px, transparent 1px),
    linear-gradient(to bottom, rgba(30, 30, 30, .05) 1px, transparent 1px);
}

svg.railroad path {
    stroke-width: 3px;
    stroke: black;
    fill: transparent;
}

svg.railroad .debug {
    stroke-width: 1px;
    stroke: red;
}

svg.railroad text {
    font-size: 14px;
    font-family: monospace;
    text-anchor: middle;
}

svg.railroad .nonterminal text {
    font-weight: bold;
}

svg.railroad text.comment {
    font-family: serif;
    font-style: italic;
    font-size: 12px;
}

svg.railroad rect {
    stroke-width: 3px;
    stroke: black;
}

svg.railroad g.labeledbox > rect {
    stroke-width: 1px;
    stroke: grey;
    stroke-dasharray: 5px;
    fill: rgba(90, 90, 150, .1);
}

svg.railroad .symbol > rect {
    fill: rgba(90, 90, 150, .1);
}

svg.railroad .regex > rect {
    fill: honeydew;
}

svg.railroad .string > rect {
    fill: cornsilk;
}

svg.railroad .character > rect {
    fill: lightcoral;
}
</style>
<g class="verticalgrid">
<g class="sequence">
<path d=" M 10 21 a 5 5 0 0 1 5 -5 a 5 5 0 0 1 5 5 a 5 5 0 0 1 -5 5 a 5 5 0 0 1 -5 -5 m 10 0 h 5"/>
<text class="comment" id="Program" x="64" y="26">
Program</text>
<g class="repeat">
<path d=" M 104 21 h 12 m 178 0 h 12 m -12 0 a 12 12 0 0 1 12 12 v 7 a 12 12 0 0 1 -12 12 m -52 0 h -126 m 66 0 l 5 -5 m 0 10 l -5 -5 m -66 0 a 12 12 0 0 1 -12 -12 v -7 a 12 12 0 0 1 12 -12"/>
<text class="comment" x="268" y="57">
[0, ∞]</text>
<g class="sequence">
<g class="character">
<rect height="22" rx="10" ry="10" width="76" x="116" y="10"/>
<text x="154" y="26">
IGNORED</text>
</g>
<a class="link" xlink:href="#Statement">
<g class="symbol">
<rect height="22" width="92" x="202" y="10"/>
<text x="248" y="26">
Statement</text>
</g>
</a>
<path d=" M 192 21 h 10"/>
</g>
</g>
<path d=" M 316 21 h 5 a 5 5 0 0 1 5 -5 a 5 5 0 0 1 5 5 a 5 5 0 0 1 -5 5 a 5 5 0 0 1 -5 -5"/>
<path d=" M 25 21 h 10"/>
<path d=" M 94 21 h 10"/>
<path d=" M 306 21 h 10"/>
</g>
<g class="sequence">
<path d=" M 10 85 a 5 5 0 0 1 5 -5 a 5 5 0 0 1 5 5 a 5 5 0 0 1 -5 5 a 5 5 0 0 1 -5 -5 m 10 0 h 5"/>
<text class="comment" id="Statement" x="71" y="90">
Statement</text>
<g class="choice">
<path d=" M 118 85 h 0 m 140 0 h 0"/>
<a class="link" xlink:href="#DefineNamespace">
<g class="symbol">
<rect height="22" width="140" x="118" y="74"/>
<text x="188" y="90">
DefineNamespace</text>
</g>
</a>
</g>
<path d=" M 268 85 h 5 a 5 5 0 0 1 5 -5 a 5 5 0 0 1 5 5 a 5 5 0 0 1 -5 5 a 5 5 0 0 1 -5 -5"/>
<path d=" M 25 85 h 10"/>
<path d=" M 108 85 h 10"/>
<path d=" M 258 85 h 10"/>
</g>
<g class="sequence">
<path d=" M 10 119 a 5 5 0 0 1 5 -5 a 5 5 0 0 1 5 5 a 5 5 0 0 1 -5 5 a 5 5 0 0 1 -5 -5 m 10 0 h 5"/>
<text class="comment" id="EOS" x="50" y="124">
EOS</text>
<g class="choice">
<path d=" M 76 119 h 24 m 60 0 h 24"/>
<g class="string">
<rect height="22" rx="10" ry="10" width="60" x="100" y="108"/>
<text x="130" y="124">
[;；]</text>
</g>
<path d=" M 76 119 a 12 12 0 0 1 12 12 v 9 m 84 0 v -9 a 12 12 0 0 1 12 -12"/>
<path d=" M 88 140 v 0 a 12 12 0 0 0 12 12 m 52 0 h 8 a 12 12 0 0 0 12 -12 v 0"/>
<g class="string">
<rect height="22" rx="10" ry="10" width="52" x="100" y="141"/>
<text x="126" y="157">
⁏|;;</text>
</g>
</g>
<path d=" M 194 119 h 5 a 5 5 0 0 1 5 -5 a 5 5 0 0 1 5 5 a 5 5 0 0 1 -5 5 a 5 5 0 0 1 -5 -5"/>
<path d=" M 25 119 h 10"/>
<path d=" M 66 119 h 10"/>
<path d=" M 184 119 h 10"/>
</g>
<g class="sequence">
<path d=" M 10 186 a 5 5 0 0 1 5 -5 a 5 5 0 0 1 5 5 a 5 5 0 0 1 -5 5 a 5 5 0 0 1 -5 -5 m 10 0 h 5"/>
<text class="comment" id="EOS_FREE" x="68" y="191">
EOS_FREE</text>
<g class="string">
<rect height="22" rx="10" ry="10" width="92" x="111" y="175"/>
<text x="157" y="191">
[,，;；⁏]</text>
</g>
<path d=" M 213 186 h 5 a 5 5 0 0 1 5 -5 a 5 5 0 0 1 5 5 a 5 5 0 0 1 -5 5 a 5 5 0 0 1 -5 -5"/>
<path d=" M 25 186 h 10"/>
<path d=" M 101 186 h 10"/>
<path d=" M 203 186 h 10"/>
</g>
<g class="sequence">
<path d=" M 10 233 a 5 5 0 0 1 5 -5 a 5 5 0 0 1 5 5 a 5 5 0 0 1 -5 5 a 5 5 0 0 1 -5 -5 m 10 0 h 5"/>
<text class="comment" id="DefineNamespace" x="92" y="238">
DefineNamespace</text>
<g class="sequence">
<a class="link" xlink:href="#KW_NAMESPACE">
<g class="symbol">
<rect height="22" width="116" x="160" y="222"/>
<text x="218" y="238">
KW_NAMESPACE</text>
</g>
</a>
<g class="character">
<rect height="22" rx="10" ry="10" width="76" x="286" y="222"/>
<text x="324" y="238">
IGNORED</text>
</g>
<g class="optional">
<path d=" M 372 233 h 24 m -24 0 a 12 12 0 0 0 12 -12 v 0 a 12 12 0 0 1 12 -12 h 116 m -55 0 l -5 -5 m 0 10 l 5 -5 m 55 0 a 12 12 0 0 1 12 12 v 0 a 12 12 0 0 0 12 12 h -24"/>
<a class="link" xlink:href="#OP_NAMESPACE">
<g class="symbol">
<rect height="22" width="116" x="396" y="222"/>
<text x="454" y="238">
OP_NAMESPACE</text>
</g>
</a>
</g>
<g class="character">
<rect height="22" rx="10" ry="10" width="76" x="546" y="222"/>
<text x="584" y="238">
IGNORED</text>
</g>
<a class="link" xlink:href="#NamepathFree">
<g class="symbol">
<rect height="22" width="116" x="632" y="222"/>
<text x="690" y="238">
NamepathFree</text>
</g>
</a>
<g class="character">
<rect height="22" rx="10" ry="10" width="76" x="758" y="222"/>
<text x="796" y="238">
IGNORED</text>
</g>
<g class="optional">
<path d=" M 844 233 h 24 m -24 0 a 12 12 0 0 0 12 -12 v 0 a 12 12 0 0 1 12 -12 h 44 a 12 12 0 0 1 12 12 v 0 a 12 12 0 0 0 12 12 h -24"/>
<a class="link" xlink:href="#EOS">
<g class="symbol">
<rect height="22" width="44" x="868" y="222"/>
<text x="890" y="238">
EOS</text>
</g>
</a>
</g>
<path d=" M 276 233 h 10"/>
<path d=" M 362 233 h 10"/>
<path d=" M 536 233 h 10"/>
<path d=" M 622 233 h 10"/>
<path d=" M 748 233 h 10"/>
<path d=" M 834 233 h 10"/>
</g>
<path d=" M 946 233 h 5 a 5 5 0 0 1 5 -5 a 5 5 0 0 1 5 5 a 5 5 0 0 1 -5 5 a 5 5 0 0 1 -5 -5"/>
<path d=" M 25 233 h 10"/>
<path d=" M 150 233 h 10"/>
<path d=" M 936 233 h 10"/>
</g>
<g class="sequence">
<path d=" M 10 267 a 5 5 0 0 1 5 -5 a 5 5 0 0 1 5 5 a 5 5 0 0 1 -5 5 a 5 5 0 0 1 -5 -5 m 10 0 h 5"/>
<text class="comment" id="OP_NAMESPACE" x="82" y="272">
OP_NAMESPACE</text>
<g class="choice">
<path d=" M 139 267 h 24 m 28 0 h 24"/>
<g class="string">
<rect height="22" rx="10" ry="10" width="28" x="163" y="256"/>
<text x="177" y="272">
!</text>
</g>
<path d=" M 139 267 a 12 12 0 0 1 12 12 v 9 m 52 0 v -9 a 12 12 0 0 1 12 -12"/>
<path d=" M 151 288 v 33 m 52 0 v -33"/>
<path d=" M 151 288 v 0 a 12 12 0 0 0 12 12 m 28 0 h 0 a 12 12 0 0 0 12 -12 v 0"/>
<g class="string">
<rect height="22" rx="10" ry="10" width="28" x="163" y="289"/>
<text x="177" y="305">
?</text>
</g>
<path d=" M 151 321 v 0 a 12 12 0 0 0 12 12 m 28 0 h 0 a 12 12 0 0 0 12 -12 v 0"/>
<g class="string">
<rect height="22" rx="10" ry="10" width="28" x="163" y="322"/>
<text x="177" y="338">
*</text>
</g>
</g>
<path d=" M 225 267 h 5 a 5 5 0 0 1 5 -5 a 5 5 0 0 1 5 5 a 5 5 0 0 1 -5 5 a 5 5 0 0 1 -5 -5"/>
<path d=" M 25 267 h 10"/>
<path d=" M 129 267 h 10"/>
<path d=" M 215 267 h 10"/>
</g>
<g class="sequence">
<path d=" M 10 367 a 5 5 0 0 1 5 -5 a 5 5 0 0 1 5 5 a 5 5 0 0 1 -5 5 a 5 5 0 0 1 -5 -5 m 10 0 h 5"/>
<text class="comment" id="KW_NAMESPACE" x="82" y="372">
KW_NAMESPACE</text>
<g class="string">
<rect height="22" rx="10" ry="10" width="92" x="139" y="356"/>
<text x="185" y="372">
namespace</text>
</g>
<path d=" M 241 367 h 5 a 5 5 0 0 1 5 -5 a 5 5 0 0 1 5 5 a 5 5 0 0 1 -5 5 a 5 5 0 0 1 -5 -5"/>
<path d=" M 25 367 h 10"/>
<path d=" M 129 367 h 10"/>
<path d=" M 231 367 h 10"/>
</g>
<g class="sequence">
<path d=" M 10 401 a 5 5 0 0 1 5 -5 a 5 5 0 0 1 5 5 a 5 5 0 0 1 -5 5 a 5 5 0 0 1 -5 -5 m 10 0 h 5"/>
<text class="comment" id="NamepathFree" x="82" y="406">
NamepathFree</text>
<g class="sequence">
<a class="link" xlink:href="#Identifier">
<g class="symbol">
<rect height="22" width="100" x="139" y="390"/>
<text x="189" y="406">
Identifier</text>
</g>
</a>
<g class="character">
<rect height="22" rx="10" ry="10" width="76" x="249" y="390"/>
<text x="287" y="406">
IGNORED</text>
</g>
<g class="repeat">
<path d=" M 335 401 h 12 m 366 0 h 12 m -12 0 a 12 12 0 0 1 12 12 v 40 a 12 12 0 0 1 -12 12 m -52 0 h -314 m 160 0 l 5 -5 m 0 10 l -5 -5 m -160 0 a 12 12 0 0 1 -12 -12 v -40 a 12 12 0 0 1 12 -12"/>
<text class="comment" x="687" y="470">
[0, ∞]</text>
<g class="sequence">
<g class="character">
<rect height="22" rx="10" ry="10" width="76" x="347" y="390"/>
<text x="385" y="406">
IGNORED</text>
</g>
<g class="sequence">
<g class="choice">
<path d=" M 433 401 h 24 m 28 0 h 32"/>
<g class="string">
<rect height="22" rx="10" ry="10" width="28" x="457" y="390"/>
<text x="471" y="406">
.</text>
</g>
<path d=" M 433 401 a 12 12 0 0 1 12 12 v 9 m 60 0 v -9 a 12 12 0 0 1 12 -12"/>
<path d=" M 445 422 v 0 a 12 12 0 0 0 12 12 m 36 0 h 0 a 12 12 0 0 0 12 -12 v 0"/>
<g class="string">
<rect height="22" rx="10" ry="10" width="36" x="457" y="423"/>
<text x="475" y="439">
::</text>
</g>
</g>
<g class="character">
<rect height="22" rx="10" ry="10" width="76" x="527" y="390"/>
<text x="565" y="406">
IGNORED</text>
</g>
<a class="link" xlink:href="#Identifier">
<g class="symbol">
<rect height="22" width="100" x="613" y="390"/>
<text x="663" y="406">
Identifier</text>
</g>
</a>
<path d=" M 517 401 h 10"/>
<path d=" M 603 401 h 10"/>
</g>
<path d=" M 423 401 h 10"/>
</g>
</g>
<path d=" M 239 401 h 10"/>
<path d=" M 325 401 h 10"/>
</g>
<path d=" M 735 401 h 5 a 5 5 0 0 1 5 -5 a 5 5 0 0 1 5 5 a 5 5 0 0 1 -5 5 a 5 5 0 0 1 -5 -5"/>
<path d=" M 25 401 h 10"/>
<path d=" M 129 401 h 10"/>
<path d=" M 725 401 h 10"/>
</g>
<g class="sequence">
<path d=" M 10 498 a 5 5 0 0 1 5 -5 a 5 5 0 0 1 5 5 a 5 5 0 0 1 -5 5 a 5 5 0 0 1 -5 -5 m 10 0 h 5"/>
<text class="comment" id="Namepath" x="68" y="503">
Namepath</text>
<g class="sequence">
<a class="link" xlink:href="#Identifier">
<g class="symbol">
<rect height="22" width="100" x="111" y="487"/>
<text x="161" y="503">
Identifier</text>
</g>
</a>
<g class="character">
<rect height="22" rx="10" ry="10" width="76" x="221" y="487"/>
<text x="259" y="503">
IGNORED</text>
</g>
<g class="repeat">
<path d=" M 307 498 h 12 m 318 0 h 12 m -12 0 a 12 12 0 0 1 12 12 v 7 a 12 12 0 0 1 -12 12 m -52 0 h -266 m 136 0 l 5 -5 m 0 10 l -5 -5 m -136 0 a 12 12 0 0 1 -12 -12 v -7 a 12 12 0 0 1 12 -12"/>
<text class="comment" x="611" y="534">
[0, ∞]</text>
<g class="sequence">
<g class="character">
<rect height="22" rx="10" ry="10" width="76" x="319" y="487"/>
<text x="357" y="503">
IGNORED</text>
</g>
<g class="sequence">
<g class="string">
<rect height="22" rx="10" ry="10" width="36" x="405" y="487"/>
<text x="423" y="503">
::</text>
</g>
<g class="character">
<rect height="22" rx="10" ry="10" width="76" x="451" y="487"/>
<text x="489" y="503">
IGNORED</text>
</g>
<a class="link" xlink:href="#Identifier">
<g class="symbol">
<rect height="22" width="100" x="537" y="487"/>
<text x="587" y="503">
Identifier</text>
</g>
</a>
<path d=" M 441 498 h 10"/>
<path d=" M 527 498 h 10"/>
</g>
<path d=" M 395 498 h 10"/>
</g>
</g>
<path d=" M 211 498 h 10"/>
<path d=" M 297 498 h 10"/>
</g>
<path d=" M 659 498 h 5 a 5 5 0 0 1 5 -5 a 5 5 0 0 1 5 5 a 5 5 0 0 1 -5 5 a 5 5 0 0 1 -5 -5"/>
<path d=" M 25 498 h 10"/>
<path d=" M 101 498 h 10"/>
<path d=" M 649 498 h 10"/>
</g>
<g class="sequence">
<path d=" M 10 562 a 5 5 0 0 1 5 -5 a 5 5 0 0 1 5 5 a 5 5 0 0 1 -5 5 a 5 5 0 0 1 -5 -5 m 10 0 h 5"/>
<text class="comment" id="Identifier" x="75" y="567">
Identifier</text>
<g class="string">
<rect height="22" rx="10" ry="10" width="292" x="125" y="551"/>
<text x="271" y="567">
[_\p{XID_start}]\p{XID_continue}*</text>
</g>
<path d=" M 427 562 h 5 a 5 5 0 0 1 5 -5 a 5 5 0 0 1 5 5 a 5 5 0 0 1 -5 5 a 5 5 0 0 1 -5 -5"/>
<path d=" M 25 562 h 10"/>
<path d=" M 115 562 h 10"/>
<path d=" M 417 562 h 10"/>
</g>
<g class="sequence">
<path d=" M 10 596 a 5 5 0 0 1 5 -5 a 5 5 0 0 1 5 5 a 5 5 0 0 1 -5 5 a 5 5 0 0 1 -5 -5 m 10 0 h 5"/>
<text class="comment" id="Boolean" x="64" y="601">
Boolean</text>
<g class="choice">
<path d=" M 104 596 h 24 m 52 0 h 32"/>
<g class="string">
<rect height="22" rx="10" ry="10" width="52" x="128" y="585"/>
<text x="154" y="601">
true</text>
</g>
<path d=" M 104 596 a 12 12 0 0 1 12 12 v 9 m 84 0 v -9 a 12 12 0 0 1 12 -12"/>
<path d=" M 116 617 v 0 a 12 12 0 0 0 12 12 m 60 0 h 0 a 12 12 0 0 0 12 -12 v 0"/>
<g class="string">
<rect height="22" rx="10" ry="10" width="60" x="128" y="618"/>
<text x="158" y="634">
false</text>
</g>
</g>
<path d=" M 222 596 h 5 a 5 5 0 0 1 5 -5 a 5 5 0 0 1 5 5 a 5 5 0 0 1 -5 5 a 5 5 0 0 1 -5 -5"/>
<path d=" M 25 596 h 10"/>
<path d=" M 94 596 h 10"/>
<path d=" M 212 596 h 10"/>
</g>
<g class="sequence">
<path d=" M 10 663 a 5 5 0 0 1 5 -5 a 5 5 0 0 1 5 5 a 5 5 0 0 1 -5 5 a 5 5 0 0 1 -5 -5 m 10 0 h 5"/>
<text class="comment" id="Integer" x="64" y="668">
Integer</text>
<g class="string">
<rect height="22" rx="10" ry="10" width="124" x="104" y="652"/>
<text x="166" y="668">
0|[1-9][0-9]*</text>
</g>
<path d=" M 238 663 h 5 a 5 5 0 0 1 5 -5 a 5 5 0 0 1 5 5 a 5 5 0 0 1 -5 5 a 5 5 0 0 1 -5 -5"/>
<path d=" M 25 663 h 10"/>
<path d=" M 94 663 h 10"/>
<path d=" M 228 663 h 10"/>
</g>
<g class="sequence">
<path d=" M 10 697 a 5 5 0 0 1 5 -5 a 5 5 0 0 1 5 5 a 5 5 0 0 1 -5 5 a 5 5 0 0 1 -5 -5 m 10 0 h 5"/>
<text class="comment" id="RangeExact" x="75" y="702">
RangeExact</text>
<g class="sequence">
<g class="string">
<rect height="22" rx="10" ry="10" width="28" x="125" y="686"/>
<text x="139" y="702">
{</text>
</g>
<g class="character">
<rect height="22" rx="10" ry="10" width="76" x="163" y="686"/>
<text x="201" y="702">
IGNORED</text>
</g>
<a class="link" xlink:href="#Integer">
<g class="symbol">
<rect height="22" width="76" x="249" y="686"/>
<text x="287" y="702">
Integer</text>
</g>
</a>
<g class="character">
<rect height="22" rx="10" ry="10" width="76" x="335" y="686"/>
<text x="373" y="702">
IGNORED</text>
</g>
<g class="string">
<rect height="22" rx="10" ry="10" width="28" x="421" y="686"/>
<text x="435" y="702">
}</text>
</g>
<path d=" M 153 697 h 10"/>
<path d=" M 239 697 h 10"/>
<path d=" M 325 697 h 10"/>
<path d=" M 411 697 h 10"/>
</g>
<path d=" M 459 697 h 5 a 5 5 0 0 1 5 -5 a 5 5 0 0 1 5 5 a 5 5 0 0 1 -5 5 a 5 5 0 0 1 -5 -5"/>
<path d=" M 25 697 h 10"/>
<path d=" M 115 697 h 10"/>
<path d=" M 449 697 h 10"/>
</g>
<g class="sequence">
<path d=" M 10 744 a 5 5 0 0 1 5 -5 a 5 5 0 0 1 5 5 a 5 5 0 0 1 -5 5 a 5 5 0 0 1 -5 -5 m 10 0 h 5"/>
<text class="comment" id="Range" x="57" y="749">
Range</text>
<g class="sequence">
<g class="string">
<rect height="22" rx="10" ry="10" width="28" x="90" y="733"/>
<text x="104" y="749">
{</text>
</g>
<g class="character">
<rect height="22" rx="10" ry="10" width="76" x="128" y="733"/>
<text x="166" y="749">
IGNORED</text>
</g>
<g class="optional">
<path d=" M 214 744 h 24 m -24 0 a 12 12 0 0 0 12 -12 v 0 a 12 12 0 0 1 12 -12 h 76 m -35 0 l -5 -5 m 0 10 l 5 -5 m 35 0 a 12 12 0 0 1 12 12 v 0 a 12 12 0 0 0 12 12 h -24"/>
<a class="link" xlink:href="#Integer">
<g class="symbol">
<rect height="22" width="76" x="238" y="733"/>
<text x="276" y="749">
Integer</text>
</g>
</a>
</g>
<g class="character">
<rect height="22" rx="10" ry="10" width="76" x="348" y="733"/>
<text x="386" y="749">
IGNORED</text>
</g>
<g class="string">
<rect height="22" rx="10" ry="10" width="28" x="434" y="733"/>
<text x="448" y="749">
,</text>
</g>
<g class="character">
<rect height="22" rx="10" ry="10" width="76" x="472" y="733"/>
<text x="510" y="749">
IGNORED</text>
</g>
<g class="optional">
<path d=" M 558 744 h 24 m -24 0 a 12 12 0 0 0 12 -12 v 0 a 12 12 0 0 1 12 -12 h 76 m -35 0 l -5 -5 m 0 10 l 5 -5 m 35 0 a 12 12 0 0 1 12 12 v 0 a 12 12 0 0 0 12 12 h -24"/>
<a class="link" xlink:href="#Integer">
<g class="symbol">
<rect height="22" width="76" x="582" y="733"/>
<text x="620" y="749">
Integer</text>
</g>
</a>
</g>
<g class="character">
<rect height="22" rx="10" ry="10" width="76" x="692" y="733"/>
<text x="730" y="749">
IGNORED</text>
</g>
<g class="string">
<rect height="22" rx="10" ry="10" width="28" x="778" y="733"/>
<text x="792" y="749">
}</text>
</g>
<path d=" M 118 744 h 10"/>
<path d=" M 204 744 h 10"/>
<path d=" M 338 744 h 10"/>
<path d=" M 424 744 h 10"/>
<path d=" M 462 744 h 10"/>
<path d=" M 548 744 h 10"/>
<path d=" M 682 744 h 10"/>
<path d=" M 768 744 h 10"/>
</g>
<path d=" M 816 744 h 5 a 5 5 0 0 1 5 -5 a 5 5 0 0 1 5 5 a 5 5 0 0 1 -5 5 a 5 5 0 0 1 -5 -5"/>
<path d=" M 25 744 h 10"/>
<path d=" M 80 744 h 10"/>
<path d=" M 806 744 h 10"/>
</g>
<g class="sequence">
<path d=" M 10 778 a 5 5 0 0 1 5 -5 a 5 5 0 0 1 5 5 a 5 5 0 0 1 -5 5 a 5 5 0 0 1 -5 -5 m 10 0 h 5"/>
<text class="comment" id="ModifierCall" x="82" y="783">
ModifierCall</text>
<g class="sequence">
<g class="choice">
<path d=" M 139 778 h 24 m 84 0 h 24"/>
<a class="link" xlink:href="#KW_CLASS">
<g class="symbol">
<rect height="22" width="84" x="163" y="767"/>
<text x="205" y="783">
KW_CLASS</text>
</g>
</a>
<path d=" M 139 778 a 12 12 0 0 1 12 12 v 9 m 108 0 v -9 a 12 12 0 0 1 12 -12"/>
<path d=" M 151 799 v 33 m 108 0 v -33"/>
<path d=" M 151 832 v 33 m 108 0 v -33"/>
<path d=" M 151 865 v 33 m 108 0 v -33"/>
<path d=" M 151 799 v 0 a 12 12 0 0 0 12 12 m 84 0 h 0 a 12 12 0 0 0 12 -12 v 0"/>
<a class="link" xlink:href="#KW_UNION">
<g class="symbol">
<rect height="22" width="84" x="163" y="800"/>
<text x="205" y="816">
KW_UNION</text>
</g>
</a>
<path d=" M 151 832 v 0 a 12 12 0 0 0 12 12 m 84 0 h 0 a 12 12 0 0 0 12 -12 v 0"/>
<a class="link" xlink:href="#KW_GROUP">
<g class="symbol">
<rect height="22" width="84" x="163" y="833"/>
<text x="205" y="849">
KW_GROUP</text>
</g>
</a>
<path d=" M 151 865 v 0 a 12 12 0 0 0 12 12 m 84 0 h 0 a 12 12 0 0 0 12 -12 v 0"/>
<a class="link" xlink:href="#KW_MACRO">
<g class="symbol">
<rect height="22" width="84" x="163" y="866"/>
<text x="205" y="882">
KW_MACRO</text>
</g>
</a>
<path d=" M 151 898 v 0 a 12 12 0 0 0 12 12 m 84 0 h 0 a 12 12 0 0 0 12 -12 v 0"/>
<a class="link" xlink:href="#KW_CLIMB">
<g class="symbol">
<rect height="22" width="84" x="163" y="899"/>
<text x="205" y="915">
KW_CLIMB</text>
</g>
</a>
</g>
<a class="link" xlink:href="#Identifier">
<g class="symbol">
<rect height="22" width="100" x="281" y="767"/>
<text x="331" y="783">
Identifier</text>
</g>
</a>
<path d=" M 271 778 h 10"/>
</g>
<path d=" M 391 778 h 5 a 5 5 0 0 1 5 -5 a 5 5 0 0 1 5 5 a 5 5 0 0 1 -5 5 a 5 5 0 0 1 -5 -5"/>
<path d=" M 25 778 h 10"/>
<path d=" M 129 778 h 10"/>
<path d=" M 381 778 h 10"/>
</g>
<g class="sequence">
<path d=" M 10 944 a 5 5 0 0 1 5 -5 a 5 5 0 0 1 5 5 a 5 5 0 0 1 -5 5 a 5 5 0 0 1 -5 -5 m 10 0 h 5"/>
<text class="comment" id="OP_CATEGORY" x="78" y="949">
OP_CATEGORY</text>
<g class="string">
<rect height="22" rx="10" ry="10" width="44" x="132" y="933"/>
<text x="154" y="949">
\\p</text>
</g>
<path d=" M 186 944 h 5 a 5 5 0 0 1 5 -5 a 5 5 0 0 1 5 5 a 5 5 0 0 1 -5 5 a 5 5 0 0 1 -5 -5"/>
<path d=" M 25 944 h 10"/>
<path d=" M 122 944 h 10"/>
<path d=" M 176 944 h 10"/>
</g>
<g class="sequence">
<path d=" M 10 978 a 5 5 0 0 1 5 -5 a 5 5 0 0 1 5 5 a 5 5 0 0 1 -5 5 a 5 5 0 0 1 -5 -5 m 10 0 h 5"/>
<text class="comment" id="KW_EXTERNAL" x="78" y="983">
KW_EXTERNAL</text>
<g class="choice">
<path d=" M 132 978 h 24 m 68 0 h 48"/>
<g class="string">
<rect height="22" rx="10" ry="10" width="68" x="156" y="967"/>
<text x="190" y="983">
parser</text>
</g>
<path d=" M 132 978 a 12 12 0 0 1 12 12 v 9 m 116 0 v -9 a 12 12 0 0 1 12 -12"/>
<path d=" M 144 999 v 33 m 116 0 v -33"/>
<path d=" M 144 999 v 0 a 12 12 0 0 0 12 12 m 92 0 h 0 a 12 12 0 0 0 12 -12 v 0"/>
<g class="string">
<rect height="22" rx="10" ry="10" width="92" x="156" y="1000"/>
<text x="202" y="1016">
inspector</text>
</g>
<path d=" M 144 1032 v 0 a 12 12 0 0 0 12 12 m 84 0 h 8 a 12 12 0 0 0 12 -12 v 0"/>
<g class="string">
<rect height="22" rx="10" ry="10" width="84" x="156" y="1033"/>
<text x="198" y="1049">
external</text>
</g>
</g>
<path d=" M 282 978 h 5 a 5 5 0 0 1 5 -5 a 5 5 0 0 1 5 5 a 5 5 0 0 1 -5 5 a 5 5 0 0 1 -5 -5"/>
<path d=" M 25 978 h 10"/>
<path d=" M 122 978 h 10"/>
<path d=" M 272 978 h 10"/>
</g>
<g class="sequence">
<path d=" M 10 1078 a 5 5 0 0 1 5 -5 a 5 5 0 0 1 5 5 a 5 5 0 0 1 -5 5 a 5 5 0 0 1 -5 -5 m 10 0 h 5"/>
<text class="comment" id="KW_GRAMMAR" x="75" y="1083">
KW_GRAMMAR</text>
<g class="string">
<rect height="22" rx="10" ry="10" width="76" x="125" y="1067"/>
<text x="163" y="1083">
grammar</text>
</g>
<path d=" M 211 1078 h 5 a 5 5 0 0 1 5 -5 a 5 5 0 0 1 5 5 a 5 5 0 0 1 -5 5 a 5 5 0 0 1 -5 -5"/>
<path d=" M 25 1078 h 10"/>
<path d=" M 115 1078 h 10"/>
<path d=" M 201 1078 h 10"/>
</g>
<g class="sequence">
<path d=" M 10 1112 a 5 5 0 0 1 5 -5 a 5 5 0 0 1 5 5 a 5 5 0 0 1 -5 5 a 5 5 0 0 1 -5 -5 m 10 0 h 5"/>
<text class="comment" id="KW_IMPORT" x="71" y="1117">
KW_IMPORT</text>
<g class="string">
<rect height="22" rx="10" ry="10" width="148" x="118" y="1101"/>
<text x="192" y="1117">
using|use|import</text>
</g>
<path d=" M 276 1112 h 5 a 5 5 0 0 1 5 -5 a 5 5 0 0 1 5 5 a 5 5 0 0 1 -5 5 a 5 5 0 0 1 -5 -5"/>
<path d=" M 25 1112 h 10"/>
<path d=" M 108 1112 h 10"/>
<path d=" M 266 1112 h 10"/>
</g>
<g class="sequence">
<path d=" M 10 1146 a 5 5 0 0 1 5 -5 a 5 5 0 0 1 5 5 a 5 5 0 0 1 -5 5 a 5 5 0 0 1 -5 -5 m 10 0 h 5"/>
<text class="comment" id="KW_CLASS" x="68" y="1151">
KW_CLASS</text>
<g class="string">
<rect height="22" rx="10" ry="10" width="116" x="111" y="1135"/>
<text x="169" y="1151">
class|struct</text>
</g>
<path d=" M 237 1146 h 5 a 5 5 0 0 1 5 -5 a 5 5 0 0 1 5 5 a 5 5 0 0 1 -5 5 a 5 5 0 0 1 -5 -5"/>
<path d=" M 25 1146 h 10"/>
<path d=" M 101 1146 h 10"/>
<path d=" M 227 1146 h 10"/>
</g>
<g class="sequence">
<path d=" M 10 1180 a 5 5 0 0 1 5 -5 a 5 5 0 0 1 5 5 a 5 5 0 0 1 -5 5 a 5 5 0 0 1 -5 -5 m 10 0 h 5"/>
<text class="comment" id="KW_UNION" x="68" y="1185">
KW_UNION</text>
<g class="string">
<rect height="22" rx="10" ry="10" width="100" x="111" y="1169"/>
<text x="161" y="1185">
union|enum</text>
</g>
<path d=" M 221 1180 h 5 a 5 5 0 0 1 5 -5 a 5 5 0 0 1 5 5 a 5 5 0 0 1 -5 5 a 5 5 0 0 1 -5 -5"/>
<path d=" M 25 1180 h 10"/>
<path d=" M 101 1180 h 10"/>
<path d=" M 211 1180 h 10"/>
</g>
<g class="sequence">
<path d=" M 10 1214 a 5 5 0 0 1 5 -5 a 5 5 0 0 1 5 5 a 5 5 0 0 1 -5 5 a 5 5 0 0 1 -5 -5 m 10 0 h 5"/>
<text class="comment" id="KW_GROUP" x="68" y="1219">
KW_GROUP</text>
<g class="string">
<rect height="22" rx="10" ry="10" width="108" x="111" y="1203"/>
<text x="165" y="1219">
group|token</text>
</g>
<path d=" M 229 1214 h 5 a 5 5 0 0 1 5 -5 a 5 5 0 0 1 5 5 a 5 5 0 0 1 -5 5 a 5 5 0 0 1 -5 -5"/>
<path d=" M 25 1214 h 10"/>
<path d=" M 101 1214 h 10"/>
<path d=" M 219 1214 h 10"/>
</g>
<g class="sequence">
<path d=" M 10 1248 a 5 5 0 0 1 5 -5 a 5 5 0 0 1 5 5 a 5 5 0 0 1 -5 5 a 5 5 0 0 1 -5 -5 m 10 0 h 5"/>
<text class="comment" id="KW_CLIMB" x="68" y="1253">
KW_CLIMB</text>
<g class="string">
<rect height="22" rx="10" ry="10" width="60" x="111" y="1237"/>
<text x="141" y="1253">
climb</text>
</g>
<path d=" M 181 1248 h 5 a 5 5 0 0 1 5 -5 a 5 5 0 0 1 5 5 a 5 5 0 0 1 -5 5 a 5 5 0 0 1 -5 -5"/>
<path d=" M 25 1248 h 10"/>
<path d=" M 101 1248 h 10"/>
<path d=" M 171 1248 h 10"/>
</g>
<g class="sequence">
<path d=" M 10 1282 a 5 5 0 0 1 5 -5 a 5 5 0 0 1 5 5 a 5 5 0 0 1 -5 5 a 5 5 0 0 1 -5 -5 m 10 0 h 5"/>
<text class="comment" id="KW_MACRO" x="68" y="1287">
KW_MACRO</text>
<g class="string">
<rect height="22" rx="10" ry="10" width="268" x="111" y="1271"/>
<text x="245" y="1287">
macro|def|function|func|fun|fn</text>
</g>
<path d=" M 389 1282 h 5 a 5 5 0 0 1 5 -5 a 5 5 0 0 1 5 5 a 5 5 0 0 1 -5 5 a 5 5 0 0 1 -5 -5"/>
<path d=" M 25 1282 h 10"/>
<path d=" M 101 1282 h 10"/>
<path d=" M 379 1282 h 10"/>
</g>
<g class="sequence">
<path d=" M 10 1316 a 5 5 0 0 1 5 -5 a 5 5 0 0 1 5 5 a 5 5 0 0 1 -5 5 a 5 5 0 0 1 -5 -5 m 10 0 h 5"/>
<text class="comment" id="WhiteSpace" x="75" y="1321">
WhiteSpace</text>
<g class="string">
<rect height="22" rx="10" ry="10" width="148" x="125" y="1305"/>
<text x="199" y="1321">
\p{White_Space}+</text>
</g>
<path d=" M 283 1316 h 5 a 5 5 0 0 1 5 -5 a 5 5 0 0 1 5 5 a 5 5 0 0 1 -5 5 a 5 5 0 0 1 -5 -5"/>
<path d=" M 25 1316 h 10"/>
<path d=" M 115 1316 h 10"/>
<path d=" M 273 1316 h 10"/>
</g>
<g class="sequence">
<path d=" M 10 1350 a 5 5 0 0 1 5 -5 a 5 5 0 0 1 5 5 a 5 5 0 0 1 -5 5 a 5 5 0 0 1 -5 -5 m 10 0 h 5"/>
<text class="comment" id="Comment" x="64" y="1355">
Comment</text>
<g class="choice">
<path d=" M 104 1350 h 24 m 130 0 h 24"/>
<g class="sequence">
<g class="string">
<rect height="22" rx="10" ry="10" width="36" x="128" y="1339"/>
<text x="146" y="1355">
//</text>
</g>
<g class="string">
<rect height="22" rx="10" ry="10" width="84" x="174" y="1339"/>
<text x="216" y="1355">
[^\n\r]*</text>
</g>
<path d=" M 164 1350 h 10"/>
</g>
<path d=" M 104 1350 a 12 12 0 0 1 12 12 v 9 m 154 0 v -9 a 12 12 0 0 1 12 -12"/>
<path d=" M 116 1371 v 0 a 12 12 0 0 0 12 12 m 82 0 h 48 a 12 12 0 0 0 12 -12 v 0"/>
<g class="sequence">
<g class="string">
<rect height="22" rx="10" ry="10" width="36" x="128" y="1372"/>
<text x="146" y="1388">
/*</text>
</g>
<g class="string">
<rect height="22" rx="10" ry="10" width="36" x="174" y="1372"/>
<text x="192" y="1388">
*/</text>
</g>
<path d=" M 164 1383 h 10"/>
</g>
</g>
<path d=" M 292 1350 h 5 a 5 5 0 0 1 5 -5 a 5 5 0 0 1 5 5 a 5 5 0 0 1 -5 5 a 5 5 0 0 1 -5 -5"/>
<path d=" M 25 1350 h 10"/>
<path d=" M 94 1350 h 10"/>
<path d=" M 282 1350 h 10"/>
</g>
</g>
</svg>
